<svg width="178" height="49" viewBox="0 0 178 49" fill="none" xmlns="http://www.w3.org/2000/svg">
<path d="M45.6055 22.5396H55.4007V31.3869L60.7723 22.5396H71.6209L63.3001 34.1253L71.8315 46.9751H60.5617L55.4007 37.7064V46.9751H45.6055V22.5396Z" fill="#1B1F3B"/>
<path d="M43.1834 46.2377C41.6035 47.0804 39.497 47.7123 36.6532 47.7123C28.6485 47.7123 22.9609 42.5514 22.9609 34.7573C22.9609 25.9099 30.2284 21.8022 36.4426 21.8022C38.4438 21.8022 41.1822 22.3289 43.1834 23.6981V32.2295C41.7089 30.3336 39.497 29.5963 37.8118 29.5963C34.1254 29.5963 32.4402 32.0188 32.4402 34.9679C32.4402 38.1277 34.7574 39.9182 37.8118 39.9182C40.0237 39.9182 41.9195 38.9703 43.2887 37.7064C43.1834 37.7064 43.1834 46.2377 43.1834 46.2377Z" fill="#1B1F3B"/>
<path d="M9.79527 31.703V28.2272H10.7432C12.4284 28.2272 12.955 29.0698 12.955 29.9124C12.955 30.755 12.5337 31.5976 10.7432 31.5976L9.79527 31.703ZM0 22.4343V46.9752H14.5349C21.2757 46.9752 22.7503 42.6568 22.7503 40.129C22.7503 36.7586 20.4331 34.4414 17.2734 33.9148V33.8095C19.2746 33.1775 21.5917 31.4923 21.5917 28.6485C21.5917 26.7527 20.8544 22.4343 13.7976 22.4343C13.7976 22.4343 0 22.4343 0 22.4343ZM9.79527 40.9716V37.2852H10.9538C11.9018 37.2852 13.3763 37.4959 13.3763 39.0757C13.3763 40.761 11.7964 40.9716 10.9538 40.9716H9.79527Z" fill="#1B1F3B"/>
<path d="M129.129 25.6995L126.285 25.8048L126.075 25.0675L123.336 24.9622V24.4355H120.492L120.914 25.3835L122.178 25.5941L122.072 25.1728L123.231 26.0154L125.127 26.4367H126.391L129.656 26.0154L129.129 25.6995Z" fill="#1B1F3B" fill-opacity="0.6"/>
<path d="M121.966 23.2769L120.597 23.0663C120.597 23.0663 120.597 22.645 120.07 22.329C119.544 22.1183 119.649 22.329 119.649 22.329L119.122 22.013L118.175 21.9077L118.069 21.2757L116.911 21.1704V20.8544L115.963 20.7491L115.541 20.4331L115.647 20.0118L115.436 19.6959L114.278 19.1692L113.33 18.8533L112.698 18.116L111.96 17.484L111.012 16.5361L108.59 15.6935L106.378 14.1136L105.43 13.6923L104.482 13.271L102.481 12.2178L99.4266 10.5325L92.7911 7.37278L90.8953 6.53018C89.842 6.10888 89.6314 5.7929 89.6314 5.68757C88.6834 5.47692 88.3675 5.26627 87.8408 4.84497C87.3142 4.84497 86.1556 4.21302 85.8397 3.89704C85.8397 3.89704 83.8385 3.37041 83.7331 3.15976C83.7331 3.05444 78.6775 1.26391 78.0456 1.15858C77.6243 1.15858 76.3604 0.947929 76.1497 0.842604C75.9391 0.842604 75.2018 0.631953 74.8858 0.526627C73.8326 0.421302 72.7793 0.210651 71.726 0.210651C70.9888 0.210651 70.4621 0.210651 69.8302 0C69.6195 0.105325 68.0397 -0.105325 67.4077 0.315976C66.7758 0.315976 65.3012 0.631953 64.8799 0.842604C64.0373 0.842604 62.5627 1.79053 62.0361 2.00118C61.8255 2.10651 61.5095 2.21183 61.2988 2.31716C62.8787 2.84379 64.6692 3.47574 64.6692 3.58107C64.7746 3.68639 66.7758 4.21302 66.7758 4.31834C67.3024 4.73965 68.461 5.3716 68.9876 5.3716C69.5142 5.89822 69.8302 6.00355 70.7781 6.2142C70.7781 6.31953 70.9888 6.6355 72.042 7.0568L73.9379 7.89941L80.5734 11.0592L83.6278 12.7444L85.629 13.7976L86.5769 14.2189L87.5249 14.6402L88.2621 15.1669L89.7367 15.6935L93.0018 16.7467L97.0042 18.2213L98.4787 18.7479L99.9533 19.1692L100.691 19.0639L101.428 19.2746L102.27 20.0118L103.113 19.6959L103.745 19.8012L104.166 20.4331L104.482 20.7491L105.22 20.9598L105.957 21.0651L106.799 20.8544L107.853 20.9598L108.169 21.5917L109.643 21.8024L110.696 21.9077L111.75 22.013L112.592 22.329L113.33 23.0663L114.383 23.2769L117.121 23.6982L119.544 23.3822L121.124 23.4876L121.966 23.2769Z" fill="#1B1F3B" fill-opacity="0.6"/>
<path d="M99.9551 27.1738H102.904V27.7005L105.537 27.9111L105.853 28.5431L108.592 28.4377L109.224 28.859L105.959 29.2803L104.695 29.175L102.799 28.7537L101.64 28.0164L101.746 28.3324L100.482 28.2271L99.9551 27.1738Z" fill="#1B1F3B"/>
<path d="M100.271 26.0153C100.271 26.0153 100.271 25.594 99.744 25.2781C99.2174 25.0674 99.3227 25.2781 99.3227 25.2781L98.7961 24.9621L97.9535 24.7514V24.1195L96.7949 24.0142V23.6982L95.847 23.5929L95.4257 23.2769L95.531 22.8556L95.3203 22.5396L94.1618 22.013L93.2138 21.697L92.5819 20.9597L91.8446 20.3278L90.8967 19.3798L88.4742 18.5372L86.2623 16.9574L85.3144 16.5361L84.3665 16.1148L82.3653 15.0615L79.3109 13.3763L72.6754 10.2165L70.7795 9.37393C69.7262 8.95263 69.5156 8.63665 69.5156 8.53132C68.5677 8.32067 68.2517 8.11002 67.7251 7.68872C67.1984 7.68872 66.0399 7.05677 65.7239 6.74079C65.7239 6.74079 63.7227 6.21416 63.6174 6.00351C63.6174 5.89819 58.5617 4.10766 57.9298 4.00233C57.5085 4.00233 56.2446 3.79168 56.0339 3.68635C55.8233 3.68635 55.086 3.4757 54.77 3.37038C53.7168 3.26505 52.6635 3.0544 51.6103 3.0544C50.873 3.0544 50.3464 3.0544 49.7144 2.84375C49.5038 2.94908 47.9239 2.73842 47.2919 3.15973C46.66 3.15973 45.1854 3.4757 44.7641 3.68635C43.9215 3.68635 42.447 4.63428 41.9203 4.84493C41.499 5.05558 40.9724 5.26624 40.5511 5.47689C40.3404 5.58221 37.602 6.95144 37.3913 7.16209C37.3913 7.26742 34.6529 8.8473 34.4422 9.05795C34.3369 9.16328 33.5996 9.47925 33.389 9.6899C33.1783 9.90056 32.441 10.5325 32.2304 10.6378C32.1251 10.8485 31.3878 11.1645 31.2825 11.3751C31.0718 11.5858 30.2292 12.0071 30.1239 12.1124C30.1239 12.1124 29.5972 12.5337 29.2813 12.8497C29.1759 13.0603 28.9653 13.271 28.86 13.4816C28.6493 13.5869 27.912 14.0082 27.7014 14.1136C27.7014 14.5349 27.7014 15.2722 27.0694 15.0615C27.0694 15.0615 26.2268 15.5881 26.2268 15.4828C26.3322 15.4828 25.8055 16.2201 25.3842 16.7467C25.1736 17.0627 23.9097 17.484 23.699 17.8C23.1724 18.4319 22.6458 19.0639 22.1191 19.6958C22.1191 19.6958 22.1191 19.6958 22.2245 19.6958C22.2245 19.8011 22.6458 19.8011 22.7511 19.9065C22.8564 20.1171 22.5404 20.3278 22.5404 20.6438C22.5404 20.6438 22.5404 20.6438 22.6458 20.6438C22.9617 20.6438 23.383 20.2224 23.699 20.1171C23.9097 20.0118 24.2257 19.9065 24.4363 19.8011C24.8576 19.5905 25.2789 19.2745 25.8055 19.0639C29.0706 17.2733 32.441 15.5881 35.7061 13.7976C37.286 12.955 38.5499 12.2177 40.3404 11.2698C40.7617 11.0591 42.3416 10.0059 43.5002 9.90056C44.9748 9.79523 46.8706 10.2165 47.2919 10.4272C47.7132 10.6378 48.8718 11.1645 49.5038 11.2698C49.7144 11.3751 50.0304 11.5858 50.1357 11.5858C50.241 11.6911 51.2943 11.7964 51.8209 12.0071C52.0316 12.1124 52.2422 12.2177 52.4529 12.323C53.4008 12.639 55.718 13.1656 56.5606 13.3763C57.2978 13.5869 57.7191 14.0082 58.0351 14.1136C58.5617 14.4296 58.6671 14.3242 59.1937 14.5349C60.1416 14.6402 60.6683 14.9562 60.6683 14.9562C60.9842 15.0615 61.0896 15.1668 61.4055 15.2722C61.6162 15.2722 62.1428 15.6935 62.2481 15.6935C62.4588 15.6935 63.9333 16.2201 64.144 16.2201C64.3546 16.2201 65.4079 16.6414 65.6185 16.7467C65.9345 16.852 66.2505 16.9574 66.5665 17.0627L69.6209 18.2213L72.886 19.2745L76.8884 20.7491L78.3629 21.2757L79.8375 21.697L80.5748 21.5917L81.312 21.8023L82.1546 22.5396L82.9973 22.2236L83.6292 22.329L84.0505 22.9609L84.3665 23.2769L85.1038 23.4875L85.841 23.5929L86.6836 23.3822L87.7369 23.4875L88.0529 24.1195L89.5274 24.3301L90.5807 24.4355L91.6339 24.5408L92.4765 24.8568L93.2138 25.594L94.2671 25.8047L97.0055 26.226L99.428 25.91L101.008 26.0153L101.535 25.594L100.271 26.0153Z" fill="#1B1F3B"/>
<path d="M80.0465 46.0273C79.6252 46.2379 78.9933 46.4486 78.1507 46.4486C76.7814 46.4486 75.9388 46.0273 75.3069 45.3953C74.3589 44.5527 74.043 43.6048 74.043 42.4462C74.043 41.077 74.6749 40.0237 75.3069 39.4971C76.0441 38.7598 77.0974 38.4438 78.1507 38.4438C78.6773 38.4438 79.4146 38.5492 80.0465 38.8651V40.6557C79.3092 39.8131 78.4666 39.8131 78.1507 39.8131C76.5708 39.8131 75.5175 41.077 75.5175 42.4462C75.5175 44.1314 76.8867 45.0794 78.1507 45.0794C78.8879 45.0794 79.5199 44.7634 79.9412 44.2367C80.0465 44.3421 80.0465 46.0273 80.0465 46.0273Z" fill="#1B1F3B"/>
<path d="M84.472 46.3432H82.8921V40.0237H81.1016V38.7598H86.1572V40.0237H84.3667L84.472 46.3432Z" fill="#1B1F3B"/>
<path d="M89.316 39.9184H89.8426C90.1586 39.9184 90.5799 39.9184 90.8958 40.1291C91.1065 40.3397 91.3171 40.5504 91.3171 40.9717C91.3171 41.2877 91.2118 41.6037 90.8958 41.8143C90.5799 42.2356 90.2639 42.2356 89.9479 42.2356H89.316V39.9184ZM87.7361 38.6545V46.3433H89.316V43.4995H90.2639C91.2118 43.4995 91.8438 43.2889 92.2651 42.8676C92.897 42.2356 92.897 41.4983 92.897 41.1824C92.897 40.6557 92.6864 39.9184 92.0544 39.2865C91.5278 38.7599 90.8958 38.6545 89.9479 38.6545H87.7361Z" fill="#1B1F3B"/>
<path d="M96.1622 43.4994L97.3207 40.7609L98.374 43.4994H96.1622ZM99.5326 46.3432H101.112L97.8474 38.5491H96.6888L93.3184 46.3432H95.0036L95.7408 44.7633H98.9006L99.5326 46.3432Z" fill="#1B1F3B"/>
<path d="M104.588 42.3408L102.271 38.7598H104.062L105.431 41.0769L106.905 38.7598H108.696L106.273 42.3408L108.907 46.3432H107.116L105.431 43.4994L103.64 46.3432H101.85L104.588 42.3408Z" fill="#1B1F3B"/>
<path d="M114.594 45.1846C113.014 45.1846 111.961 44.1313 111.961 42.5514C111.961 40.9716 113.014 39.9183 114.594 39.9183C116.174 39.9183 117.227 40.9716 117.227 42.5514C117.227 44.026 116.069 45.1846 114.594 45.1846ZM114.594 38.5491C112.172 38.5491 110.381 40.2343 110.381 42.5514C110.381 44.8686 112.066 46.5538 114.594 46.5538C117.017 46.5538 118.807 44.8686 118.807 42.5514C118.807 40.2343 117.017 38.5491 114.594 38.5491Z" fill="#1B1F3B"/>
<path d="M122.283 39.9183H122.704C123.336 39.9183 123.863 40.129 123.863 40.8662C123.863 41.8142 122.915 41.8142 122.704 41.8142H122.283V39.9183ZM120.809 38.6544V46.3432H123.442C124.074 46.3432 124.811 46.2378 125.443 45.7112C125.97 45.2899 126.075 44.6579 126.075 44.1313C126.075 43.71 125.97 43.1834 125.548 42.6568C125.338 42.4461 125.022 42.2355 124.495 42.1301C124.706 42.0248 125.338 41.6035 125.338 40.6556C125.338 40.0236 125.022 39.3917 124.6 39.0757C123.968 38.5491 123.126 38.5491 122.704 38.5491L120.809 38.6544ZM122.283 42.9727H122.81C123.126 42.9727 123.547 42.9727 123.863 43.0781C124.39 43.2887 124.39 43.71 124.39 43.9207C124.39 44.2366 124.284 44.5526 123.863 44.7633C123.547 44.9739 123.126 44.9739 122.81 44.9739H122.178V42.9727H122.283Z" fill="#1B1F3B"/>
<path d="M131.867 45.1846C130.288 45.1846 129.234 44.1313 129.234 42.5514C129.234 40.9716 130.288 39.9183 131.867 39.9183C133.342 39.9183 134.501 40.9716 134.501 42.5514C134.501 44.026 133.447 45.1846 131.867 45.1846ZM131.867 38.5491C129.445 38.5491 127.654 40.2343 127.654 42.5514C127.654 44.8686 129.34 46.5538 131.867 46.5538C134.29 46.5538 136.08 44.8686 136.08 42.5514C136.08 40.2343 134.29 38.5491 131.867 38.5491Z" fill="#1B1F3B"/>
<path d="M139.556 38.6544V43.8154L143.875 38.5491H144.928V46.3432H143.348V41.1822L139.03 46.4485H137.976V38.6544C138.082 38.6544 139.556 38.6544 139.556 38.6544ZM140.504 36.2319C140.715 36.8639 141.452 36.8639 141.557 36.8639C141.663 36.8639 142.4 36.8639 142.611 36.2319L143.664 36.6532C143.348 37.3905 142.611 37.9171 141.557 37.9171C140.504 37.9171 139.767 37.3905 139.451 36.6532L140.504 36.2319Z" fill="#1B1F3B"/>
<path d="M152.933 39.9182H155.25V44.9738H152.091C152.301 44.7632 152.512 44.4472 152.723 44.0259C152.828 43.7099 153.039 43.078 153.039 41.9194V39.9182H152.933ZM151.459 38.6543V42.0247C151.459 43.078 151.353 43.6046 151.143 44.0259C150.932 44.5525 150.511 45.0792 149.879 45.0792V48.1336H151.248V46.4484H156.093V48.1336H157.462V45.0792H156.62V38.7596H151.459V38.6543Z" fill="#1B1F3B"/>
<path d="M162.938 45.1846C161.358 45.1846 160.304 44.1313 160.304 42.5514C160.304 40.9716 161.358 39.9183 162.938 39.9183C164.518 39.9183 165.571 40.9716 165.571 42.5514C165.571 44.026 164.518 45.1846 162.938 45.1846ZM162.938 38.5491C160.515 38.5491 158.725 40.2343 158.725 42.5514C158.725 44.8686 160.41 46.5538 162.938 46.5538C165.36 46.5538 167.151 44.8686 167.151 42.5514C167.151 40.2343 165.465 38.5491 162.938 38.5491Z" fill="#1B1F3B"/>
<path d="M168.73 46.3432L170.205 38.5491H171.258L173.365 43.4994L175.577 38.5491H176.63L177.999 46.3432H176.419L175.682 41.6035L173.575 46.4485H173.154L171.048 41.6035L170.205 46.3432H168.73Z" fill="#1B1F3B"/>
</svg>
