<svg width="184" height="48" viewBox="0 0 184 48" fill="none" xmlns="http://www.w3.org/2000/svg">
<g clip-path="url(#clip0_1022_1254)">
<path d="M45.6055 22.4341H55.4007V31.2814L60.7723 22.4341H71.6209L63.3001 34.0199L71.8315 46.8696H60.5617L55.4007 37.6009V46.8696H45.6055V22.4341Z" fill="#006FBA"/>
<path d="M43.1834 46.1323C41.6035 46.9749 39.497 47.6068 36.6532 47.6068C28.6485 47.6068 22.9609 42.4459 22.9609 34.6518C22.9609 25.8045 30.2284 21.6968 36.4426 21.6968C38.4438 21.6968 41.1822 22.2234 43.1834 23.5926V32.124C41.7089 30.2281 39.497 29.4909 37.8118 29.4909C34.1254 29.4909 32.4402 31.9133 32.4402 34.8625C32.4402 38.0222 34.7574 39.8128 37.8118 39.8128C40.0237 39.8128 41.9195 38.8648 43.2887 37.6009C43.1834 37.6009 43.1834 46.1323 43.1834 46.1323Z" fill="#006FBA"/>
<path d="M9.79527 31.5975V28.1218H10.7432C12.4284 28.1218 12.955 28.9644 12.955 29.807C12.955 30.6496 12.5337 31.4922 10.7432 31.4922L9.79527 31.5975ZM0 22.3289V46.8697H14.5349C21.2757 46.8697 22.7503 42.5513 22.7503 40.0235C22.7503 36.6531 20.4331 34.336 17.2734 33.8093V33.704C19.2746 33.0721 21.5917 31.3868 21.5917 28.5431C21.5917 26.6472 20.8544 22.3289 13.7976 22.3289C13.7976 22.3289 0 22.3289 0 22.3289ZM9.79527 40.8661V37.1797H10.9538C11.9018 37.1797 13.3763 37.3904 13.3763 38.9703C13.3763 40.6555 11.7964 40.8661 10.9538 40.8661H9.79527Z" fill="#006FBA"/>
<path d="M129.129 25.594L126.285 25.6993L126.075 24.962L123.336 24.8567V24.3301H120.492L120.914 25.278L122.178 25.4887L122.072 25.0674L123.231 25.91L125.127 26.3313H126.391L129.656 25.91L129.129 25.594Z" fill="#52B9E9"/>
<path d="M121.966 23.1715L120.597 22.9608C120.597 22.9608 120.597 22.5395 120.07 22.2235C119.544 22.0129 119.649 22.2235 119.649 22.2235L119.122 21.9075L118.175 21.8022L118.069 21.1703L116.911 21.0649V20.749L115.963 20.6436L115.541 20.3277L115.647 19.9064L115.436 19.5904L114.278 19.0638L113.33 18.7478L112.698 18.0105L111.96 17.3786L111.012 16.4306L108.59 15.588L106.378 14.0081L105.43 13.5868L104.482 13.1655L102.481 12.1123L99.4266 10.4271L92.7911 7.26731L90.8953 6.42471C89.842 6.00341 89.6314 5.68743 89.6314 5.58211C88.6834 5.37145 88.3675 5.1608 87.8408 4.7395C87.3142 4.7395 86.1556 4.10755 85.8397 3.79157C85.8397 3.79157 83.8385 3.26495 83.7331 3.05429C83.7331 2.94897 78.6775 1.15844 78.0456 1.05311C77.6243 1.05311 76.3604 0.84246 76.1497 0.737135C75.9391 0.737135 75.2018 0.526484 74.8858 0.421158C73.8326 0.315833 72.7793 0.105182 71.726 0.105182C70.9888 0.105182 70.4621 0.105182 69.8302 -0.105469C69.6195 -0.000143297 68.0397 -0.210794 67.4077 0.210508C66.7758 0.210508 65.3012 0.526484 64.8799 0.737135C64.0373 0.737135 62.5627 1.68506 62.0361 1.89571C61.8255 2.00104 61.5095 2.10637 61.2988 2.21169C62.8787 2.73832 64.6692 3.37027 64.6692 3.4756C64.7746 3.58092 66.7758 4.10755 66.7758 4.21287C67.3024 4.63418 68.461 5.26613 68.9876 5.26613C69.5142 5.79276 69.8302 5.89808 70.7781 6.10873C70.7781 6.21406 70.9888 6.53003 72.042 6.95134L73.9379 7.79394L80.5734 10.9537L83.6278 12.6389L85.629 13.6922L86.5769 14.1135L87.5249 14.5348L88.2621 15.0614L89.7367 15.588L93.0018 16.6413L97.0042 18.1158L98.4787 18.6425L99.9533 19.0638L100.691 18.9584L101.428 19.1691L102.27 19.9064L103.113 19.5904L103.745 19.6957L104.166 20.3277L104.482 20.6436L105.22 20.8543L105.957 20.9596L106.799 20.749L107.853 20.8543L108.169 21.4862L109.643 21.6969L110.696 21.8022L111.75 21.9075L112.592 22.2235L113.33 22.9608L114.383 23.1715L117.121 23.5928L119.544 23.2768L121.124 23.3821L121.966 23.1715Z" fill="#52B9E9"/>
<path d="M99.9551 27.0684H102.904V27.595L105.537 27.8056L105.853 28.4376L108.592 28.3323L109.224 28.7536L105.959 29.1749L104.695 29.0695L102.799 28.6482L101.64 27.911L101.746 28.2269L100.482 28.1216L99.9551 27.0684Z" fill="#006FBA"/>
<path d="M100.271 25.9099C100.271 25.9099 100.271 25.4886 99.744 25.1726C99.2174 24.962 99.3227 25.1726 99.3227 25.1726L98.7961 24.8566L97.9535 24.646V24.014L96.7949 23.9087V23.5927L95.847 23.4874L95.4257 23.1714L95.531 22.7501L95.3203 22.4341L94.1618 21.9075L93.2138 21.5915L92.5819 20.8543L91.8446 20.2223L90.8967 19.2744L88.4742 18.4318L86.2623 16.8519L85.3144 16.4306L84.3665 16.0093L82.3653 14.956L79.3109 13.2708L72.6754 10.1111L70.7795 9.26846C69.7262 8.84716 69.5156 8.53118 69.5156 8.42586C68.5677 8.2152 68.2517 8.00455 67.7251 7.58325C67.1984 7.58325 66.0399 6.9513 65.7239 6.63532C65.7239 6.63532 63.7227 6.1087 63.6174 5.89804C63.6174 5.79272 58.5617 4.00219 57.9298 3.89686C57.5085 3.89686 56.2446 3.68621 56.0339 3.58089C55.8233 3.58089 55.086 3.37023 54.77 3.26491C53.7168 3.15958 52.6635 2.94893 51.6103 2.94893C50.873 2.94893 50.3464 2.94893 49.7144 2.73828C49.5038 2.84361 47.9239 2.63296 47.2919 3.05426C46.66 3.05426 45.1854 3.37023 44.7641 3.58089C43.9215 3.58089 42.447 4.52881 41.9203 4.73946C41.499 4.95012 40.9724 5.16077 40.5511 5.37142C40.3404 5.47674 37.602 6.84597 37.3913 7.05662C37.3913 7.16195 34.6529 8.74183 34.4422 8.95248C34.3369 9.05781 33.5996 9.37379 33.389 9.58444C33.1783 9.79509 32.441 10.427 32.2304 10.5324C32.1251 10.743 31.3878 11.059 31.2825 11.2696C31.0718 11.4803 30.2292 11.9016 30.1239 12.0069C30.1239 12.0069 29.5972 12.4282 29.2813 12.7442C29.1759 12.9549 28.9653 13.1655 28.86 13.3762C28.6493 13.4815 27.912 13.9028 27.7014 14.0081C27.7014 14.4294 27.7014 15.1667 27.0694 14.956C27.0694 14.956 26.2268 15.4827 26.2268 15.3773C26.3322 15.3773 25.8055 16.1146 25.3842 16.6412C25.1736 16.9572 23.9097 17.3785 23.699 17.6945C23.1724 18.3264 22.6458 18.9584 22.1191 19.5904C22.1191 19.5904 22.1191 19.5904 22.2245 19.5904C22.2245 19.6957 22.6458 19.6957 22.7511 19.801C22.8564 20.0117 22.5404 20.2223 22.5404 20.5383C22.5404 20.5383 22.5404 20.5383 22.6458 20.5383C22.9617 20.5383 23.383 20.117 23.699 20.0117C23.9097 19.9063 24.2257 19.801 24.4363 19.6957C24.8576 19.485 25.2789 19.1691 25.8055 18.9584C29.0706 17.1679 32.441 15.4827 35.7061 13.6921C37.286 12.8495 38.5499 12.1122 40.3404 11.1643C40.7617 10.9537 42.3416 9.90041 43.5002 9.79509C44.9748 9.68976 46.8706 10.1111 47.2919 10.3217C47.7132 10.5324 48.8718 11.059 49.5038 11.1643C49.7144 11.2696 50.0304 11.4803 50.1357 11.4803C50.241 11.5856 51.2943 11.6909 51.8209 11.9016C52.0316 12.0069 52.2422 12.1122 52.4529 12.2176C53.4008 12.5335 55.718 13.0602 56.5606 13.2708C57.2978 13.4815 57.7191 13.9028 58.0351 14.0081C58.5617 14.3241 58.6671 14.2188 59.1937 14.4294C60.1416 14.5347 60.6683 14.8507 60.6683 14.8507C60.9842 14.956 61.0896 15.0614 61.4055 15.1667C61.6162 15.1667 62.1428 15.588 62.2481 15.588C62.4588 15.588 63.9333 16.1146 64.144 16.1146C64.3546 16.1146 65.4079 16.5359 65.6185 16.6412C65.9345 16.7466 66.2505 16.8519 66.5665 16.9572L69.6209 18.1158L72.886 19.1691L76.8884 20.6436L78.3629 21.1702L79.8375 21.5915L80.5748 21.4862L81.312 21.6969L82.1546 22.4341L82.9973 22.1182L83.6292 22.2235L84.0505 22.8554L84.3665 23.1714L85.1038 23.3821L85.841 23.4874L86.6836 23.2767L87.7369 23.3821L88.0529 24.014L89.5274 24.2247L90.5807 24.33L91.6339 24.4353L92.4765 24.7513L93.2138 25.4886L94.2671 25.6992L97.0055 26.1205L99.428 25.8046L101.008 25.9099L101.535 25.4886L100.271 25.9099Z" fill="#006FBA"/>
<path d="M80.0465 45.9218C79.6252 46.1325 78.9933 46.3431 78.1507 46.3431C76.7814 46.3431 75.9388 45.9218 75.3069 45.2899C74.3589 44.4473 74.043 43.4993 74.043 42.3407C74.043 40.9715 74.6749 39.9183 75.3069 39.3916C76.0441 38.6544 77.0974 38.3384 78.1507 38.3384C78.6773 38.3384 79.4146 38.4437 80.0465 38.7597V40.5502C79.3092 39.7076 78.4666 39.7076 78.1507 39.7076C76.5708 39.7076 75.5175 40.9715 75.5175 42.3407C75.5175 44.026 76.8867 44.9739 78.1507 44.9739C78.8879 44.9739 79.5199 44.6579 79.9412 44.1313C80.0465 44.2366 80.0465 45.9218 80.0465 45.9218Z" fill="#006FBA"/>
<path d="M84.472 46.2377H82.8921V39.9182H81.1016V38.6543H86.1572V39.9182H84.3667L84.472 46.2377Z" fill="#006FBA"/>
<path d="M89.316 39.813H89.8426C90.1586 39.813 90.5799 39.813 90.8958 40.0236C91.1065 40.2343 91.3171 40.4449 91.3171 40.8662C91.3171 41.1822 91.2118 41.4982 90.8958 41.7088C90.5799 42.1301 90.2639 42.1301 89.9479 42.1301H89.316V39.813ZM87.7361 38.5491V46.2378H89.316V43.394H90.2639C91.2118 43.394 91.8438 43.1834 92.2651 42.7621C92.897 42.1301 92.897 41.3929 92.897 41.0769C92.897 40.5503 92.6864 39.813 92.0544 39.181C91.5278 38.6544 90.8958 38.5491 89.9479 38.5491H87.7361Z" fill="#006FBA"/>
<path d="M96.1622 43.3939L97.3207 40.6554L98.374 43.3939H96.1622ZM99.5326 46.2377H101.112L97.8474 38.4436H96.6888L93.3184 46.2377H95.0036L95.7408 44.6578H98.9006L99.5326 46.2377Z" fill="#006FBA"/>
<path d="M104.588 42.2354L102.271 38.6543H104.062L105.431 40.9715L106.905 38.6543H108.696L106.273 42.2354L108.907 46.2377H107.116L105.431 43.3939L103.64 46.2377H101.85L104.588 42.2354Z" fill="#006FBA"/>
<path d="M114.594 45.0791C113.014 45.0791 111.961 44.0259 111.961 42.446C111.961 40.8661 113.014 39.8128 114.594 39.8128C116.174 39.8128 117.227 40.8661 117.227 42.446C117.227 43.9205 116.069 45.0791 114.594 45.0791ZM114.594 38.4436C112.172 38.4436 110.381 40.1288 110.381 42.446C110.381 44.7631 112.066 46.4483 114.594 46.4483C117.017 46.4483 118.807 44.7631 118.807 42.446C118.807 40.1288 117.017 38.4436 114.594 38.4436Z" fill="#006FBA"/>
<path d="M122.283 39.8128H122.704C123.336 39.8128 123.863 40.0235 123.863 40.7608C123.863 41.7087 122.915 41.7087 122.704 41.7087H122.283V39.8128ZM120.809 38.5489V46.2377H123.442C124.074 46.2377 124.811 46.1324 125.443 45.6057C125.97 45.1844 126.075 44.5525 126.075 44.0259C126.075 43.6045 125.97 43.0779 125.548 42.5513C125.338 42.3406 125.022 42.13 124.495 42.0247C124.706 41.9193 125.338 41.498 125.338 40.5501C125.338 39.9182 125.022 39.2862 124.6 38.9702C123.968 38.4436 123.126 38.4436 122.704 38.4436L120.809 38.5489ZM122.283 42.8673H122.81C123.126 42.8673 123.547 42.8673 123.863 42.9726C124.39 43.1832 124.39 43.6045 124.39 43.8152C124.39 44.1312 124.284 44.4472 123.863 44.6578C123.547 44.8685 123.126 44.8685 122.81 44.8685H122.178V42.8673H122.283Z" fill="#006FBA"/>
<path d="M131.867 45.0791C130.288 45.0791 129.234 44.0259 129.234 42.446C129.234 40.8661 130.288 39.8128 131.867 39.8128C133.342 39.8128 134.501 40.8661 134.501 42.446C134.501 43.9205 133.447 45.0791 131.867 45.0791ZM131.867 38.4436C129.445 38.4436 127.654 40.1288 127.654 42.446C127.654 44.7631 129.34 46.4483 131.867 46.4483C134.29 46.4483 136.08 44.7631 136.08 42.446C136.08 40.1288 134.29 38.4436 131.867 38.4436Z" fill="#006FBA"/>
<path d="M139.556 38.5489V43.7099L143.875 38.4436H144.928V46.2377H143.348V41.0768L139.03 46.343H137.976V38.5489C138.082 38.5489 139.556 38.5489 139.556 38.5489ZM140.504 36.1265C140.715 36.7584 141.452 36.7584 141.557 36.7584C141.663 36.7584 142.4 36.7584 142.611 36.1265L143.664 36.5478C143.348 37.285 142.611 37.8117 141.557 37.8117C140.504 37.8117 139.767 37.285 139.451 36.5478L140.504 36.1265Z" fill="#006FBA"/>
<path d="M152.933 39.8127H155.25V44.8684H152.091C152.301 44.6577 152.512 44.3417 152.723 43.9204C152.828 43.6045 153.039 42.9725 153.039 41.8139V39.8127H152.933ZM151.459 38.5488V41.9192C151.459 42.9725 151.353 43.4991 151.143 43.9204C150.932 44.4471 150.511 44.9737 149.879 44.9737V48.0281H151.248V46.3429H156.093V48.0281H157.462V44.9737H156.62V38.6542H151.459V38.5488Z" fill="#006FBA"/>
<path d="M162.938 45.0791C161.358 45.0791 160.304 44.0259 160.304 42.446C160.304 40.8661 161.358 39.8128 162.938 39.8128C164.518 39.8128 165.571 40.8661 165.571 42.446C165.571 43.9205 164.518 45.0791 162.938 45.0791ZM162.938 38.4436C160.515 38.4436 158.725 40.1288 158.725 42.446C158.725 44.7631 160.41 46.4483 162.938 46.4483C165.36 46.4483 167.151 44.7631 167.151 42.446C167.151 40.1288 165.465 38.4436 162.938 38.4436Z" fill="#006FBA"/>
<path d="M168.73 46.2377L170.205 38.4436H171.258L173.365 43.3939L175.577 38.4436H176.63L177.999 46.2377H176.419L175.682 41.498L173.575 46.343H173.154L171.048 41.498L170.205 46.2377H168.73Z" fill="#006FBA"/>
</g>
<defs>
<clipPath id="clip0_1022_1254">
<rect width="184" height="48" fill="white"/>
</clipPath>
</defs>
</svg>
