<svg width="474" height="532" viewBox="0 0 474 532" fill="none" xmlns="http://www.w3.org/2000/svg">
<path d="M224.552 149.262C228.102 152.811 232.095 156.805 235.645 160.799C236.533 160.355 236.976 159.468 237.864 159.024C243.189 153.255 249.845 145.712 256.501 137.724C257.832 135.949 259.607 134.174 260.938 132.399C262.27 130.624 264.045 128.849 265.376 126.631C265.376 126.631 265.376 126.631 265.376 126.187C265.82 125.743 266.263 124.856 266.707 124.412C272.476 116.868 276.913 110.656 281.794 103.556C284.013 100.006 285.788 96.9001 287.119 94.6814C286.675 93.7939 284.013 88.9127 278.244 87.5815C270.257 85.3628 263.601 91.1315 263.157 91.5752C258.276 98.675 253.839 105.331 250.289 110.656C247.626 114.206 245.407 117.312 243.633 120.418C232.983 136.393 228.102 143.493 227.658 143.937C226.77 145.712 226.327 146.155 225.439 147.043C225.439 147.93 224.995 148.818 224.552 149.262Z" fill="#EEA281"/>
<path d="M248.07 107.107C254.282 114.651 260.494 122.194 267.15 129.294C269.813 124.413 272.475 119.532 275.138 114.651C273.363 104.445 271.588 94.2385 270.257 84.0325C267.15 86.6949 264.044 89.3574 260.494 92.9073C255.169 97.7884 251.176 102.67 248.07 107.107Z" fill="#FFC545"/>
<path d="M248.07 107.107C254.282 114.651 260.494 122.194 267.15 129.294C269.813 124.413 272.475 119.532 275.138 114.651C273.363 104.445 271.588 94.2385 270.257 84.0325C267.15 86.6949 264.044 89.3574 260.494 92.9073C255.169 97.7884 251.176 102.67 248.07 107.107Z" fill="#F7E6D5"/>
<path d="M263.157 107.551C263.601 107.107 264.488 107.107 265.376 106.663C269.813 105.776 272.919 108.882 273.363 109.326C272.476 110.213 271.588 111.101 270.701 112.432C270.701 112.876 270.257 112.876 270.257 113.32C268.482 115.982 267.594 119.088 267.594 122.638C267.594 126.188 268.926 129.294 270.701 131.957V132.4C272.032 134.619 273.807 135.95 276.025 137.725C276.469 138.169 276.913 138.169 277.357 138.613C277.357 141.719 277.357 144.825 277.357 148.375C277.357 148.819 277.357 149.263 277.357 149.706C277.357 150.15 277.357 151.037 277.8 151.481C277.8 153.256 278.244 155.475 278.688 157.694C280.019 164.35 282.238 173.225 284.9 182.099C287.119 190.53 289.781 198.962 292 206.061C292.888 208.724 293.775 210.943 294.219 213.161C295.106 215.824 295.994 218.042 296.881 220.705C299.544 228.692 302.206 235.348 303.537 236.236C303.537 236.236 303.537 236.679 303.981 236.679L307.087 237.123C308.419 237.123 314.631 237.567 321.287 237.123C323.506 237.123 326.168 236.679 328.387 236.236C332.381 235.348 336.374 234.461 339.924 232.686C340.812 232.242 341.255 231.798 342.143 231.355C343.918 230.467 345.249 229.136 346.137 227.805C347.468 226.473 348.355 224.698 349.243 223.367C353.68 214.049 348.799 202.068 343.474 193.637C342.587 192.305 341.699 190.974 340.812 190.087C340.368 189.643 339.924 188.755 339.48 188.312C339.48 188.312 339.48 187.868 339.037 187.868C337.705 186.093 336.374 185.206 335.487 183.874C335.487 183.874 335.043 183.874 335.043 183.431C334.599 182.987 334.156 182.543 333.712 182.099C333.268 181.656 333.268 181.656 332.824 181.656C331.937 181.212 331.493 180.324 331.049 179.881C331.937 175.887 332.824 171.893 333.268 167.456C334.156 161.687 334.599 155.475 334.599 148.819C334.599 147.931 334.599 146.6 334.599 145.713C334.599 143.05 334.599 140.388 334.599 138.169C335.043 135.507 335.487 131.957 336.818 127.519C337.262 126.632 337.262 125.744 337.705 124.857C338.149 124.413 338.149 123.526 338.593 123.082C339.037 118.644 339.48 114.651 339.48 111.101C339.48 110.657 339.037 110.213 339.037 109.77C339.037 109.326 339.037 109.326 338.593 108.882C338.593 108.438 338.593 107.995 338.593 107.551C339.037 106.663 334.156 101.339 327.943 94.6824C325.281 92.0199 322.175 88.9138 319.068 86.2513C312.856 80.9264 307.531 76.489 305.312 76.489C299.544 76.489 284.013 80.0389 282.238 80.9264C281.794 80.9264 281.35 80.9264 280.463 81.3702C277.357 82.2576 270.701 84.4764 265.819 91.1325C264.932 92.4637 264.044 93.3512 263.601 94.6824C262.713 97.7886 262.713 102.67 263.157 107.551Z" fill="#EEA281"/>
<path d="M207.246 486.949C209.908 487.393 212.571 488.281 215.233 488.724C217.008 489.168 218.783 489.612 220.558 490.056C221.002 488.724 221.445 487.837 221.889 486.949C224.995 478.518 228.102 469.2 230.764 459.437C230.764 458.994 230.764 458.55 231.208 458.106V457.663C232.539 452.781 233.87 447.9 235.201 443.019C238.308 431.038 240.526 418.613 242.745 404.857C247.182 376.458 248.07 351.165 247.182 329.865C247.626 328.09 248.514 322.765 246.295 316.997C244.076 311.672 240.526 308.566 238.751 307.234C233.426 308.566 224.108 311.672 221.002 319.659C220.114 321.434 220.114 322.765 220.114 324.097C219.671 330.309 218.783 339.627 218.339 350.277C216.564 377.789 215.677 391.545 214.789 407.076C214.346 420.388 213.902 429.263 213.458 436.807C213.014 442.132 213.014 446.569 212.571 451.006C212.571 452.781 212.127 454.556 212.127 456.331C212.127 457.663 211.683 459.437 211.683 461.212C211.683 461.656 211.683 462.1 211.239 462.544C211.239 464.319 210.796 465.65 210.796 467.425C210.352 470.975 209.908 474.081 209.464 476.743C209.464 477.187 209.464 477.187 209.464 477.631C209.021 480.737 208.577 483.843 208.133 486.062V486.506C207.689 486.506 207.69 486.506 207.246 486.949Z" fill="#83D4EA"/>
<path d="M349.686 268.185C348.799 270.403 347.468 276.616 343.918 287.265C342.143 293.478 339.924 299.69 338.149 305.902C334.155 319.658 329.718 332.971 325.724 346.727C323.506 346.283 318.181 346.283 312.856 348.945C307.531 351.608 304.868 355.601 303.981 357.376C303.537 355.601 302.206 352.939 301.318 349.389C299.1 340.958 299.544 332.527 299.987 316.552C299.987 310.784 300.431 305.902 300.431 304.128C300.431 301.909 300.875 299.69 300.875 297.471C301.319 291.703 301.762 285.49 302.206 279.722C303.093 272.622 303.537 265.522 304.868 258.866V258.422C305.312 255.316 305.756 252.654 306.2 249.547C307.975 239.341 309.75 230.023 311.525 220.704C317.293 207.392 326.612 198.961 335.487 198.961C340.811 198.961 344.805 202.511 346.136 203.398C364.33 218.486 351.461 262.86 349.686 268.185Z" fill="#83D4EA"/>
<path d="M219.67 327.202C221.002 325.871 224.995 323.209 231.208 322.765C237.42 322.321 241.857 324.54 244.076 325.871C252.951 314.778 262.27 304.128 271.588 293.034C275.582 288.153 280.019 283.272 284.013 277.947C291.556 269.072 295.106 264.191 296.881 262.416C299.1 259.31 314.631 240.673 319.512 222.036C320.4 218.929 320.843 215.38 320.843 212.273C320.843 208.28 320.4 204.286 318.625 200.736C317.737 199.405 315.518 194.967 310.637 192.749C302.65 189.199 291.556 192.749 281.35 202.067C280.907 202.511 280.463 202.955 280.019 203.399C277.357 206.949 274.694 210.942 272.476 214.936C269.813 219.373 266.707 223.367 264.044 227.804C262.713 230.467 260.938 233.129 259.607 235.348L259.163 235.792C255.613 241.56 252.063 247.773 248.957 254.429C246.295 259.754 243.632 264.635 240.97 269.96C240.082 271.735 239.195 273.953 237.864 275.728C236.976 277.503 234.758 281.941 232.539 287.266C225.883 302.353 222.333 309.896 221.002 318.327C219.67 322.321 219.67 325.427 219.67 327.202Z" fill="#83D4EA"/>
<path d="M276.025 230.467C290.225 227.805 304.425 225.142 319.068 222.036C330.162 219.817 341.255 217.599 352.349 215.38C351.018 209.611 349.243 202.955 347.024 196.299C345.693 192.305 344.361 188.756 342.587 185.206C341.255 181.656 339.48 178.549 338.149 175.443C336.374 171.893 334.599 169.231 333.268 166.125C327.056 168.787 320.843 171.006 315.075 173.668C304.425 177.662 294.219 182.099 284.013 186.093C283.125 191.418 282.238 196.743 281.35 202.068C280.463 207.836 279.575 213.161 278.244 218.93C277.357 222.924 276.469 226.474 276.025 230.467Z" fill="#83D4EA"/>
<path d="M303.981 359.596C304.869 361.371 305.756 362.258 306.644 363.146C311.525 367.139 318.625 372.908 326.612 380.008C347.912 397.314 358.561 405.745 370.986 415.507C374.092 417.726 376.755 419.944 379.417 421.719C392.729 432.369 399.386 436.807 406.929 443.463C407.817 444.35 408.704 445.238 409.592 446.125C410.923 447.013 411.81 448.344 413.142 449.231C413.585 449.675 414.029 449.675 414.029 450.119C418.023 453.669 421.573 457.219 424.679 459.881L425.123 460.325C427.341 462.544 429.56 464.762 431.335 466.537L431.779 466.981L432.222 467.425C434.441 465.65 436.216 463.875 438.435 462.1C439.766 461.212 441.097 459.881 442.428 458.55C441.985 457.662 441.097 456.775 440.653 455.887C435.329 448.788 430.004 440.8 423.348 432.813C422.904 432.369 422.904 431.925 422.46 431.925C422.46 431.925 422.46 431.925 422.016 431.482C421.573 431.038 421.129 430.15 420.241 429.263C414.916 423.051 409.148 415.951 402.935 409.295C398.942 404.857 394.504 400.42 390.067 395.982C388.292 394.207 386.961 392.876 385.186 391.101C364.33 371.133 344.362 355.602 326.612 344.065C325.281 342.733 321.731 338.74 315.519 337.409C309.75 336.077 305.312 336.965 303.094 337.852C302.206 343.177 299.544 352.496 303.981 359.596Z" fill="#83D4EA"/>
<path d="M407.373 443.463C408.26 444.35 409.148 445.238 410.035 446.125C411.366 447.013 412.254 448.344 413.585 449.232C414.029 449.675 414.473 449.675 414.473 450.119C418.466 453.669 422.016 457.219 425.122 459.881L425.566 460.325C427.785 462.544 430.004 464.762 431.779 466.537L432.222 466.981L432.666 467.425C434.885 465.65 436.66 463.875 438.878 462.1C440.21 461.212 441.541 459.881 442.872 458.55C442.428 457.663 441.541 456.775 441.097 455.888C435.772 448.788 430.447 440.8 423.791 432.813C423.347 432.369 423.347 431.926 422.904 431.926C422.904 431.926 422.904 431.926 422.46 431.482C422.016 431.038 421.572 430.151 420.685 429.263C416.691 434.144 411.81 439.025 407.373 443.463Z" fill="#EEA281"/>
<path d="M207.245 486.95C209.908 487.393 212.57 488.281 215.233 488.725C217.008 489.168 218.783 489.612 220.558 490.056C221.001 488.725 221.445 487.837 221.889 486.95C224.995 478.519 228.101 469.2 230.764 459.438C230.764 458.994 230.764 458.55 231.207 458.106V457.663C232.539 452.782 233.87 447.9 235.201 443.019C228.101 440.801 221.001 438.582 213.458 435.919C213.014 441.244 213.014 445.682 212.57 450.119C212.57 451.894 212.127 453.669 212.127 455.444C212.127 456.775 211.683 458.55 211.683 460.325C211.683 460.769 211.683 461.213 211.239 461.656C211.239 463.431 210.795 464.763 210.795 466.538C210.352 470.087 209.908 473.194 209.464 475.856C209.464 476.3 209.464 476.3 209.464 476.744C209.02 479.85 208.577 482.956 208.133 485.175V485.618C207.689 486.506 207.689 486.506 207.245 486.95Z" fill="#EEA281"/>
<path d="M272.032 214.935C273.807 216.267 276.026 217.598 277.801 218.929C280.019 220.26 282.238 221.148 284.457 221.592C295.994 224.698 309.306 219.817 319.956 212.273C331.493 204.286 340.368 193.192 342.143 185.205C340.812 181.655 339.037 178.549 337.706 175.443C332.381 173.224 323.506 172.78 314.631 173.668C303.981 177.661 293.775 182.099 283.569 186.092C282.682 191.417 281.794 196.742 280.907 202.067C280.463 202.511 280.019 202.954 279.576 203.398C276.913 206.948 274.694 210.942 272.032 214.935Z" fill="#83D4EA"/>
<path d="M307.975 78.2637C307.531 79.5949 304.425 85.3635 297.769 87.5822C288.45 90.6884 280.907 84.4761 280.463 84.0323C280.907 81.3699 281.794 77.8199 281.794 74.27C281.794 72.4951 282.238 70.7201 282.238 68.5014C282.238 63.6202 281.794 59.1828 280.907 55.6329C286.675 54.7454 292.444 53.8579 298.212 52.9705H298.656C299.1 57.8516 300.431 64.064 303.981 70.7201C304.869 73.3825 306.2 76.045 307.975 78.2637Z" fill="#EEA281"/>
<path d="M281.351 74.27C281.351 72.4951 281.794 70.7201 281.794 68.5014C281.794 63.6202 281.351 59.1828 280.463 55.6329C286.232 54.7454 292 53.8579 297.769 52.9705C297.769 53.8579 299.1 64.064 291.557 70.2764C287.563 73.3825 283.125 73.8263 281.351 74.27Z" fill="#EEA281"/>
<path d="M282.238 66.2828C276.469 66.2828 272.032 61.4017 271.144 60.5142C266.707 56.0768 265.819 51.1956 265.375 48.9769C264.488 40.1021 263.157 31.2273 262.269 21.9088C262.269 17.9151 265.375 14.3652 269.369 13.9214L291.112 13.0339C295.106 13.0339 298.656 16.1401 299.1 20.1338L299.987 46.7582C297.325 58.7392 289.781 66.2828 282.238 66.2828Z" fill="#EEA281"/>
<path d="M299.987 47.2018C295.55 47.2018 291.113 47.6455 286.675 47.6455C278.688 39.2145 270.257 30.7834 262.269 22.3523C262.269 19.6899 263.157 15.6962 265.819 12.59C273.807 2.38397 296.437 2.38397 303.981 13.9212C309.306 21.9086 305.756 33.4458 304.869 36.9958C303.537 41.4332 301.319 44.9831 299.987 47.2018Z" fill="#EEA281"/>
<path d="M282.321 50.728C283.032 51.09 281.966 58.6931 278.409 59.4172C276.276 59.7793 273.786 57.2449 273.786 56.5208C273.786 56.1588 274.853 56.5208 276.276 56.1588C280.543 55.4347 281.966 50.3659 282.321 50.728Z" fill="white"/>
<path d="M238.751 147.488C239.195 147.932 241.414 152.369 239.195 156.363C236.533 161.244 229.877 162.131 227.658 161.688C226.327 161.244 224.552 161.244 222.333 160.356C210.796 156.806 203.252 149.263 186.39 129.294C183.284 125.745 180.178 122.195 176.628 117.757C174.853 115.539 172.634 112.876 170.415 110.657C172.19 107.995 174.409 105.776 176.184 103.114C178.403 104.001 180.621 105.332 182.84 107.107C201.921 120.863 220.558 134.176 238.751 147.488Z" fill="#EEA281"/>
<path d="M275.138 140.831C275.138 141.275 275.138 141.275 275.138 140.831C273.807 146.156 272.475 151.481 271.144 157.25C267.15 173.668 264.932 189.643 263.157 204.286C271.144 205.617 280.463 206.505 291.556 205.617C296.881 205.174 304.425 204.286 313.743 201.18C314.187 200.736 315.074 200.736 315.518 200.293C325.724 196.299 333.268 190.974 338.593 186.537C339.924 185.649 340.811 184.762 341.699 183.874C339.48 178.106 337.705 172.337 335.487 166.568C335.93 153.256 337.262 135.506 338.149 121.75C338.593 117.313 339.036 113.319 339.036 109.769C339.48 104.001 339.924 100.451 339.48 100.007C339.48 100.007 339.036 99.1196 338.593 97.3447C337.705 95.5697 336.818 92.4635 335.487 90.2448C334.599 88.4699 332.824 86.2512 330.162 84.4762C324.393 80.0388 315.518 76.0451 304.868 73.8264C304.868 74.2702 304.868 74.2702 304.425 74.7139C300.875 85.8074 292.444 91.1323 286.675 89.3573C281.794 87.5824 280.019 80.4825 279.575 79.595C276.469 80.0388 271.588 80.9263 267.594 84.9199C264.932 87.1386 263.601 89.8011 262.713 92.9073C261.382 97.3447 261.382 102.67 261.826 107.107C261.826 108.882 262.269 110.657 262.269 111.988C263.601 123.082 268.038 132.4 272.475 138.613C274.25 139.5 274.694 140.388 275.138 140.831Z" fill="#F7E6D5"/>
<path d="M72.7923 139.943C84.3296 163.905 105.629 180.324 129.591 186.092C139.353 188.755 149.559 189.199 159.766 187.867C167.309 186.98 174.853 185.205 181.953 182.099C183.284 181.655 185.059 180.768 186.39 180.324C189.052 178.993 191.715 177.661 194.377 175.886C199.258 172.78 203.696 169.23 207.69 165.68C213.902 159.912 219.671 152.812 223.664 145.712C236.976 122.194 239.195 92.9069 226.77 66.7262C210.796 32.5582 174.853 14.3648 139.797 18.3585C134.029 18.8022 128.704 20.1334 123.379 21.9084C121.16 22.7959 118.498 23.6833 116.279 24.5708C115.391 25.0146 114.504 25.4583 113.617 25.9021C112.729 26.3458 111.842 26.7895 110.954 27.2333C107.848 28.5645 105.185 30.3395 102.523 32.1144C96.7543 35.6644 91.8732 40.1018 87.4358 44.9829C64.3613 70.2761 57.2614 107.55 72.7923 139.943Z" fill="#59CEE7"/>
<path d="M126.929 115.982C142.903 149.262 164.647 170.118 179.734 182.099C181.065 181.655 182.84 180.768 184.171 180.324C186.834 178.993 189.496 177.661 192.159 175.887C188.165 155.031 180.178 126.188 163.315 94.682C146.453 62.2889 127.372 39.2144 113.616 25.0146C112.729 25.4584 111.841 25.9021 110.954 26.3459C110.066 26.7896 109.179 27.2334 108.291 27.6771C106.96 44.0955 108.292 77.8198 126.929 115.982Z" fill="#00B5C8"/>
<path d="M207.69 165.681C213.902 159.913 219.671 152.813 223.664 145.713C232.095 117.313 227.658 86.2516 210.796 61.4021C194.377 37.4401 168.197 21.9092 139.354 18.803C133.585 19.2467 128.26 20.5779 122.935 22.3529C134.029 25.9028 164.203 37.8838 186.39 68.9457C216.565 111.101 209.465 156.806 207.69 165.681Z" fill="#00B5C8"/>
<path d="M129.591 186.092C139.354 188.755 149.56 189.198 159.766 187.867C150.003 183.874 121.604 170.561 103.854 138.612C76.3424 88.913 99.417 37.8828 102.079 32.5579C96.3108 36.1078 91.4297 40.5452 86.9922 45.4263C72.7925 69.3884 68.7989 98.2315 76.7862 125.3C85.2173 152.368 104.742 174.111 129.591 186.092Z" fill="#00B5C8"/>
<path d="M299.988 236.679C300.431 236.679 300.431 236.235 300.431 236.235L299.1 210.498C299.1 210.054 298.656 210.054 298.656 210.054C298.213 210.054 298.213 210.498 298.213 210.498L299.544 236.235C299.1 236.679 299.544 236.679 299.988 236.679Z" fill="#FDFCDB"/>
<path d="M307.531 246.442C307.975 245.998 307.975 245.998 307.975 245.554L301.762 238.011C301.762 237.567 301.319 237.567 300.875 238.011C300.431 238.011 300.431 238.454 300.875 238.898L307.531 246.442C307.087 246.442 307.087 245.998 307.531 246.442Z" fill="#FDFCDB"/>
<path d="M306.644 232.685C307.087 232.685 307.087 232.241 307.087 232.241L307.531 210.498C307.531 210.054 307.087 210.054 307.087 210.054C306.644 210.054 306.644 210.498 306.644 210.498L306.2 232.241C306.2 232.685 306.2 232.685 306.644 232.685Z" fill="#FDFCDB"/>
<path d="M414.029 427.488C414.473 427.488 414.473 427.488 414.029 427.488C414.473 427.044 414.473 426.6 414.473 426.6C399.385 409.295 382.967 393.32 366.105 378.233C351.018 364.921 334.599 352.496 318.181 340.958L347.468 232.242C347.468 231.798 347.468 231.798 347.024 231.798C345.249 230.911 343.474 230.023 342.143 228.692C338.149 224.698 337.705 219.817 337.705 217.599C337.705 217.155 337.262 217.155 337.262 217.155C336.818 217.155 336.818 217.599 336.818 217.599C336.818 219.817 337.262 225.142 341.699 229.58C343.03 230.911 344.805 232.242 346.58 233.129L317.293 341.846C317.293 342.29 317.293 342.29 317.737 342.29C334.599 353.827 350.574 366.252 366.105 379.564C382.523 393.764 398.942 410.182 414.029 427.488Z" fill="#FDFCDB"/>
<path d="M263.601 203.842C271.588 205.173 280.907 206.061 292 205.173C297.325 204.729 304.869 203.842 314.187 200.736C314.631 200.292 315.518 200.292 315.962 199.848C315.075 196.742 314.631 192.748 314.187 188.755C314.187 187.867 313.743 181.211 315.075 175.442C316.85 165.68 322.618 159.468 325.281 155.918C330.605 148.818 335.93 137.724 336.818 117.756C317.293 123.968 297.769 129.737 278.244 135.949C277.357 137.281 276.025 139.056 275.138 140.831C275.138 140.831 275.138 141.274 275.582 141.274C274.25 146.599 272.919 151.48 271.588 157.249C267.594 173.667 264.932 189.642 263.601 203.842Z" fill="#ECDDCD"/>
<path d="M266.707 147.043C270.7 150.593 274.694 154.143 278.244 157.693C278.688 157.249 279.575 156.806 280.463 155.918C281.35 155.031 281.794 154.587 283.569 153.699C284.456 153.256 291.556 147.931 308.862 135.062L309.306 134.619C313.743 131.512 319.068 127.519 324.837 123.081C327.943 120.863 331.049 118.2 334.599 115.981C335.043 115.538 340.368 108.882 337.705 100.894C335.93 95.5693 331.049 92.9069 330.162 92.4631C327.943 93.7944 324.837 95.5693 321.287 98.2318C313.743 103.113 307.975 107.994 300.875 114.206C300.431 114.65 299.544 115.094 299.1 115.538C298.656 115.981 298.212 115.981 298.212 116.425C296.437 117.756 295.106 119.088 293.775 120.419C284.013 129.294 275.138 137.725 268.038 144.825C268.038 145.268 267.15 146.156 266.707 147.043Z" fill="#EEA281"/>
<path d="M281.794 142.606C282.238 143.049 285.344 146.599 284.456 151.037C283.125 156.362 276.469 158.58 274.694 158.58C273.363 158.58 271.588 158.58 269.369 158.58C257.388 157.249 248.513 151.924 227.214 136.393C223.664 133.731 219.67 130.625 215.233 127.519C213.014 125.744 210.352 123.969 207.689 121.75C209.02 119.087 210.352 115.981 211.683 113.319C213.902 113.763 216.564 114.65 218.783 115.538C240.082 124.412 260.938 133.731 281.794 142.606Z" fill="#EEA281"/>
<path d="M329.275 137.725C318.625 130.182 307.531 122.194 296.882 114.651C304.425 104.888 311.969 95.1261 319.512 84.9201C321.731 84.4763 329.275 83.1451 335.043 87.1388C342.587 92.4637 342.143 104.001 341.699 110.213C340.368 123.526 333.268 133.288 329.275 137.725Z" fill="#F7E6D5"/>
<path d="M246.739 322.765C246.739 322.765 247.182 322.765 247.182 322.321C247.182 321.878 247.182 321.878 246.739 321.434L238.308 316.997C237.864 316.997 237.864 316.997 237.42 317.44C237.42 317.884 237.42 317.884 237.864 318.328L246.739 322.765Z" fill="#FDFCDB"/>
<path d="M420.275 423.259L426.815 430.507L406.72 448.64L400.18 441.392L420.275 423.259Z" fill="#05368E"/>
<path d="M238.534 439.312L236.307 448.817L208.225 442.235L210.453 432.73L238.534 439.312Z" fill="#05368E"/>
<path d="M420.275 423.259L426.815 430.507L406.72 448.64L400.18 441.392L420.275 423.259Z" fill="#FDFCDB"/>
<path d="M238.534 439.312L236.307 448.817L208.225 442.235L210.453 432.73L238.534 439.312Z" fill="#FDFCDB"/>
<path d="M210.796 497.154C208.577 498.042 194.821 499.373 192.602 498.929C189.94 499.373 177.515 502.036 175.74 499.373C175.74 499.373 175.296 498.929 175.296 498.042C175.296 496.267 179.29 494.936 179.29 494.936C179.29 494.936 177.959 495.379 176.628 495.379C175.74 495.379 175.74 495.379 175.296 494.936C174.853 494.492 174.853 494.048 175.296 493.605C175.296 493.605 175.74 493.161 176.184 492.717C176.628 492.273 176.628 492.273 176.628 492.273C176.628 492.273 176.184 492.273 175.296 492.273C174.853 492.273 174.853 491.386 174.853 490.942C174.853 490.498 176.184 490.498 176.184 490.055C176.184 490.055 175.74 490.055 175.296 489.611L174.853 489.167L175.296 488.723C175.74 488.723 175.74 488.723 175.74 488.28C175.74 488.28 175.296 488.28 174.853 488.28C174.853 488.28 174.853 487.836 175.296 487.836C177.959 486.948 180.177 486.061 182.84 485.173C187.721 483.398 192.602 482.067 197.483 481.18C202.365 476.742 207.246 472.749 212.571 468.311C216.564 469.643 221.002 470.53 224.995 471.861C225.439 474.524 225.439 478.517 225.439 483.398C225.439 489.611 224.995 490.942 224.552 491.386C222.333 497.598 213.902 497.598 210.796 497.154Z" fill="#EEA281"/>
<path d="M225.439 500.261C208.577 500.705 191.715 501.148 174.409 501.592C173.965 501.592 170.859 499.817 170.415 496.267C169.971 493.161 171.746 489.611 175.74 487.836C184.171 484.73 193.046 482.068 201.477 478.961C200.589 476.299 202.364 473.636 204.139 473.193C206.358 472.749 208.577 474.524 209.02 476.299C209.908 478.961 206.802 481.18 207.689 482.511C208.133 483.399 209.908 484.286 214.789 483.399C218.339 482.511 221.889 481.624 225.439 480.736C226.326 483.399 228.101 488.28 227.214 494.049C226.77 496.711 226.326 498.486 225.439 500.261Z" fill="#FDFCDB"/>
<path d="M201.033 489.611C201.477 489.168 201.92 488.724 201.477 487.837L198.371 480.737C197.927 480.293 197.483 479.849 196.596 480.293C196.152 480.737 195.708 481.18 196.152 482.068L199.258 489.168C199.702 489.611 200.589 490.055 201.033 489.611Z" fill="#404ADF"/>
<path d="M197.039 490.055C197.483 489.611 197.927 489.167 197.483 488.28L194.377 481.18C193.933 480.736 193.489 480.292 192.602 480.736C192.158 481.18 191.714 481.624 192.158 482.511L195.264 489.611C195.264 490.055 196.152 490.055 197.039 490.055Z" fill="#404ADF"/>
<path d="M440.653 469.643C440.209 471.862 433.553 483.843 431.778 485.618C430.891 487.837 425.566 499.374 422.46 499.818C422.016 499.818 421.572 499.818 421.129 499.374C419.797 498.487 420.685 494.493 420.685 494.493C420.685 494.493 420.685 495.824 419.797 497.155C419.354 497.599 418.91 498.043 418.91 498.043C418.466 498.043 418.022 498.043 418.022 497.599C418.022 497.599 418.022 497.155 418.022 496.712C418.022 496.268 418.022 495.824 418.022 495.824C418.022 495.824 418.022 496.268 417.135 496.712C416.691 496.712 416.247 496.712 415.804 496.268C415.36 495.824 415.804 494.937 415.804 494.937C415.804 494.937 415.36 495.38 414.916 495.38H414.472V494.937C414.472 494.493 414.472 494.493 414.472 494.493L414.029 494.937C414.029 494.937 414.029 494.493 414.029 494.049C414.916 491.387 415.36 489.168 416.247 486.506C418.022 481.624 419.354 476.743 421.129 472.306C420.685 465.65 419.797 459.437 419.354 452.781C422.46 450.119 426.01 447.456 429.116 444.794C431.335 446.125 434.885 448.344 438.878 451.006C443.759 454.556 444.647 455.444 445.091 456.331C447.753 460.325 442.872 467.425 440.653 469.643Z" fill="#EEA281"/>
<path d="M451.747 458.994C442.428 473.193 433.11 487.393 423.347 501.149C422.904 501.149 419.798 502.924 416.691 501.593C413.585 500.262 411.81 496.268 412.698 492.718C415.36 483.843 418.023 475.412 420.241 466.537C417.579 465.65 416.248 462.987 417.135 461.212C418.023 459.437 420.685 458.55 422.46 458.994C425.122 459.881 425.122 463.431 426.897 463.431C427.785 463.431 429.56 462.544 431.779 458.106C433.11 454.556 434.441 451.45 435.328 447.9C437.991 448.344 442.872 450.119 447.309 454.113C449.528 456.331 450.859 457.662 451.747 458.994Z" fill="#FDFCDB"/>
<path d="M428.673 473.194C428.673 472.306 428.229 471.862 427.785 471.862L419.798 470.531C418.91 470.531 418.467 470.975 418.467 471.419C418.467 472.306 418.91 472.75 419.354 472.75L427.341 474.081C428.229 474.525 428.673 474.081 428.673 473.194Z" fill="#404ADF"/>
<path d="M426.898 476.744C426.898 475.856 426.454 475.413 426.01 475.413L418.023 474.081C417.135 474.081 416.691 474.525 416.691 474.969C416.691 475.856 417.135 476.3 417.579 476.3L425.566 477.631C426.01 478.075 426.454 477.631 426.898 476.744Z" fill="#404ADF"/>
<path d="M256.501 14.8085C256.501 20.1334 262.27 24.5708 267.151 26.3457C275.138 29.4519 279.132 24.5708 285.344 26.7895C295.994 30.7832 295.107 48.5328 299.544 48.9765C304.425 48.9765 315.962 25.4583 304.869 10.3711C297.769 0.608778 284.457 -1.16619 275.138 0.608777C267.595 1.94 256.057 7.70863 256.501 14.8085Z" fill="#0D42C8"/>
<path d="M221.001 113.763C224.108 116.426 227.658 119.088 230.764 121.307C228.545 125.744 226.326 130.182 224.108 134.175C210.352 125.744 200.589 119.088 198.814 117.757C197.039 116.426 196.152 115.538 196.152 115.538C195.264 114.651 194.821 114.207 193.933 113.319C193.046 112.432 192.158 111.988 192.158 111.545C189.052 108.882 185.946 105.332 182.396 101.338C181.508 100.007 180.177 98.676 180.177 96.9011C180.177 96.9011 180.621 95.5699 181.065 95.5699C181.508 95.5699 182.396 96.0136 182.396 96.4573C184.171 98.676 186.39 100.451 188.165 102.67C189.94 104.445 193.046 107.107 195.708 107.107C199.702 107.107 203.252 100.451 204.583 91.1325C205.027 91.5762 205.914 92.4637 206.802 93.3512C209.908 96.4573 210.352 98.2323 211.683 98.2323C213.014 98.2323 214.345 97.3448 214.789 96.4573C216.564 94.6824 215.677 92.9074 217.451 89.8012C218.783 87.1388 221.889 84.4763 222.776 84.9201C223.22 84.9201 223.22 85.8076 223.22 85.8076C223.664 87.5825 222.333 88.47 221.889 89.8012C220.558 92.4637 221.889 95.1261 222.333 96.9011C224.108 100.007 224.551 104.888 221.001 113.763Z" fill="#EEA281"/>
<path d="M197.039 102.225C195.708 104 194.377 105.331 193.046 107.106C189.94 102.225 186.39 97.3441 183.284 92.0192C182.84 91.1317 181.509 89.3567 182.396 88.4693C182.396 88.0255 182.84 88.0255 183.284 88.0255C185.058 87.5818 187.277 90.2442 187.721 90.688C190.383 95.1254 193.49 98.6753 197.039 102.225Z" fill="#EEA281"/>
<path d="M200.589 96.0124C199.258 97.7874 197.927 99.5623 197.039 101.337C193.933 98.2311 191.271 95.1249 189.939 92.9062C184.614 85.8064 184.614 83.5877 185.058 81.8127C185.058 81.369 185.502 80.0377 186.833 79.594C188.608 79.594 189.939 84.4751 194.377 90.2438C197.039 92.9062 199.258 95.1249 200.589 96.0124Z" fill="#EEA281"/>
<path d="M205.027 91.1318C203.695 92.9068 201.92 94.238 200.589 96.0129C198.814 93.3505 197.483 90.6881 195.708 88.0256C194.82 86.6944 194.377 84.9194 193.489 83.5882C191.714 80.482 190.827 78.2633 191.714 77.3758C192.602 76.9321 194.82 77.8196 197.039 80.0383C197.927 81.3695 199.258 83.1445 200.145 84.4757C201.477 86.2506 203.252 88.9131 205.027 91.1318Z" fill="#EEA281"/>
<path d="M199.258 106.662L194.377 110.212L191.715 106.662C193.046 104.887 194.377 103.112 195.708 101.338C198.371 97.7876 201.033 94.2377 203.696 90.6877C204.139 90.6877 204.139 90.6877 204.583 90.6877C205.027 91.5752 205.471 92.9065 205.471 93.7939C203.696 98.2313 201.477 102.669 199.258 106.662Z" fill="#EEA281"/>
<path d="M289.781 36.996C289.781 40.9897 292 44.5396 294.662 44.5396C297.325 44.5396 299.544 40.9897 299.544 36.996C299.544 33.0023 297.325 29.4524 294.662 29.4524C292 29.8961 289.781 33.0023 289.781 36.996Z" fill="#EEA281"/>
<path d="M295.55 15.2522C336.374 27.2332 353.68 45.4266 362.111 60.5137C374.092 82.257 374.092 109.325 397.166 122.637C398.941 123.525 406.929 126.631 414.029 134.175C417.135 137.725 421.128 142.162 421.128 147.487C421.128 158.58 405.154 165.237 406.041 167.455C407.373 170.118 428.672 167.899 444.203 154.143C468.609 130.625 469.496 82.257 453.078 72.051C444.647 66.7261 438.434 75.6009 423.791 72.9385C400.716 68.5011 394.948 42.7641 376.311 25.4582C362.998 13.0335 339.036 1.49621 292.444 6.37736C293.331 9.0398 294.219 12.146 295.55 15.2522Z" fill="#0D42C8"/>
<path d="M315.518 9.03955C322.618 4.1584 328.83 2.38344 333.711 1.9397C359.448 -1.61023 388.292 20.1331 406.485 56.5198C402.935 49.8637 391.842 31.2266 368.323 20.1331C347.911 10.3708 328.83 11.2583 321.287 12.1457L315.518 9.03955Z" fill="#0D42C8"/>
<path d="M443.759 76.0449C448.197 76.9324 461.065 79.5948 468.609 91.1321C480.146 107.994 471.271 132.844 459.734 145.268C459.29 145.712 458.847 146.156 458.403 146.156C461.065 142.162 465.946 134.175 465.946 123.081C466.39 100.007 446.866 86.251 445.091 84.9197L443.759 76.0449Z" fill="#0D42C8"/>
<path d="M94.9791 366.251C94.9791 366.695 95.4229 368.913 95.8666 371.576C96.3104 373.351 96.7541 374.238 96.7541 375.126L105.629 407.519L108.291 417.281V417.725L108.735 419.943L109.179 421.275L109.623 422.606L110.066 424.825C110.066 425.268 110.066 425.268 110.066 425.712V426.156V427.487V427.931V429.262C110.066 432.812 110.51 436.362 110.51 439.912C113.173 439.024 116.279 439.468 118.497 441.243C120.716 443.018 121.16 445.68 119.829 447.899C122.491 446.568 125.597 444.349 127.816 441.243C127.816 440.799 128.26 440.356 128.703 440.356C129.147 438.581 129.147 436.362 129.591 434.587C129.591 433.699 129.591 433.256 130.035 432.368C130.035 431.037 130.478 429.706 130.478 427.931C130.478 426.6 130.478 424.825 130.922 423.05C130.922 422.606 130.922 422.606 130.922 422.162C130.922 421.718 130.922 420.831 130.922 420.387C130.922 418.612 130.922 416.394 130.922 414.619C130.922 414.175 130.922 413.287 130.922 412.844V408.85C130.922 393.763 128.703 380.451 126.485 369.801C124.266 366.251 121.16 362.257 118.054 357.82C116.279 355.601 114.504 353.826 112.729 351.607C112.285 352.495 94.5354 361.37 94.9791 366.251Z" fill="#EDA285"/>
<path d="M169.972 244.223C171.303 238.898 172.634 234.017 173.522 228.692C170.416 228.248 167.309 228.248 164.203 227.804C164.203 232.242 164.203 236.679 164.203 241.56C165.978 242.448 168.197 243.335 169.972 244.223Z" fill="#EDA285"/>
<path d="M173.521 228.692C173.965 225.142 174.409 221.148 174.853 217.598C173.965 216.711 172.19 215.379 169.971 214.492C166.865 213.604 164.203 214.048 162.872 214.048C162.428 214.936 161.984 215.823 161.984 217.154C161.097 222.036 163.315 226.473 164.203 228.248C167.309 227.804 170.415 228.248 173.521 228.692Z" fill="#EDA285"/>
<path d="M164.203 228.247C163.759 224.253 163.315 221.147 162.871 219.372C162.428 217.597 161.984 216.71 161.984 215.379C161.984 213.604 162.872 212.716 162.428 210.941C162.428 210.054 161.984 209.61 161.54 209.166C161.54 208.723 161.54 208.723 161.097 208.279C160.653 208.279 160.209 208.279 159.765 208.723C159.765 209.166 159.322 209.166 159.322 209.61C158.878 210.498 158.878 211.385 158.878 211.385C158.878 212.272 158.434 214.047 157.99 216.71C157.547 219.372 158.434 222.035 160.209 224.253L164.203 228.247Z" fill="#EDA285"/>
<path d="M167.309 208.279C167.753 207.392 168.641 206.061 169.084 205.173C169.972 204.286 169.528 202.954 169.084 202.511C168.641 202.067 167.309 202.511 166.866 203.842C165.978 204.729 165.091 206.061 164.647 207.392C162.872 210.942 162.428 214.935 162.428 217.154C163.316 216.267 164.647 215.379 165.534 214.492C165.978 212.273 166.866 210.498 167.309 208.279Z" fill="#EDA285"/>
<path d="M171.747 215.823C173.078 213.604 173.965 211.385 175.297 209.167C176.628 207.392 176.628 205.617 176.184 205.173C176.184 205.173 175.74 204.729 174.409 205.173C173.965 206.061 173.522 206.504 173.078 207.392C171.747 210.054 170.415 212.273 169.084 214.492C169.972 214.935 170.859 215.379 171.747 215.823Z" fill="#EDA285"/>
<path d="M168.64 214.491C169.971 212.273 170.859 210.054 172.19 207.835C173.521 206.06 173.521 204.285 173.078 203.842C173.078 203.842 172.634 203.398 171.303 203.842C170.859 204.729 170.415 205.173 169.971 206.06C168.196 208.723 166.865 211.385 165.534 214.048C166.421 214.048 167.753 214.048 168.64 214.491Z" fill="#EDA285"/>
<path d="M174.554 218.574C175.865 215.641 177.177 212.708 178.488 209.775C178.488 209.286 178.488 207.33 178.051 207.33C178.051 207.33 177.614 206.842 177.177 207.819C175.428 210.752 174.117 213.686 172.368 216.619C173.242 217.596 174.117 218.085 174.554 218.574Z" fill="#EDA285"/>
<path d="M34.6308 311.671C33.2995 306.346 31.9683 301.465 31.0808 296.14C34.187 295.696 37.2932 295.696 40.3994 295.253C40.3994 299.69 40.3994 304.127 40.3994 309.009C38.6245 309.896 36.8495 310.784 34.6308 311.671Z" fill="#EDA285"/>
<path d="M31.0805 296.14C30.6368 292.59 30.193 288.596 29.7493 285.046C30.6368 284.159 32.4117 282.828 34.6304 281.94C37.7366 281.053 40.3991 281.496 41.7303 281.496C42.174 282.384 42.6178 283.271 42.6178 284.603C43.5053 289.484 41.2866 293.921 40.3991 295.696C37.2929 295.696 34.1867 295.696 31.0805 296.14Z" fill="#EDA285"/>
<path d="M40.3992 296.14C40.8429 292.146 41.2866 289.04 41.7304 287.265C42.1741 285.49 42.6179 284.602 42.6179 283.271C42.6179 281.496 41.7303 280.609 42.1741 278.834C42.1741 277.946 42.6179 277.503 43.0616 277.059C43.0616 276.615 43.0616 276.615 43.5053 276.171C43.9491 276.171 44.3928 276.171 44.8366 276.615C44.8366 277.059 45.2803 277.059 45.2803 277.503C45.724 278.39 45.724 279.278 45.724 279.278C45.724 280.165 46.1678 281.94 46.6115 284.602C47.0552 287.265 46.1678 289.927 44.3928 292.146L40.3992 296.14Z" fill="#EDA285"/>
<path d="M37.2928 276.172C36.8491 275.284 35.9616 273.953 35.5178 273.066C34.6304 272.178 35.0741 270.847 35.5178 270.403C35.9616 269.959 37.2928 270.403 37.7365 271.734C38.624 272.622 39.5115 273.953 39.9552 275.284C41.7302 278.834 42.174 282.828 42.174 285.047C41.2865 284.159 39.9553 283.272 39.0678 282.384C38.624 280.166 38.1803 277.947 37.2928 276.172Z" fill="#EDA285"/>
<path d="M32.8554 283.715C31.5242 281.496 30.6367 279.278 29.3055 277.059C27.9743 275.284 27.9742 273.509 28.418 273.065C28.418 273.065 28.8617 272.622 30.1929 273.065C30.6367 273.953 31.0804 274.397 31.5242 275.284C32.8554 277.947 34.1866 280.165 35.5178 282.384C34.6303 282.828 33.7429 283.271 32.8554 283.715Z" fill="#EDA285"/>
<path d="M35.9618 281.941C34.6306 279.722 33.7431 277.503 32.4119 275.285C31.0807 273.51 31.0807 271.735 31.5244 271.291C31.5244 271.291 31.9681 270.847 33.2993 271.291C33.7431 272.178 34.1868 272.622 34.6306 273.51C36.4055 276.172 37.7368 278.835 39.068 281.497C38.1805 281.497 37.293 281.941 35.9618 281.941Z" fill="#EDA285"/>
<path d="M29.7496 285.046C28.4183 282.384 27.0871 279.722 25.7559 277.059C25.7559 276.615 25.7559 274.84 26.1996 274.84C26.1996 274.84 26.6434 274.397 27.0871 275.284C28.8621 277.947 30.1933 280.609 31.9683 283.272C31.5245 283.715 30.637 284.603 29.7496 285.046Z" fill="#EDA285"/>
<path d="M162.872 234.904C163.315 233.129 164.203 231.354 165.09 229.579C166.422 226.916 167.753 224.698 169.084 222.923C169.972 226.473 171.303 230.022 172.19 233.572C172.19 239.341 171.747 246.441 170.415 254.872C167.753 270.847 165.534 285.046 155.772 289.484C153.109 290.815 149.56 291.259 144.678 290.815C143.791 289.927 143.347 288.596 142.903 287.265C142.016 284.603 142.903 282.384 143.347 281.053C150.447 265.522 156.659 249.991 162.872 234.904Z" fill="#EDA285"/>
<path d="M43.949 300.133C43.5052 298.358 42.6178 296.583 41.7303 294.808C40.3991 292.146 39.0678 289.927 37.7366 288.152C36.8491 291.702 35.5179 295.252 34.6304 298.802C34.6304 304.571 35.0742 311.671 36.4054 320.102C39.0678 336.076 41.2865 350.276 51.0488 354.713C53.7113 356.045 57.2612 356.488 62.1424 356.045C63.0298 355.157 63.4736 353.826 63.9173 352.495C64.8048 349.832 63.9173 347.614 63.4736 346.282C56.3737 330.751 50.1614 315.221 43.949 300.133Z" fill="#EDA285"/>
<path d="M93.2045 456.33C91.8732 461.211 90.0983 466.98 87.8796 474.08C87.4358 474.967 87.4359 476.299 86.9921 477.186C86.1046 479.405 85.2171 482.067 84.3296 485.173C83.8859 486.061 83.8859 486.948 83.4422 488.28C82.5547 490.942 81.2235 494.048 79.8922 497.598C79.8922 498.486 79.4485 498.929 79.0048 499.817C80.7797 500.261 82.9985 500.704 84.7734 501.148C86.1046 501.592 87.4358 502.036 88.7671 502.036C89.2108 501.592 89.6545 500.704 90.0983 500.261C90.542 499.817 90.9858 498.929 91.4295 498.486C92.317 497.154 93.2045 495.823 93.6482 494.492C93.6482 494.492 93.6482 494.492 93.6482 494.048C94.5357 492.717 95.4232 490.942 96.3107 489.611C97.6419 487.392 99.4168 485.173 101.192 482.511C104.742 477.63 109.623 471.861 114.06 465.649C118.498 458.993 122.491 451.893 125.598 443.462C126.041 442.574 126.485 441.243 126.929 439.468C126.929 439.468 126.929 439.468 126.929 439.024C126.929 438.581 126.929 438.137 127.373 438.137C126.929 436.362 126.041 434.143 124.266 432.368C123.823 431.925 123.379 431.481 123.379 431.481C122.491 430.593 122.048 430.15 121.16 429.706C121.16 429.706 121.16 429.706 120.716 429.706C118.498 428.375 115.835 427.931 113.173 427.931C112.729 427.931 112.285 427.931 111.842 427.931C111.398 428.375 110.51 428.818 110.067 429.706C109.623 430.15 109.179 430.593 108.292 431.037C107.848 431.481 107.848 431.481 107.404 431.925C105.185 434.143 102.523 437.249 100.304 440.799C99.8606 441.687 98.9731 443.018 98.5294 443.906C96.3107 447.899 94.5357 451.893 93.2045 456.33Z" fill="#EDA285"/>
<path d="M63.9174 395.094C61.255 391.1 57.705 386.219 53.2676 380.007C52.8239 379.119 51.9364 378.232 51.4927 377.344C50.1615 375.569 48.3865 372.907 46.6115 370.244C46.1678 369.357 45.2803 368.47 44.8366 367.582C43.0616 364.92 41.2866 362.257 39.9554 359.151C39.5116 358.707 39.0679 357.82 38.6242 357.376C36.8492 358.707 35.518 360.038 33.743 361.37C32.4118 362.257 31.5243 363.145 30.1931 364.032C30.6368 364.476 30.6368 365.363 31.0806 365.807C31.0806 366.695 31.5243 367.138 31.9681 368.026C32.4118 369.357 32.8556 371.132 33.743 372.463C33.743 372.463 33.743 372.463 33.743 372.907C34.1868 374.682 35.0742 376.457 35.518 377.788C36.4055 380.007 37.2929 383.113 37.7367 386.219C39.0679 392.432 41.7304 402.194 43.0616 406.631C47.0553 420.831 50.6052 431.037 58.5925 434.143C60.3675 435.031 62.1424 435.031 63.4737 435.031C63.9174 435.031 64.3612 435.031 64.8049 435.031C65.6924 435.031 66.5799 434.587 67.4673 434.143C67.4673 434.143 67.4673 434.143 67.9111 434.143C70.1298 433.256 72.3485 431.481 74.1235 429.262C74.5672 428.818 74.5672 428.375 75.0109 427.931C75.0109 427.043 75.0109 426.156 75.0109 425.268C75.0109 424.825 75.0109 423.937 75.0109 423.05C75.0109 422.606 75.0109 422.162 75.0109 421.718C74.5672 418.612 73.6797 414.619 72.3485 410.625C71.9047 409.294 71.461 408.406 71.0173 407.075C68.3548 402.638 66.5798 399.088 63.9174 395.094Z" fill="#EDA285"/>
<path d="M83.4423 357.376C82.9986 358.707 82.5548 360.038 82.1111 360.482L71.0175 392.431L67.4676 402.194L66.5801 404.856L66.1364 405.744L65.6927 407.075L64.8052 409.294C64.8052 409.737 64.3614 410.181 64.3614 410.625L63.474 411.956C63.474 411.956 63.474 412.4 63.0302 412.4L62.1427 413.731C60.3678 416.837 58.5928 419.943 56.8179 422.606C59.4803 423.493 62.1427 425.268 63.0302 427.931C63.9177 430.593 63.0302 433.256 60.3678 434.143C63.474 434.587 67.0239 434.143 70.5738 433.256C71.0176 433.256 71.4613 432.812 71.905 432.812C73.2363 431.481 74.5675 429.706 75.8987 428.374C76.3425 427.931 76.7862 427.487 77.2299 427.043C78.1174 426.156 79.0049 424.824 79.8924 423.493C80.7798 422.162 81.6673 420.831 82.9986 419.943C83.4423 419.943 83.4423 419.5 83.4423 419.056C84.7735 416.837 86.5485 415.062 87.8797 412.843C88.3235 412.4 88.7672 411.956 88.7672 411.069C89.2109 410.181 90.0984 408.85 90.9859 407.962C99.417 395.538 105.186 383.113 109.179 372.907C109.179 368.469 109.179 363.588 108.736 358.263C108.736 355.601 108.292 352.938 107.848 350.276C106.517 350.276 87.436 347.614 84.7735 352.495C85.661 352.495 84.7735 354.713 83.4423 357.376Z" fill="#EDA285"/>
<path d="M111.841 288.596C112.285 292.146 112.285 295.696 112.729 299.246C112.729 301.908 113.173 304.571 113.173 307.677C113.173 308.564 113.173 309.452 113.173 310.339C110.066 313.446 106.96 316.996 103.854 320.545C100.748 324.095 98.0854 327.645 95.8666 331.195C95.4229 326.314 95.4229 320.989 95.4229 315.221C95.4229 313.002 95.4229 311.227 95.4229 309.008C95.4229 307.233 95.4229 304.571 95.8666 299.246C95.8666 296.14 96.3104 292.59 96.3104 288.152C96.7541 288.152 97.1978 288.596 97.6416 288.596C98.0853 288.596 98.0853 289.04 98.5291 289.04C99.4166 289.484 100.748 289.484 102.079 289.927C106.96 290.815 110.51 289.484 111.841 288.596Z" fill="#EDA285"/>
<path d="M111.841 288.596C112.285 292.146 112.285 295.696 112.729 299.246C112.729 301.909 113.172 304.571 113.172 307.677C108.735 307.234 103.854 303.24 100.304 297.471C98.9728 294.809 98.0853 292.146 97.6415 289.484C98.0853 289.484 98.0853 289.928 98.529 289.928C99.4165 290.371 100.748 290.371 102.079 290.815C106.96 290.815 110.51 289.484 111.841 288.596Z" fill="#EDA285"/>
<path d="M117.61 298.803C125.153 295.253 128.26 285.935 124.71 278.391L114.947 258.866C113.616 255.76 109.622 254.429 106.516 256.204L90.5416 264.191C87.4355 265.522 86.1042 269.516 87.8792 272.622L97.6415 292.147C101.191 299.247 110.066 302.353 117.61 298.803Z" fill="#EDA285"/>
<path d="M97.7892 292.407C100.895 290.632 104.445 289.301 107.552 287.526C110.214 278.207 112.876 268.889 115.539 259.57C114.208 257.795 112.433 255.133 109.326 253.801C99.1204 249.364 83.1457 258.683 81.8145 269.776C80.927 277.763 88.0269 284.863 90.2456 286.638C92.4643 289.301 95.5705 291.076 97.7892 292.407Z" fill="#EDA285"/>
<path d="M118.053 249.991C121.603 253.541 122.491 258.423 122.935 261.529C121.603 262.86 118.053 266.41 111.841 267.297C106.516 268.185 102.522 266.854 100.747 265.966C101.191 273.51 99.86 276.172 98.0851 277.06C97.1976 277.503 95.8663 277.503 94.5351 278.391C93.6476 279.278 92.3164 280.61 92.7601 282.385C92.7601 284.603 95.4226 287.266 99.4163 287.709C99.86 289.041 100.304 291.259 100.747 294.366C100.747 295.697 100.747 296.141 100.747 296.141C98.9725 297.915 80.7792 291.259 78.1167 276.616C76.3418 267.297 81.6666 260.197 83.8853 257.535C92.3164 246.442 110.066 242.448 118.053 249.991Z" fill="#DE3790"/>
<path d="M123.378 283.272C124.71 286.378 123.822 289.928 121.603 290.815C118.941 292.147 114.947 290.815 113.616 286.822C114.947 285.934 116.722 285.047 118.941 284.159C120.272 283.715 122.047 283.715 123.378 283.272Z" fill="white"/>
<path d="M157.547 289.04C158.878 285.49 157.103 281.496 153.997 279.277C151.334 277.502 147.341 277.946 144.678 280.165C143.791 281.052 142.903 281.94 142.46 283.271C141.572 284.602 140.685 285.49 139.797 286.821C139.353 287.265 139.353 287.708 138.91 288.152C137.579 289.927 135.804 291.702 134.472 293.477C132.254 296.139 130.035 299.246 127.816 301.908C126.485 303.239 125.597 305.014 124.266 306.346C122.491 312.558 121.16 319.214 119.385 325.426C121.604 325.87 125.154 325.87 129.147 324.983C130.922 324.539 133.585 324.095 136.691 322.764C141.572 320.102 143.791 315.22 146.01 311.67C146.897 310.339 147.785 308.564 148.672 306.789C149.559 305.458 150.003 304.127 150.891 302.796C151.778 301.464 152.222 300.133 153.109 298.358C153.109 297.914 153.553 297.914 153.553 297.471V297.027C154.441 294.808 156.216 292.146 157.547 289.04Z" fill="#EDA285"/>
<path d="M150.003 317.883C146.897 313.001 143.791 307.677 140.241 302.352C138.466 299.245 136.247 296.583 134.472 293.477C129.147 297.47 120.273 305.902 118.498 317.883C118.054 320.989 117.61 325.87 120.273 328.532C124.266 332.97 134.472 328.089 137.579 326.757C143.791 324.095 147.785 320.545 150.003 317.883Z" fill="#6245DD"/>
<path d="M63.4738 355.158C59.9239 356.933 55.9302 356.045 53.2677 353.383C51.049 350.72 51.049 347.17 52.824 344.064C53.7115 343.177 54.599 342.289 55.4864 341.402C56.3739 340.514 57.2614 339.183 58.1489 338.296C58.5927 337.852 58.5926 337.408 59.0364 336.964C60.3676 335.189 62.1426 333.414 63.4738 331.64C65.6925 328.977 68.3549 326.315 70.5736 323.652C71.9049 322.321 73.2361 320.546 74.5673 319.215C80.3359 316.552 86.5483 313.89 92.7607 310.784C93.6482 313.002 94.0919 316.552 94.0919 320.546C94.0919 322.321 94.0919 325.427 93.2044 328.09C91.4295 333.414 87.4358 336.521 83.8859 339.183C82.5546 340.071 81.2234 341.402 79.4485 342.733C78.1172 343.621 77.2298 344.508 75.8986 345.395C74.5673 346.283 73.2361 347.17 71.9049 348.502C71.4611 348.502 71.4611 348.945 71.0174 349.389H70.5736C68.3549 350.72 66.1362 352.939 63.4738 355.158Z" fill="#EDA285"/>
<path d="M78.5611 349.833C75.4549 347.171 71.4613 343.177 68.3551 338.296C66.5801 335.633 64.8052 333.415 63.4739 331.196C66.5801 325.427 73.2362 315.221 84.7735 311.228C87.8797 310.34 92.3171 309.009 95.867 311.228C100.304 314.334 101.636 322.321 97.1982 328.534C90.5421 335.633 84.7735 342.733 78.5611 349.833Z" fill="#6245DD"/>
<path d="M74.5673 388.439C92.7607 387.995 111.398 387.551 129.591 386.664C127.816 361.814 126.041 336.965 124.71 312.559C122.048 311.671 119.385 310.784 116.279 309.897C103.854 307.234 93.2045 309.009 86.1046 310.784C82.1109 336.965 78.1173 362.702 74.5673 388.439Z" fill="#EDA285"/>
<path d="M79.449 502.479C79.449 508.248 79.449 509.579 80.3365 511.354C80.7802 512.242 82.1114 513.573 85.2176 513.573C86.1051 515.348 87.88 518.01 90.5425 520.673C92.7612 522.891 94.9799 524.666 96.3111 525.554C96.7549 525.998 97.1986 527.329 98.5298 527.773C98.9736 528.216 100.305 528.66 100.749 527.773C101.192 527.329 100.305 525.998 100.305 525.998C100.305 525.998 101.192 526.885 102.524 527.773C102.967 528.216 103.855 528.216 104.298 527.773C104.742 527.329 104.298 526.441 104.298 525.998C104.742 526.441 106.073 528.216 107.405 527.773C107.405 527.773 108.292 527.329 108.292 526.885C108.292 526.441 107.848 525.998 107.848 525.998C108.292 526.441 108.736 526.885 109.623 526.885C110.511 526.885 111.842 526.885 111.842 525.554C111.842 524.666 111.398 523.779 110.067 523.335H110.511C110.955 523.335 111.398 523.779 111.842 523.779H112.286C112.73 523.779 113.617 523.335 114.061 522.891C114.505 522.448 114.505 522.004 114.948 521.56C114.948 521.116 114.948 520.673 114.948 520.229C114.948 519.785 114.948 519.341 114.948 519.341C114.505 518.454 114.505 518.01 114.505 518.01C114.061 518.01 114.061 517.566 113.617 517.566C111.398 516.235 109.18 514.904 106.961 513.573C101.192 506.917 95.4237 500.261 89.655 493.604C86.1051 494.492 79.0052 499.817 79.449 502.479Z" fill="#EDA285"/>
<path d="M111.842 524.223C112.729 524.223 113.617 523.779 114.061 523.335C114.061 523.335 114.061 523.335 114.504 522.892C114.948 522.448 115.392 521.117 115.392 519.786C115.392 519.342 115.392 518.898 115.392 518.454C114.948 517.123 114.061 516.679 114.061 516.236C113.617 516.236 113.617 516.236 113.173 516.236C113.173 516.679 113.173 516.679 113.173 517.123C113.173 517.123 114.061 517.567 114.061 518.454C114.061 518.898 114.061 519.342 114.061 519.342C114.061 520.229 113.617 521.117 113.617 521.56C113.173 522.004 112.729 522.004 112.286 522.004H111.842C111.398 522.004 110.954 522.004 110.511 522.004C110.067 522.004 110.067 522.004 110.067 522.004C108.736 521.56 107.848 520.229 106.517 518.454C106.517 518.011 106.073 518.011 105.63 518.454C105.186 518.454 105.186 518.898 105.63 519.342C106.961 521.117 107.848 522.448 109.18 522.892C109.18 522.892 109.179 522.892 109.623 522.892C109.623 522.892 109.623 522.892 110.067 522.892C110.511 524.223 110.954 524.223 111.842 524.223Z" fill="#D8460E"/>
<path d="M107.405 526.441C107.848 525.998 107.848 525.554 107.848 525.554C107.405 525.11 106.517 524.223 106.074 523.779C105.186 522.448 104.299 521.117 103.411 519.785C103.411 519.342 102.967 519.342 102.524 519.342C102.08 519.342 102.08 519.785 102.08 520.229C102.967 521.56 103.855 523.335 104.742 524.223C105.63 525.11 106.517 525.998 107.405 526.441Z" fill="#D8460E"/>
<path d="M103.855 526.885C104.298 526.441 104.298 525.997 104.298 525.997C103.411 525.11 102.523 523.779 102.08 522.891C101.636 522.447 101.636 522.004 101.192 521.56C101.192 521.116 100.748 521.116 100.305 521.116C99.861 521.116 99.8609 521.56 99.8609 522.004C99.8609 522.447 100.305 522.891 100.748 523.335C102.08 524.666 102.523 525.554 103.855 526.885Z" fill="#D8460E"/>
<path d="M99.8608 526.885C100.305 526.441 100.305 526.441 100.305 525.998L97.1984 521.116C97.1984 520.673 96.7546 520.673 96.3109 521.116C95.8672 521.116 95.8672 521.56 96.3109 522.004L99.4171 526.885C99.4171 526.441 99.8608 526.885 99.8608 526.885Z" fill="#D8460E"/>
<path d="M79.2555 498.349C77.4806 498.793 75.3212 501.409 75.3212 504.032C75.3212 512.019 84.7736 518.454 86.1048 519.342C94.5359 529.104 104.742 533.541 111.398 530.435C114.948 528.66 119.829 523.779 118.942 519.785C118.498 518.454 117.61 517.567 116.279 516.235C113.617 514.017 109.179 510.91 103.411 508.248C103.411 508.692 105.629 511.798 104.298 513.573C102.967 515.348 99.4171 514.904 98.0858 514.46C86.9923 512.685 82.3617 497.018 79.2555 498.349Z" fill="#02C8DC"/>
<path d="M37.2929 356.046C31.968 354.271 30.193 353.827 28.8618 353.827C27.9743 353.827 26.1994 354.715 24.8681 357.377C22.6494 357.821 19.5432 358.265 16.4371 359.596C13.3309 360.927 11.1122 362.258 9.78094 363.589C9.3372 363.589 8.00599 364.033 7.11851 364.921C6.67477 365.364 5.78727 366.252 6.23101 367.139C6.67475 367.583 8.00598 367.139 8.00598 367.139C8.00598 367.139 6.67476 367.583 5.78727 368.471C5.34353 368.914 4.8998 369.358 4.8998 369.802C5.34354 370.246 6.23101 370.246 6.23101 370.246C5.78727 370.246 3.56857 371.133 3.56857 372.464C3.56857 372.464 3.56856 373.352 4.0123 373.352C4.45604 373.795 4.8998 373.352 5.34354 373.352C4.8998 373.352 4.45604 373.795 4.0123 374.683C3.56856 375.57 3.56855 376.902 4.45604 376.902C5.34352 377.345 6.23103 376.902 7.11851 376.458L6.67474 376.902C6.231 377.345 6.23101 377.789 5.78727 378.233V378.677C5.78727 379.12 5.78727 380.008 5.78727 380.452C5.78727 380.452 5.78727 380.452 5.78727 380.895C6.23101 381.339 6.231 381.783 6.67474 382.227C7.11848 382.67 7.56224 382.67 8.00598 382.67C8.44972 382.67 8.4497 382.67 8.89344 382.67C9.78093 382.67 10.2247 382.67 10.6684 382.67C11.1122 382.67 11.1122 382.227 11.5559 382.227C13.7746 380.452 15.5496 379.12 17.7683 377.345C25.7556 374.239 34.1867 371.133 42.174 368.027C42.174 364.921 39.5116 356.933 37.2929 356.046Z" fill="#EDA285"/>
<path d="M9.33749 383.557C10.6687 383.557 11.5562 383.114 11.5562 383.114C11.9999 383.114 11.9999 382.67 11.5562 382.226C11.5562 381.782 11.1124 381.782 10.6687 382.226C10.6687 382.226 9.78121 382.67 8.89372 382.67C8.44998 382.67 8.00626 382.67 8.00626 382.67C7.11877 382.226 6.67503 381.782 6.23129 381.339V380.895C6.23129 380.451 6.23129 380.008 6.23129 379.564V379.12C6.23129 378.676 6.67505 378.233 7.11879 377.789L7.56252 377.345C8.45 376.458 10.225 375.57 11.9999 375.57C12.4437 375.57 12.4437 375.126 12.4437 375.126C12.4437 374.683 11.9999 374.683 11.9999 374.683C9.78123 375.126 8.45001 376.014 7.11879 376.901C7.11879 376.901 7.11876 376.901 6.67502 377.345C6.23128 377.789 5.78755 378.233 5.78755 378.676V379.12C5.78755 379.564 5.78755 380.451 5.78755 380.895V381.339C6.23129 382.226 7.11877 382.67 8.00626 383.114C8.45 383.557 8.89375 383.557 9.33749 383.557Z" fill="#D8460E"/>
<path d="M5.34369 374.683C6.23117 374.239 7.11864 373.795 8.00613 373.352C9.33735 372.908 11.1123 372.464 12.4435 372.02C12.8873 372.02 12.8873 371.577 12.8873 371.577C12.8873 371.133 12.4435 371.133 12.4435 371.133C10.6686 371.577 8.89361 371.577 7.56239 372.464C6.67491 372.908 5.78744 373.352 4.89995 373.795C4.45621 373.795 4.45621 374.239 4.89995 374.683C4.89995 374.683 4.89995 374.683 5.34369 374.683Z" fill="#D8460E"/>
<path d="M6.23081 371.133C7.56203 370.689 8.89326 370.246 10.2245 370.246C10.6682 370.246 11.112 370.246 11.5557 370.246C11.9995 370.246 11.9995 369.802 11.9995 369.802C11.9995 369.358 11.5557 369.358 11.5557 369.358C11.112 369.358 10.6682 369.358 10.2245 369.358C8.89326 369.802 7.56203 369.802 6.23081 370.246C5.78706 370.246 5.78707 370.689 5.78707 371.133C5.78707 371.133 5.78706 371.133 6.23081 371.133Z" fill="#D8460E"/>
<path d="M8.00589 367.584L13.3308 366.252C13.7745 366.252 13.7745 365.809 13.7745 365.809C13.7745 365.365 13.3308 365.365 13.3308 365.365L8.00589 366.696C7.56215 366.696 7.56216 367.14 7.56216 367.14C7.11842 367.584 7.56215 367.584 8.00589 367.584Z" fill="#D8460E"/>
<path d="M39.5117 357.377C39.5117 355.602 35.518 354.27 34.6305 353.827C27.0869 351.164 19.9871 355.602 19.0996 356.489C7.11858 360.927 -0.42503 368.914 0.0187111 376.458C0.462452 380.451 3.56866 386.664 7.56233 387.107C8.89355 387.107 10.2248 386.664 11.9997 385.776C15.1059 384.001 19.0996 381.339 23.9807 376.458C23.537 376.458 19.9871 377.345 18.6558 375.57C17.3246 373.795 19.0996 370.245 19.9871 369.358C24.8682 359.595 39.5117 360.927 39.5117 357.377Z" fill="#02C8DC"/>
<path d="M105.185 422.163C115.391 421.719 125.154 420.832 135.36 420.388C134.028 404.857 132.697 389.77 130.922 374.239C121.16 378.232 110.954 382.67 101.192 386.663C102.523 398.644 103.854 410.625 105.185 422.163Z" fill="#FFC545"/>
<path d="M67.4676 398.201C75.0112 404.857 82.1111 411.957 89.6547 418.613C96.3108 407.52 102.967 396.426 110.067 385.333C117.167 381.783 124.266 377.789 131.366 374.239C113.173 373.352 95.4233 372.02 77.2299 371.133C74.1237 380.008 70.5738 389.326 67.4676 398.201Z" fill="#FFC545"/>
<path d="M68.7985 378.232C73.6796 381.782 94.0918 395.538 118.497 390.213C125.154 388.882 130.922 386.22 134.916 383.557C131.81 359.151 129.147 334.746 126.041 309.896C121.604 309.452 117.166 309.009 113.173 308.565C113.173 309.452 113.616 316.552 110.51 318.327C107.404 320.102 100.748 316.109 95.8667 307.677C92.3168 308.121 88.3231 309.009 84.3294 311.227C83.4419 311.671 82.5545 312.115 82.1107 312.559C80.3358 325.871 78.1171 340.514 74.5671 355.601C72.7922 363.589 71.0172 371.132 68.7985 378.232Z" fill="#6245DD"/>
<path d="M103.854 264.635C104.742 265.522 108.291 269.072 114.06 269.072C119.385 269.072 122.935 266.41 123.822 265.522L103.854 264.635Z" fill="#DE3790"/>
<path d="M87.4359 517.567C93.2045 514.904 99.4169 512.242 105.185 510.023C104.298 508.692 102.967 507.361 102.079 506.03C96.7544 509.136 91.4295 511.798 86.1046 514.904L87.4359 517.567Z" fill="#02C8DC"/>
<path d="M17.7685 364.92C19.5435 368.914 21.3185 373.351 23.0934 377.345C24.4246 376.457 25.7559 375.57 27.5308 374.239C25.3121 370.689 23.0934 366.695 21.3184 363.145L17.7685 364.92Z" fill="#02C8DC"/>
<path d="M84.3296 261.085C86.1045 258.866 87.4358 256.647 89.2107 253.985C88.3233 253.097 86.992 250.879 86.1045 248.216C81.2234 234.904 94.9794 223.367 90.5419 215.379C87.4358 209.611 80.3359 213.604 72.7923 207.836C60.8113 198.517 70.1299 181.655 58.5926 163.018C50.1615 148.818 34.6306 142.606 32.4119 144.381C30.6369 146.156 39.9555 153.699 43.5054 167.455C46.6116 178.993 44.3929 190.086 41.2867 198.073C39.9555 228.248 51.049 253.097 69.2424 259.753C72.7923 261.085 77.6735 261.972 84.3296 261.085Z" fill="#DE3790"/>
<path d="M76.3423 257.535C73.2361 258.866 63.4738 263.303 52.824 259.753C39.5117 255.316 30.1932 241.116 30.6369 224.254C30.6369 225.585 33.2994 242.004 47.9428 248.66C56.8176 252.654 64.805 250.879 67.4674 249.991L76.3423 257.535Z" fill="#DE3790"/>
</svg>
