<svg width="28" height="28" viewBox="0 0 28 28" fill="none" xmlns="http://www.w3.org/2000/svg">
<path d="M14.4853 10.8738C15.7597 10.8738 16.7929 9.84062 16.7929 8.56616C16.7929 7.2917 15.7597 6.25854 14.4853 6.25854C13.2108 6.25854 12.1777 7.2917 12.1777 8.56616C12.1777 9.84062 13.2108 10.8738 14.4853 10.8738Z" fill="#1B1F3B"/>
<path d="M14.3345 0C6.78729 0 0.668945 6.11834 0.668945 13.6655C0.668945 21.2127 6.78729 27.3311 14.3345 27.3311C21.8817 27.3311 28 21.2127 28 13.6655C28 6.11834 21.8817 0 14.3345 0ZM14.4852 3.87558C17.0758 3.87558 19.1758 5.97563 19.1758 8.56618C19.1758 11.1567 17.0758 13.2568 14.4852 13.2568C11.8947 13.2568 9.79464 11.1567 9.79464 8.56618C9.79464 5.97563 11.8947 3.87558 14.4852 3.87558ZM18.6549 15.9604C17.6578 16.6006 16.291 16.8428 15.3981 16.9348L16.1452 17.6816L18.9093 20.4457C19.3291 20.8658 19.3294 21.5467 18.9093 21.9668L18.7826 22.0934C18.3625 22.5136 17.6816 22.5136 17.2615 22.0934C16.559 21.3909 15.5464 20.3783 14.4974 19.3294L11.7334 22.0934C11.3133 22.5133 10.6324 22.5136 10.2123 22.0934L10.0856 21.9668C9.6655 21.5467 9.6655 20.8658 10.0856 20.4457C10.7881 19.7431 11.8007 18.7305 12.8497 17.6816L13.5943 16.937C12.7022 16.8469 11.3208 16.6058 10.3151 15.9601C9.13786 15.2044 8.61631 14.7563 9.078 13.8288C9.34293 13.2967 10.0762 12.8541 11.0511 13.6223C12.3686 14.6604 14.485 14.6604 14.485 14.6604C14.485 14.6604 16.6014 14.6604 17.9188 13.6223C18.8937 12.8541 19.627 13.2967 19.8919 13.8288C20.3536 14.7566 19.8321 15.2047 18.6549 15.9604Z" fill="#1B1F3B"/>
</svg>
