<svg width="37" height="22" viewBox="0 0 37 22" fill="none" xmlns="http://www.w3.org/2000/svg">
<path d="M36.8034 19.2777C36.7584 19.1819 36.7167 19.1019 36.6779 19.038C36.0355 17.8881 34.8093 16.476 32.9986 14.8024L32.9598 14.7643L32.9407 14.7447L32.9215 14.7262H32.9024C32.0804 13.9466 31.5602 13.4229 31.3423 13.154C30.9443 12.6437 30.8542 12.1262 31.0726 11.6025C31.2274 11.2065 31.8051 10.3697 32.8067 9.09149C33.3331 8.41487 33.7503 7.87212 34.0588 7.46212C36.2804 4.52376 37.2431 2.64625 36.9481 1.82793L36.8321 1.63637C36.755 1.52098 36.5557 1.41568 36.2348 1.3199C35.9139 1.22412 35.5029 1.209 35.0024 1.27229L29.4546 1.3115C29.3262 1.29862 29.1978 1.30198 29.0689 1.32046C28.9405 1.34007 28.8572 1.35911 28.8184 1.37815C28.7795 1.39776 28.748 1.41344 28.7221 1.42576L28.645 1.48346C28.5808 1.52154 28.5104 1.58876 28.4333 1.6851C28.3561 1.78088 28.2914 1.89234 28.2407 2.02061C27.6372 3.56652 26.9503 5.00377 26.1796 6.33293C25.7044 7.12493 25.2675 7.81219 24.87 8.39303C24.472 8.97499 24.1381 9.40291 23.8685 9.67681C23.5988 9.95126 23.3544 10.1725 23.1366 10.3377C22.9181 10.5047 22.7509 10.5741 22.636 10.5489C22.5201 10.5237 22.4108 10.4979 22.3084 10.4716C22.1288 10.3568 21.9835 10.2005 21.8749 10.0022C21.7656 9.80451 21.6919 9.55526 21.653 9.25504C21.6148 8.95482 21.5917 8.69605 21.586 8.47872C21.5793 8.2614 21.5827 7.95502 21.5956 7.55902C21.6086 7.16302 21.6148 6.89528 21.6148 6.75413C21.6148 6.26907 21.6243 5.74201 21.644 5.17293C21.6632 4.60441 21.6795 4.15408 21.6919 3.82193C21.7048 3.49035 21.711 3.13859 21.711 2.7678C21.711 2.39812 21.6885 2.10686 21.6435 1.8957C21.5984 1.6851 21.5309 1.48122 21.4414 1.28238C21.3513 1.08465 21.2195 0.931183 21.0461 0.823081C20.8727 0.714419 20.6577 0.628161 20.4009 0.564308C19.7197 0.410837 18.8532 0.3285 17.8004 0.315058C15.4116 0.290412 13.8769 0.443884 13.1962 0.775472C12.9265 0.91662 12.6822 1.10762 12.4643 1.35071C12.2329 1.63189 12.2008 1.78592 12.368 1.81C13.1388 1.92539 13.6843 2.2004 14.0052 2.63449L14.1212 2.86414C14.2107 3.03105 14.3008 3.32455 14.3909 3.74576C14.481 4.16752 14.5384 4.63354 14.5643 5.14492C14.6285 6.07751 14.6285 6.87568 14.5643 7.54053C14.5001 8.20539 14.4393 8.72237 14.3813 9.09205C14.3233 9.46285 14.2366 9.76251 14.1212 9.99271C14.0052 10.2235 13.9287 10.3641 13.8898 10.415C13.851 10.466 13.8194 10.4979 13.7935 10.5108C13.6263 10.5741 13.4535 10.6066 13.2733 10.6066C13.0932 10.6066 12.8753 10.517 12.618 10.3377C12.3613 10.1596 12.0944 9.91318 11.8185 9.60007C11.5421 9.28753 11.2313 8.84952 10.8839 8.28717C10.5371 7.72537 10.1774 7.06108 9.80524 6.29428L9.49727 5.73809C9.30473 5.38073 9.04124 4.85983 8.70738 4.17649C8.37352 3.49315 8.07795 2.83221 7.82122 2.19256C7.71819 1.92483 7.56449 1.72038 7.35899 1.57924L7.26272 1.52154C7.19854 1.47057 7.09551 1.41624 6.9542 1.35911C6.81232 1.30142 6.66538 1.25997 6.51111 1.23421L1.23297 1.27229C0.693618 1.27229 0.327667 1.3944 0.13512 1.63693L0.0579892 1.75175C0.0191421 1.81616 0 1.91867 0 2.05869C0 2.19984 0.0388471 2.3718 0.115978 2.57568C0.886727 4.37757 1.72447 6.11504 2.62978 7.7881C3.53565 9.46229 4.3216 10.8105 4.98988 11.8321C5.6576 12.8549 6.33827 13.8189 7.03189 14.7262C7.72551 15.6336 8.18435 16.2145 8.40899 16.4699C8.63363 16.7258 8.80985 16.9174 8.93878 17.0451L9.42014 17.5055C9.7281 17.8119 10.1813 18.1793 10.7781 18.6073C11.3754 19.0358 12.0364 19.457 12.7621 19.8715C13.4873 20.2871 14.3323 20.6248 15.2951 20.8875C16.2584 21.1496 17.1958 21.2549 18.1073 21.2034H20.3227C20.7725 21.1653 21.1126 21.0253 21.3434 20.7816L21.4205 20.6859C21.4718 20.6097 21.5202 20.4909 21.5652 20.3319C21.6097 20.1722 21.6328 19.9964 21.6328 19.8048C21.6193 19.2553 21.6615 18.7596 21.7578 18.3194C21.854 17.8786 21.9633 17.5464 22.0854 17.3224C22.2076 17.0994 22.345 16.9107 22.4998 16.7572C22.6541 16.6037 22.7627 16.5119 22.8275 16.4794C22.8916 16.448 22.9434 16.4256 22.9817 16.4122C23.2897 16.3102 23.6523 16.4094 24.07 16.709C24.4872 17.0098 24.879 17.3795 25.245 17.8209C25.6109 18.2617 26.0506 18.7563 26.5647 19.3063C27.0781 19.8558 27.5274 20.2641 27.9131 20.5324L28.2987 20.7632C28.5554 20.9161 28.8893 21.0567 29.3003 21.1849C29.7113 21.3121 30.071 21.3446 30.379 21.2807L35.3103 21.2034C35.7985 21.2034 36.1774 21.1239 36.447 20.9637C36.7167 20.8052 36.8772 20.6282 36.9284 20.4366C36.9796 20.245 36.983 20.0288 36.938 19.7852C36.8929 19.5427 36.8479 19.3735 36.8034 19.2777Z" fill="#1B1F3B"/>
</svg>
