<svg width="30" height="22" viewBox="0 0 30 22" fill="none" xmlns="http://www.w3.org/2000/svg">
<path fill-rule="evenodd" clip-rule="evenodd" d="M25.1664 20.6398C27.3746 20.3902 28.4247 19.2106 28.7677 17.0384C28.7677 17.0384 29.1322 14.6589 29.1317 10.5437C29.1317 8.19965 28.9599 6.02065 28.7672 4.49853C28.491 2.31744 27.231 0.949364 24.9946 0.747285C22.4339 0.515965 16.8905 0.382812 14.3194 0.382812C9.06012 0.382812 6.70932 0.511265 4.22276 0.768694C1.85317 1.01359 0.815102 2.0668 0.40729 4.2411C0.121665 5.76479 0 7.19187 0 10.5645C0 13.5942 0.143074 15.4995 0.364473 17.1026C0.668896 19.3041 2.18005 20.5411 4.39456 20.7254C6.97093 20.94 12.132 21.047 14.6839 21.047C17.1501 21.047 22.6986 20.9186 25.1664 20.6398ZM19.443 10.5789L11.469 14.8089V6.43441L19.443 10.5789Z" fill="#1B1F3B"/>
</svg>
