<svg width="150" height="165" viewBox="0 0 150 165" fill="none" xmlns="http://www.w3.org/2000/svg">
<path d="M21.9664 152.317C-7.32215 135.405 -7.32215 107.986 21.9664 91.0779C51.255 74.1695 98.7449 74.1663 128.034 91.0779C157.322 107.989 157.322 135.405 128.034 152.317C98.7449 169.228 51.255 169.225 21.9664 152.317Z" fill="#F0F0F0"/>
<path d="M17.1008 130.795L9.42563 126.462C9.32499 126.429 9.23744 126.366 9.17539 126.282C9.11335 126.198 9.07996 126.097 9.07996 125.993C9.07996 125.889 9.11335 125.788 9.17539 125.703C9.23744 125.619 9.32499 125.556 9.42563 125.523L68.409 92.1931C68.6663 92.0661 68.9503 92 69.2384 92C69.5265 92 69.8106 92.0661 70.0679 92.1931L77.7357 96.526C78.1928 96.7859 78.1965 97.2048 77.7357 97.4647L18.7524 130.817C18.4948 130.941 18.211 131.004 17.924 131C17.6369 130.996 17.3549 130.926 17.1008 130.795Z" fill="#E0E0E0"/>
<path d="M58.9987 89.239C67.7849 94.9752 82.0786 107.202 68.4502 120.54C46.4533 122.627 24.8519 117.214 17.3705 112.33C17.0009 112.112 17.0009 111.812 17.2744 111.5C17.5655 111.201 17.9123 110.964 18.2946 110.802C24.4823 107.915 30.1229 101.199 29.72 96.0751C29.6941 95.6997 30.1451 95.4782 30.9102 95.4031H31.0285C31.2883 95.3877 31.5487 95.3877 31.8084 95.4031H31.96C40.5355 95.8311 51.7613 92.9893 56.7809 89.4793C57.1299 89.2274 57.5351 89.0675 57.96 89.0138H58.0118C58.3567 88.9654 58.7073 89.0454 58.9987 89.239Z" fill="#E0E0E0"/>
<path d="M16.8251 123.47C18.5135 113.841 15.5239 107.309 13.1683 103.276C10.8128 99.2436 5.84735 95.2181 2.47808 95.8485C-0.673701 96.4346 -0.924369 100.42 2.33431 103.564C5.593 106.708 12.5896 112.636 13.5333 117.376L14.0752 121.553L16.8251 123.47Z" fill="#007BFF"/>
<path opacity="0.15" d="M16.8251 123.47C18.5135 113.841 15.5239 107.309 13.1683 103.276C10.8128 99.2436 5.84735 95.2181 2.47808 95.8485C-0.673701 96.4346 -0.924369 100.42 2.33431 103.564C5.593 106.708 12.5896 112.636 13.5333 117.376L14.0752 121.553L16.8251 123.47Z" fill="black"/>
<path d="M15.3507 119.139C15.3069 119.13 15.2672 119.108 15.2378 119.074C15.2084 119.041 15.191 118.999 15.1885 118.954C14.5213 109.2 7.8159 100.493 3.39235 98.2041C3.34418 98.1789 3.30788 98.1358 3.29132 98.084C3.27475 98.0323 3.27927 97.9761 3.30388 97.9276C3.32976 97.8792 3.37357 97.8428 3.42593 97.8263C3.47829 97.8097 3.53504 97.8144 3.58404 97.8391C8.0592 100.173 14.9083 109.023 15.5866 118.925C15.5886 118.952 15.5852 118.979 15.5766 119.004C15.568 119.03 15.5544 119.054 15.5365 119.074C15.5187 119.094 15.4969 119.111 15.4726 119.122C15.4483 119.134 15.4219 119.141 15.3949 119.142C15.3801 119.143 15.3651 119.142 15.3507 119.139Z" fill="white"/>
<path d="M15.1957 126.832C14.9782 125.203 13.4484 122.976 10.6726 120.396C7.60196 117.539 3.43645 115.821 2.71025 113.842C1.8366 111.464 3.99677 109.654 7.44345 110.601C10.4588 111.431 16.2906 115.357 17.2969 124.956C16.7089 125.697 15.9983 126.331 15.1957 126.832Z" fill="#007BFF"/>
<path d="M16.1177 125.925C16.079 125.916 16.0438 125.896 16.0163 125.867C15.9889 125.838 15.9703 125.802 15.9629 125.763C14.245 117.207 8.45388 113.443 5.63755 112.636C5.61139 112.629 5.58693 112.617 5.56554 112.6C5.54416 112.583 5.52628 112.562 5.51293 112.539C5.49957 112.515 5.49101 112.489 5.48772 112.462C5.48444 112.435 5.4865 112.408 5.49378 112.382C5.50346 112.356 5.51836 112.332 5.53756 112.312C5.55677 112.292 5.57986 112.276 5.60543 112.266C5.63099 112.255 5.65848 112.25 5.6862 112.25C5.71391 112.25 5.74127 112.256 5.76657 112.268C8.88149 113.145 14.6137 116.96 16.3831 125.693C16.3929 125.747 16.3815 125.802 16.3513 125.848C16.321 125.893 16.2742 125.925 16.2209 125.936C16.1861 125.941 16.1507 125.937 16.1177 125.925Z" fill="white"/>
<path d="M17.0168 129.224L15.8372 128.542C15.6408 128.416 15.4773 128.245 15.36 128.043C15.2427 127.841 15.1751 127.614 15.1626 127.381V32.6986C15.1771 32.4659 15.2456 32.2399 15.3627 32.0383C15.4798 31.8367 15.6423 31.6652 15.8372 31.5374L70.1695 0.163362C70.3781 0.0560055 70.6094 0 70.8441 0C71.0787 0 71.31 0.0560055 71.5186 0.163362L72.702 0.845327C72.8993 0.972367 73.0634 1.14467 73.1807 1.34792C73.2981 1.55116 73.3652 1.77948 73.3765 2.01388V96.7037C73.3632 96.9376 73.2952 97.1652 73.178 97.3681C73.0609 97.571 72.8978 97.7437 72.702 97.8723L18.366 129.224C18.1573 129.332 17.9261 129.388 17.6914 129.388C17.4567 129.388 17.2255 129.332 17.0168 129.224Z" fill="#007BFF"/>
<path opacity="0.3" d="M17.0168 129.224L15.8372 128.542C15.6408 128.416 15.4773 128.245 15.36 128.043C15.2427 127.841 15.1751 127.614 15.1626 127.381V32.6986C15.1771 32.4659 15.2456 32.2399 15.3627 32.0383C15.4798 31.8367 15.6423 31.6652 15.8372 31.5374L70.1695 0.163362C70.3781 0.0560055 70.6094 0 70.8441 0C71.0787 0 71.31 0.0560055 71.5186 0.163362L72.702 0.845327C72.8993 0.972367 73.0634 1.14467 73.1807 1.34792C73.2981 1.55116 73.3652 1.77948 73.3765 2.01388V96.7037C73.3632 96.9376 73.2952 97.1652 73.178 97.3681C73.0609 97.571 72.8978 97.7437 72.702 97.8723L18.366 129.224C18.1573 129.332 17.9261 129.388 17.6914 129.388C17.4567 129.388 17.2255 129.332 17.0168 129.224Z" fill="black"/>
<path opacity="0.4" d="M73.3654 1.90329C73.3212 1.55678 73.0373 1.42776 72.7019 1.62313L18.3659 33.0119C18.1676 33.1362 18.004 33.3087 17.8904 33.5133L15.3579 32.0387C15.4731 31.8353 15.6363 31.6631 15.8334 31.5374L70.1657 0.163362C70.3744 0.0560054 70.6057 0 70.8403 0C71.075 0 71.3062 0.0560054 71.5149 0.163362L72.7019 0.845326C72.8823 0.96331 73.0351 1.11897 73.1496 1.3016C73.2641 1.48423 73.3378 1.6895 73.3654 1.90329Z" fill="white"/>
<path opacity="0.15" d="M18.248 129.294H18.2075L18.1411 129.32H18.1116C18.0705 129.333 18.0286 129.344 17.9863 129.353C17.7173 129.402 17.44 129.379 17.1827 129.287C17.1306 129.267 17.0801 129.244 17.0315 129.217L15.8482 128.535C15.6522 128.409 15.4882 128.239 15.3692 128.039C15.2502 127.839 15.1795 127.613 15.1626 127.381V32.6986C15.1701 32.4644 15.2374 32.2359 15.358 32.035L17.8905 33.5096C17.7667 33.7106 17.6981 33.9408 17.6914 34.1768V128.856C17.6808 128.987 17.7174 129.118 17.7946 129.224C17.8378 129.278 17.8959 129.317 17.9615 129.337C18.0272 129.358 18.0974 129.358 18.1632 129.338C18.1931 129.327 18.2215 129.312 18.248 129.294Z" fill="black"/>
<path d="M56.4046 13.7767L56.3051 13.7177L55.1992 13.0726C54.7913 12.8473 54.3492 12.6903 53.8906 12.6081C53.6989 12.5676 53.5219 12.516 53.3708 12.468C53.2024 12.4099 53.0375 12.3422 52.8768 12.2653L52.9616 12.1621L51.6935 11.4248C51.5887 11.3646 51.4757 11.3199 51.3581 11.2921C50.8825 11.1778 50.1674 11.4543 49.456 11.3732C49.197 11.3471 48.9469 11.265 48.7228 11.1326C48.4987 11.0002 48.3062 10.8207 48.1584 10.6065C47.7271 10.024 47.4654 9.00292 47.082 8.15876L47.4137 7.66479C47.3798 7.64221 47.344 7.62248 47.3068 7.60581L46.1457 6.93491C45.9497 6.81758 45.7253 6.75637 45.4969 6.75797C45.0633 6.78077 44.6435 6.91815 44.2804 7.15609C41.4972 8.76331 41.4051 12.5786 40.4024 15.0853C39.3997 17.592 37.9805 18.3808 37.2101 19.4646C36.4396 20.5484 36.3844 21.3409 34.6739 23.7002C32.9635 26.0594 32.8934 26.6492 32.8934 27.0805V30.5935L34.1578 31.3308L56.9281 18.1818L56.4046 13.7767ZM35.5254 27.3201C35.2269 27.4897 34.9836 27.2611 34.9836 26.804C34.98 26.5852 35.027 26.3686 35.121 26.171C35.215 25.9734 35.3534 25.8002 35.5254 25.665C35.8204 25.4917 36.06 25.7239 36.06 26.1847C36.0639 26.4023 36.0177 26.6178 35.925 26.8147C35.8323 27.0116 35.6956 27.1845 35.5254 27.3201ZM45.5264 17.4593C45.3827 17.5644 45.2166 17.6346 45.0411 17.6643C44.8656 17.6941 44.6857 17.6825 44.5154 17.6307C44.3451 17.5788 44.1893 17.488 44.0602 17.3655C43.9311 17.243 43.8324 17.0921 43.7717 16.9248C42.8907 17.0943 42.2345 16.2428 42.2345 14.7793C42.2345 13.0505 43.145 11.1299 44.2656 10.4811C44.4095 10.3769 44.5755 10.3074 44.7508 10.2783C44.926 10.2492 45.1056 10.2613 45.2754 10.3135C45.4452 10.3656 45.6005 10.4566 45.7292 10.5791C45.8578 10.7016 45.9562 10.8523 46.0166 11.0193C46.9014 10.8424 47.5538 11.6939 47.5538 13.1647C47.5538 14.8899 46.6507 16.8142 45.5264 17.4593ZM53.0869 17.1607C52.792 17.3339 52.5524 17.1017 52.5524 16.6483C52.5485 16.4302 52.5947 16.2141 52.6873 16.0166C52.78 15.8192 52.9167 15.6456 53.0869 15.5092C53.3892 15.3397 53.6288 15.5719 53.6288 16.029C53.633 16.2468 53.5862 16.4626 53.4921 16.6591C53.398 16.8556 53.2593 17.0274 53.0869 17.1607Z" fill="#455A64"/>
<path opacity="0.5" d="M35.4075 27.9506L32.9598 26.535C32.9028 26.7112 32.8754 26.8955 32.8787 27.0806V30.5936L34.1431 31.3309L35.4075 30.5936V27.9506Z" fill="#37474F"/>
<path opacity="0.5" d="M37.9399 23.5676L39.2043 20.6443L37.1953 19.4647C36.6018 20.2794 36.4322 20.9392 35.6396 22.2368L37.9399 23.5676Z" fill="#37474F"/>
<path opacity="0.5" d="M42.9976 17.7211L43.1635 16.8696C42.6032 16.6336 42.2309 15.8779 42.2309 14.7794C42.2368 13.3266 42.7865 11.9286 43.7717 10.8609L42.0171 9.84717C41.2798 11.5502 40.9923 13.5593 40.384 15.0854C40.2636 15.3898 40.127 15.6876 39.9749 15.9775L42.9976 17.7211Z" fill="#37474F"/>
<path d="M56.4048 13.7768L56.3053 13.7178C55.9321 13.5482 55.5397 13.4244 55.1367 13.3492C54.4733 13.2291 53.8558 12.928 53.3526 12.4792C53.2269 12.3636 53.0898 12.2611 52.9434 12.1733C52.8382 12.1103 52.7238 12.0643 52.6043 12.0369C51.8375 11.8526 50.4404 12.6857 49.4377 11.3881L49.4046 11.3475C48.7042 10.4038 48.4498 8.29529 47.3992 7.66125C47.3653 7.63866 47.3295 7.61894 47.2923 7.60227C46.861 7.39952 46.297 7.43638 45.5266 7.87874C42.7471 9.48596 42.6513 13.305 41.6486 15.8116C40.6459 18.3183 39.2267 19.1072 38.4563 20.191C37.6858 21.2747 37.6342 22.0673 35.9201 24.4265C34.206 26.7857 34.1433 27.3755 34.1433 27.8068V31.3199L56.9135 18.1709V14.6615C56.9305 14.4796 56.8907 14.2968 56.7996 14.1384C56.7085 13.98 56.5706 13.8537 56.4048 13.7768ZM36.7864 28.0501C36.4915 28.2197 36.2482 27.9912 36.2482 27.5341C36.245 27.3152 36.2918 27.0984 36.3851 26.9004C36.4783 26.7024 36.6156 26.5282 36.7864 26.3913C37.085 26.2217 37.3209 26.454 37.3209 26.9111C37.3257 27.1293 37.2799 27.3457 37.1872 27.5433C37.0944 27.7409 36.9573 27.9143 36.7864 28.0501ZM45.5266 17.4594C45.3829 17.5645 45.2168 17.6347 45.0413 17.6644C44.8659 17.6942 44.6859 17.6827 44.5156 17.6308C44.3454 17.579 44.1895 17.4882 44.0604 17.3656C43.9314 17.2431 43.8326 17.0922 43.7719 16.9249C43.5744 16.4786 43.4799 15.9935 43.4954 15.5057C43.4954 13.7805 44.406 11.8599 45.5266 11.2111C45.6787 11.1213 45.8442 11.0566 46.0169 11.0195C46.9016 10.8425 47.554 11.6941 47.554 13.1649C47.554 14.8901 46.6509 16.8143 45.5266 17.4594ZM54.3553 17.8981C54.053 18.0713 53.8134 17.8391 53.8134 17.3857C53.8092 17.1668 53.856 16.95 53.95 16.7523C54.0441 16.5546 54.1828 16.3815 54.3553 16.2466C54.6502 16.0771 54.8898 16.3056 54.8898 16.7664C54.8937 16.9834 54.8475 17.1984 54.7548 17.3947C54.6621 17.591 54.5254 17.7632 54.3553 17.8981Z" fill="#37474F"/>
<path d="M47.554 13.1649C47.554 14.89 46.6508 16.8143 45.5265 17.4594C45.3829 17.5645 45.2167 17.6347 45.0413 17.6644C44.8658 17.6942 44.6858 17.6827 44.5156 17.6308C44.3453 17.5789 44.1895 17.4881 44.0604 17.3656C43.9313 17.2431 43.8325 17.0922 43.7719 16.9249C43.9466 16.8907 44.1138 16.8258 44.2658 16.7332C45.3717 16.0844 46.2933 14.1528 46.2933 12.435C46.3085 11.9484 46.214 11.4646 46.0168 11.0194C46.9015 10.8425 47.554 11.694 47.554 13.1649Z" fill="#263238"/>
<path d="M36.7862 28.05C36.4913 28.2196 36.248 27.991 36.248 27.5339C36.2443 27.3155 36.2908 27.0991 36.3842 26.9016C36.4775 26.7041 36.6151 26.5307 36.7862 26.3949C37.0848 26.2216 37.3244 26.4575 37.3244 26.911C37.3284 27.1294 37.282 27.3459 37.1886 27.5435C37.0953 27.7411 36.9576 27.9144 36.7862 28.05Z" fill="#263238"/>
<path d="M54.3515 17.8981C54.0566 18.0677 53.8133 17.8391 53.8133 17.382C53.8096 17.1636 53.8562 16.9472 53.9495 16.7497C54.0428 16.5522 54.1804 16.3788 54.3515 16.243C54.6501 16.0697 54.8897 16.3056 54.8897 16.7628C54.8935 16.9807 54.8468 17.1965 54.7535 17.3934C54.6601 17.5904 54.5226 17.7631 54.3515 17.8981Z" fill="#263238"/>
<path d="M21.8938 38.6739L69.1705 11.3769C69.2956 11.3135 69.4339 11.2804 69.5741 11.2804C69.7144 11.2804 69.8527 11.3135 69.9778 11.3769L70.4349 11.6424C70.5525 11.7193 70.6504 11.8227 70.7209 11.9444C70.7913 12.066 70.8322 12.2024 70.8404 12.3427V94.09C70.8322 94.2303 70.7913 94.3667 70.7209 94.4884C70.6504 94.61 70.5525 94.7134 70.4349 94.7904L23.1582 122.087C23.0331 122.151 22.8948 122.184 22.7545 122.184C22.6143 122.184 22.476 122.151 22.3509 122.087L21.8938 121.826C21.7758 121.749 21.6775 121.646 21.607 121.524C21.5366 121.402 21.4959 121.266 21.4883 121.125V39.378C21.4956 39.237 21.5361 39.0997 21.6066 38.9774C21.6771 38.855 21.7755 38.751 21.8938 38.6739Z" fill="#F5F5F5"/>
<path d="M70.8295 12.221C70.7779 12.0552 70.6231 12.0035 70.4388 12.1068L23.1584 39.4038C23.0395 39.4798 22.9409 39.5835 22.8708 39.706L21.6064 38.9688C21.6744 38.8448 21.7735 38.7406 21.894 38.6665L69.1707 11.3806C69.2952 11.3153 69.4337 11.2812 69.5743 11.2812C69.7149 11.2812 69.8534 11.3153 69.978 11.3806L70.4351 11.6423C70.5368 11.7068 70.6242 11.7915 70.692 11.891C70.7598 11.9905 70.8066 12.1028 70.8295 12.221Z" fill="#FAFAFA"/>
<path d="M23.0626 122.132C23.0135 122.149 22.9629 122.163 22.9114 122.172H22.834C22.7532 122.181 22.6716 122.181 22.5907 122.172C22.5393 122.163 22.4887 122.149 22.4396 122.132L22.3474 122.087L21.894 121.826C21.776 121.749 21.6777 121.646 21.6073 121.524C21.5368 121.402 21.4961 121.266 21.4885 121.125V39.378C21.4918 39.2371 21.5325 39.0997 21.6065 38.9799L22.8709 39.7171C22.7998 39.8396 22.7594 39.9775 22.7529 40.1189V121.851C22.7529 122.076 22.8856 122.183 23.0626 122.132Z" fill="#E0E0E0"/>
<path d="M60.1908 21.5842L58.9338 20.8469C58.7356 20.7511 58.5172 20.7044 58.2971 20.7108C58.077 20.7172 57.8617 20.7766 57.6694 20.8838C56.1949 21.5325 55.5608 21.8238 54.8015 22.1445L54.2559 22.3657C53.9573 22.4836 53.3638 22.3657 53.5481 21.3445L55.5018 16.0842H55.4724L54.2338 15.3469C54.1717 15.31 54.1027 15.2861 54.031 15.2769C53.9844 15.2727 53.9375 15.2727 53.8909 15.2769C53.091 15.2769 52.8661 10.1161 52.8588 9.94284L52.8035 9.90967L51.5796 9.20558C51.366 9.08556 51.1243 9.0245 50.8792 9.02864C50.4728 9.04443 50.076 9.1569 49.7217 9.35672C47.7901 10.3705 45.8585 13.36 45.383 16.0547C45.0844 17.7467 43.3813 20.3566 42.3971 21.3151C41.4128 22.2735 41.3428 23.0587 41.3428 23.0587L40.576 27.4048L40.3327 28.7909C40.1521 29.8304 39.0868 30.8331 39.0868 30.8331L35.124 33.8042C32.6395 35.8685 31.9391 37.9476 31.4598 40.5243V40.5428C31.4598 40.6349 31.4598 40.6976 31.5004 40.7197C31.507 40.724 31.5147 40.7263 31.5225 40.7263C31.5304 40.7263 31.538 40.724 31.5446 40.7197L32.0533 40.4322L59.3319 24.6954C59.4602 24.6098 59.5501 24.4775 59.5826 24.3268C59.7374 23.3868 60.1908 21.6247 60.1908 21.6247V21.5842ZM52.3021 13.6218C52.0109 15.2732 50.8276 17.1164 49.637 17.7357C48.8223 18.1596 48.2251 17.8979 48.026 17.1459C47.8798 17.2036 47.7213 17.2233 47.5653 17.2034C47.4094 17.1834 47.261 17.1243 47.134 17.0316C46.7653 16.733 50.2304 10.7649 50.5106 10.8976C50.6466 10.9681 50.7645 11.069 50.8552 11.1923C50.946 11.3157 51.0072 11.4583 51.0341 11.609C52.0109 11.3141 52.5823 12.1399 52.3021 13.6218Z" fill="#455A64"/>
<path opacity="0.5" d="M35.4078 36.7166L33.4135 35.5702C32.2597 37.0889 31.7952 38.6851 31.4524 40.5356V40.5541C31.4524 40.6462 31.4524 40.7089 31.4929 40.731C31.4995 40.7353 31.5072 40.7376 31.5151 40.7376C31.5229 40.7376 31.5306 40.7353 31.5372 40.731L33.1039 39.4887L35.4078 36.7166Z" fill="#37474F"/>
<path opacity="0.5" d="M40.2 29.2555L43.0015 30.8738L44.2659 23.5639L41.7408 22.0894C41.537 22.3785 41.4009 22.7099 41.3427 23.0588L40.576 27.405L40.3327 28.791C40.3038 28.9498 40.2593 29.1054 40.2 29.2555Z" fill="#37474F"/>
<path opacity="0.5" d="M46.7137 12.5566C46.072 13.6374 45.6218 14.8209 45.3829 16.0549C45.1839 16.9268 44.8506 17.7625 44.395 18.5321L46.7985 19.9182L47.9928 17.1608C47.8507 17.2126 47.698 17.2286 47.5482 17.2074C47.3984 17.1862 47.2561 17.1284 47.1339 17.0392C46.9349 16.8843 47.7606 15.2329 48.6453 13.681L46.7137 12.5566Z" fill="#37474F"/>
<path d="M60.2092 21.6028H60.1907C59.9933 21.5084 59.776 21.4629 59.5573 21.47C59.3386 21.477 59.1247 21.5365 58.9337 21.6433C57.1311 22.4359 56.5856 22.6976 55.5165 23.1178C55.229 23.2358 54.6539 23.1399 54.8014 22.1668C54.7996 22.1447 54.7996 22.1225 54.8014 22.1004L55.0484 20.7107L55.7303 16.9249C55.7303 16.9249 55.8852 16.3314 55.4907 16.1065H55.4612C55.3632 16.0604 55.2562 16.0365 55.1479 16.0365C54.9161 16.0076 54.6941 15.9261 54.4986 15.7984C54.3031 15.6706 54.1394 15.4999 54.0199 15.2992C53.8085 14.9843 53.6622 14.6304 53.5894 14.2582C53.5166 13.886 53.5188 13.503 53.596 13.1317C53.8798 11.5097 53.5665 10.3743 52.8587 9.95038L52.8034 9.91352C52.3389 9.67023 51.716 9.71078 50.9861 10.0941C49.0655 11.1005 47.1228 14.0938 46.651 16.7774C46.3487 18.4731 44.6456 21.0793 43.6614 22.0414C42.6772 23.0035 42.6071 23.7961 42.6071 23.7961L41.8404 28.1459L41.5971 29.5357C41.4164 30.5752 40.3511 31.5779 40.3511 31.5779L36.3883 34.549C34.8049 35.8067 33.6624 37.5353 33.126 39.485C33.126 39.485 31.6515 40.6388 31.5446 40.7309L32.0533 40.4434L59.4166 24.714C59.4166 24.714 59.73 24.5407 59.7852 24.4965C59.8405 24.4523 60.9759 23.4275 60.9759 23.4275C60.9317 22.517 60.67 21.8792 60.2092 21.6028ZM52.3021 13.6219C52.0109 15.2734 50.8276 17.1165 49.6369 17.7358C48.8222 18.1598 48.225 17.898 48.026 17.146C47.9382 16.7242 47.9382 16.2888 48.026 15.8669C48.3209 14.2154 49.5005 12.3723 50.6985 11.7567C50.8068 11.6972 50.9203 11.6479 51.0377 11.6092C52.0109 11.3143 52.5822 12.14 52.3021 13.6219Z" fill="#37474F"/>
<path d="M52.302 13.622C52.0108 15.2734 50.8275 17.1166 49.6368 17.7359C48.8221 18.1598 48.2249 17.8981 48.0259 17.146C48.1456 17.1089 48.2616 17.0608 48.3724 17.0023C49.5557 16.383 50.75 14.5398 51.0376 12.8884C51.1291 12.4669 51.1291 12.0307 51.0376 11.6092C52.0108 11.3143 52.5821 12.1401 52.302 13.622Z" fill="#263238"/>
<path d="M51.1631 11.6794C51.2734 11.6733 51.3835 11.6955 51.4828 11.7439C51.5822 11.7923 51.6675 11.8652 51.7308 11.9558C52.2247 12.6525 51.7529 14.4293 51.5501 14.997C51.2663 15.7896 49.4342 17.6438 48.9255 17.6438C48.7589 17.6162 48.5998 17.555 48.4578 17.4637C48.3158 17.3724 48.194 17.253 48.0998 17.113C48.0163 16.7056 48.0163 16.2855 48.0998 15.8781C48.3873 14.2487 49.5743 12.4314 50.7281 11.8231C50.8318 11.7668 50.9404 11.7199 51.0525 11.6831H51.1631M51.1631 11.6056H51.0341C50.9167 11.6443 50.8032 11.6936 50.6949 11.7531C49.5079 12.3687 48.3173 14.2118 48.0224 15.8633C47.9346 16.2852 47.9346 16.7206 48.0224 17.1425C48.1237 17.2951 48.2557 17.425 48.4099 17.524C48.5641 17.623 48.7371 17.6889 48.9181 17.7175C49.4674 17.7175 51.3142 15.8486 51.6091 15.0191C51.904 14.1897 52.5417 11.5983 51.1483 11.5983L51.1631 11.6056Z" fill="#263238"/>
<path d="M31.5485 40.7529L59.4205 24.7323L59.7892 24.5185C59.8592 24.4779 60.9614 23.4126 60.9614 23.4126L33.1114 39.4885C33.1114 39.4885 31.4379 40.7935 31.5485 40.7529Z" fill="#263238"/>
<path d="M27.5707 103.947L34.9949 99.6011L34.9912 108.231L27.5707 112.577V103.947Z" fill="#FAFAFA"/>
<path d="M27.884 104.124V112.042L34.6889 108.057V100.136L27.884 104.124ZM27.5744 112.883C27.5212 112.884 27.4688 112.87 27.4233 112.842C27.3763 112.816 27.3373 112.777 27.3101 112.73C27.2829 112.684 27.2685 112.631 27.2684 112.577V103.947C27.2685 103.894 27.2825 103.841 27.309 103.795C27.3355 103.748 27.3736 103.709 27.4196 103.682L34.8438 99.3357C34.8905 99.3095 34.9433 99.2959 34.9969 99.2963C35.0505 99.2966 35.1031 99.3108 35.1495 99.3376C35.1959 99.3643 35.2346 99.4027 35.2618 99.4489C35.289 99.495 35.3037 99.5475 35.3046 99.6011V108.231C35.3044 108.285 35.2901 108.338 35.2629 108.384C35.2357 108.431 35.1966 108.469 35.1497 108.496L27.7255 112.842C27.6781 112.868 27.6249 112.882 27.5707 112.883H27.5744Z" fill="#455A64"/>
<path d="M38.729 97.7469V98.3699C38.729 98.709 38.9686 98.8491 39.2598 98.6795L65.6021 83.4736C65.757 83.3727 65.8858 83.2366 65.978 83.0764C66.0703 82.9163 66.1233 82.7366 66.1329 82.552V81.9253C66.1329 81.5862 65.897 81.4498 65.6021 81.6194L39.2598 96.829C39.1057 96.9297 38.9773 97.0653 38.8851 97.2247C38.7929 97.3842 38.7394 97.563 38.729 97.7469Z" fill="#E0E0E0"/>
<path d="M38.729 101.518V102.141C38.729 102.48 38.9686 102.616 39.2598 102.447L65.6021 87.2407C65.7569 87.1407 65.8857 87.0053 65.978 86.8457C66.0703 86.6861 66.1234 86.5069 66.1329 86.3229V85.6962C66.1329 85.3571 65.897 85.2207 65.6021 85.3902L39.2598 100.596C39.1056 100.698 38.9772 100.834 38.885 100.994C38.7929 101.154 38.7394 101.333 38.729 101.518Z" fill="#E0E0E0"/>
<path d="M38.729 105.263V105.886C38.729 106.225 38.9686 106.362 39.2598 106.192L65.6021 90.9862C65.7565 90.8857 65.885 90.7502 65.9772 90.5907C66.0694 90.4312 66.1228 90.2523 66.1329 90.0683V89.4417C66.1329 89.1025 65.897 88.9661 65.6021 89.132L39.2598 104.342C39.1056 104.443 38.9772 104.579 38.885 104.739C38.7929 104.899 38.7394 105.079 38.729 105.263Z" fill="#E0E0E0"/>
<path d="M31.4082 108.36L29.683 106.697L30.4239 105.123L31.4082 106.07L35.4963 97.415L36.2372 98.1302L31.4082 108.36Z" fill="#007BFF"/>
<path d="M27.5707 89.0102L34.9949 84.6641L34.9912 93.2937L27.5707 97.6398V89.0102Z" fill="#FAFAFA"/>
<path d="M27.884 89.1874V97.1056L34.6889 93.1207V85.1988L27.884 89.1874ZM27.5744 97.946C27.5212 97.9469 27.4688 97.9329 27.4233 97.9055C27.3761 97.8791 27.3368 97.8406 27.3096 97.7939C27.2824 97.7472 27.2682 97.6941 27.2684 97.6401V89.0105C27.2689 88.957 27.283 88.9046 27.3095 88.8581C27.3359 88.8116 27.3738 88.7727 27.4196 88.745L34.8438 84.3989C34.8905 84.3727 34.9433 84.3592 34.9969 84.3595C35.0505 84.3598 35.1031 84.3741 35.1495 84.4008C35.1959 84.4276 35.2346 84.4659 35.2618 84.5121C35.289 84.5583 35.3037 84.6107 35.3046 84.6643V93.2939C35.3044 93.3479 35.2901 93.4009 35.2629 93.4475C35.2357 93.4941 35.1967 93.5327 35.1497 93.5593L27.7255 97.8907C27.6804 97.9238 27.6266 97.9431 27.5707 97.946H27.5744Z" fill="#455A64"/>
<path d="M38.729 82.81V83.4367C38.729 83.7721 38.9686 83.9122 39.2598 83.7426L65.6021 68.5367C65.757 68.4358 65.8858 68.2997 65.978 68.1395C66.0703 67.9794 66.1233 67.7997 66.1329 67.6151V66.9884C66.1329 66.6493 65.897 66.5129 65.6021 66.6825L39.2598 81.8921C39.1057 81.9929 38.9773 82.1284 38.8851 82.2878C38.7929 82.4473 38.7394 82.6261 38.729 82.81Z" fill="#E0E0E0"/>
<path d="M38.729 86.581V87.2003C38.729 87.5395 38.9686 87.6758 39.2598 87.5063L65.6021 72.3003C65.7569 72.2002 65.8857 72.0648 65.978 71.9053C66.0703 71.7457 66.1234 71.5665 66.1329 71.3824V70.7558C66.1329 70.4166 65.897 70.2802 65.6021 70.4498L39.2598 85.6558C39.1051 85.7577 38.9764 85.8945 38.8842 86.0552C38.792 86.2159 38.7389 86.396 38.729 86.581Z" fill="#E0E0E0"/>
<path d="M38.729 90.3301V90.9531C38.729 91.2923 38.9686 91.4287 39.2598 91.2591L65.6021 76.0531C65.7569 75.953 65.8857 75.8177 65.978 75.6581C66.0703 75.4985 66.1234 75.3193 66.1329 75.1352V74.5086C66.1329 74.1694 65.897 74.033 65.6021 74.2026L39.2598 89.4123C39.1061 89.5134 38.978 89.6491 38.8859 89.8084C38.7937 89.9678 38.74 90.1464 38.729 90.3301Z" fill="#E0E0E0"/>
<path d="M31.4082 93.4229L29.683 91.7604L30.4239 90.1863L31.4082 91.1337L35.4963 82.4783L36.2372 83.1971L31.4082 93.4229Z" fill="#007BFF"/>
<path d="M27.5707 74.0736L34.9949 69.7274L34.9912 78.357L27.5707 82.7032V74.0736Z" fill="#FAFAFA"/>
<path d="M27.884 74.2504V82.1686L34.6889 78.1837V70.2619L27.884 74.2504ZM27.5744 83.0128C27.5214 83.0119 27.4695 82.998 27.4233 82.9722C27.376 82.945 27.3369 82.9057 27.3097 82.8585C27.2825 82.8112 27.2683 82.7576 27.2684 82.7031V74.0735C27.2684 74.0205 27.2824 73.9683 27.3089 73.9224C27.3355 73.8765 27.3736 73.8383 27.4196 73.8118L34.8438 69.4656C34.8902 69.4384 34.943 69.4241 34.9967 69.4241C35.0505 69.4241 35.1033 69.4384 35.1497 69.4656C35.1964 69.4926 35.2352 69.5312 35.2624 69.5778C35.2895 69.6243 35.3041 69.6772 35.3046 69.7311V78.3533C35.3042 78.4067 35.2896 78.4591 35.2625 78.505C35.2353 78.551 35.1964 78.589 35.1497 78.615L27.7255 82.9685C27.6791 82.9975 27.6254 83.0129 27.5707 83.0128H27.5744Z" fill="#455A64"/>
<path d="M38.729 67.8731V68.4997C38.729 68.8389 38.9686 68.9753 39.2598 68.8057L65.6021 53.5997C65.757 53.4988 65.8858 53.3628 65.978 53.2026C66.0703 53.0424 66.1233 52.8627 66.1329 52.6782V52.0515C66.1329 51.716 65.897 51.576 65.6021 51.7455L39.2598 66.9552C39.1059 67.0561 38.9776 67.1917 38.8855 67.3511C38.7933 67.5105 38.7397 67.6893 38.729 67.8731Z" fill="#E0E0E0"/>
<path d="M38.729 71.6441V72.2671C38.729 72.6062 38.9686 72.7426 39.2598 72.5731L65.6021 57.3671C65.7571 57.2672 65.8861 57.1319 65.9784 56.9723C66.0707 56.8127 66.1237 56.6334 66.1329 56.4492V55.8225C66.1329 55.4834 65.897 55.347 65.6021 55.5166L39.2598 70.7225C39.1056 70.8241 38.9772 70.9603 38.885 71.1203C38.7929 71.2804 38.7394 71.4597 38.729 71.6441Z" fill="#E0E0E0"/>
<path d="M38.729 75.4042V76.0272C38.729 76.3664 38.9686 76.5028 39.2598 76.3332L65.6021 61.1272C65.7569 61.0271 65.8857 60.8918 65.978 60.7322C66.0703 60.5726 66.1234 60.3934 66.1329 60.2093V59.5827C66.1329 59.2435 65.897 59.1071 65.6021 59.2767L39.2598 74.4827C39.1056 74.5842 38.9772 74.7204 38.885 74.8805C38.7929 75.0405 38.7394 75.2199 38.729 75.4042Z" fill="#E0E0E0"/>
<path d="M31.4082 78.486L29.683 76.8235L30.4239 75.2531L31.4082 76.1968L35.4963 67.545L36.2372 68.2602L31.4082 78.486Z" fill="#007BFF"/>
<path d="M27.2648 50.4848V66.1884C27.2648 67.1247 27.9246 67.5044 28.7393 67.0363L42.3196 59.1845C42.7483 58.9066 43.1053 58.5313 43.3615 58.0893C43.6178 57.6473 43.766 57.151 43.7941 56.6409V40.9484C43.7941 40.012 43.138 39.6324 42.3196 40.1005L28.7319 47.9449C28.3046 48.2229 27.9491 48.5978 27.6941 49.0391C27.4392 49.4805 27.2921 49.9758 27.2648 50.4848Z" fill="#007BFF"/>
<path opacity="0.7" d="M27.2648 50.4848V66.1884C27.2648 67.1247 27.9246 67.5044 28.7393 67.0363L42.3196 59.1845C42.7483 58.9066 43.1053 58.5313 43.3615 58.0893C43.6178 57.6473 43.766 57.151 43.7941 56.6409V40.9484C43.7941 40.012 43.138 39.6324 42.3196 40.1005L28.7319 47.9449C28.3046 48.2229 27.9491 48.5978 27.6941 49.0391C27.4392 49.4805 27.2921 49.9758 27.2648 50.4848Z" fill="white"/>
<path d="M35.5258 46.3452C37.0925 45.442 38.3605 46.1756 38.3605 47.9819C38.3066 48.9649 38.0219 49.9214 37.5294 50.7738C37.0369 51.6263 36.3505 52.3507 35.5258 52.8883C33.9628 53.7915 32.6947 53.0616 32.6947 51.2553C32.7476 50.272 33.0315 49.315 33.5234 48.4619C34.0153 47.6088 34.7013 46.8836 35.5258 46.3452Z" fill="#FAFAFA"/>
<path d="M40.443 53.2643C40.1923 51.9557 38.8505 51.9188 37.446 52.7298L33.6049 54.9416C32.2004 55.7526 30.8586 57.3377 30.608 58.9375L29.8744 63.9767L41.1803 57.4482L40.443 53.2643Z" fill="#FAFAFA"/>
<path d="M45.4712 45.7185V40.3845C45.4792 40.2317 45.5231 40.0831 45.5993 39.9505C45.6755 39.8179 45.7819 39.7052 45.9099 39.6214L65.6942 28.1939C65.9375 28.0538 66.1329 28.1681 66.1329 28.4482V33.7897C66.1248 33.9424 66.0809 34.0911 66.0047 34.2236C65.9285 34.3562 65.8221 34.469 65.6942 34.5527L45.9209 45.9802C45.6666 46.113 45.4712 45.9987 45.4712 45.7185Z" fill="#455A64"/>
<path d="M45.9099 47.9008L62.7857 38.1506C63.029 38.0105 63.2244 38.1247 63.2244 38.4049V38.9763C63.2169 39.1291 63.1733 39.278 63.097 39.4107C63.0208 39.5434 62.914 39.656 62.7857 39.7393L45.9099 49.4896C45.6666 49.6297 45.4712 49.5154 45.4712 49.2352V48.6639C45.4792 48.5112 45.5231 48.3625 45.5993 48.2299C45.6755 48.0973 45.7819 47.9846 45.9099 47.9008Z" fill="#007BFF"/>
<path d="M45.9099 51.0746L60.9684 42.3749C61.2117 42.2348 61.407 42.3491 61.407 42.6293V43.2006C61.3996 43.3535 61.3559 43.5024 61.2797 43.6351C61.2034 43.7677 61.0967 43.8804 60.9684 43.9637L45.9099 52.6707C45.6666 52.8108 45.4712 52.6965 45.4712 52.4164V51.8413C45.4789 51.688 45.5227 51.5387 45.5989 51.4055C45.6751 51.2723 45.7816 51.1589 45.9099 51.0746Z" fill="#007BFF"/>
<path d="M45.9099 54.2597L57.8608 47.3589C58.1041 47.2188 58.3032 47.3331 58.3032 47.6133V48.1883C58.2942 48.3412 58.2495 48.4899 58.1726 48.6224C58.0958 48.7549 57.989 48.8676 57.8608 48.9514L45.9099 55.8669C45.6666 56.007 45.4712 55.8964 45.4712 55.6125V55.0412C45.4763 54.8853 45.5189 54.7329 45.5952 54.5969C45.6716 54.4609 45.7795 54.3452 45.9099 54.2597Z" fill="#007BFF"/>
<path opacity="0.1" d="M72.1795 92.7904V58.0311C68.0184 58.6091 63.785 57.385 61.2603 54.2355C61.2348 54.2058 61.2136 54.176 61.1881 54.1505C61.0759 54.0111 60.9408 53.8918 60.7885 53.7977L60.7248 53.7595C60.2998 53.53 59.8747 53.734 59.5559 54.397C55.3991 63.7945 46.8984 73.1708 41.3645 75.4022C40.946 75.5718 40.5702 75.8315 40.2636 76.163C39.8576 76.576 39.6223 77.127 39.6048 77.7059C39.3116 86.2788 42.1848 98.5538 48.216 107.543L71.4016 94.159C71.6303 94.0086 71.82 93.8062 71.9552 93.5683C72.0905 93.3304 72.1673 93.0638 72.1795 92.7904Z" fill="black"/>
<path d="M88.5816 59.1066C88.6156 58.6263 88.5094 58.3245 88.3011 58.2012H88.2714C88.0461 58.0907 86.5712 57.1387 86.3545 57.0111H86.3247C86.0994 56.9006 85.7594 56.9856 85.3429 57.2789C81.1988 60.2329 75.6138 60.7982 71.4485 58.792C70.8758 58.3384 70.3555 57.8223 69.8971 57.2534C69.8752 57.2233 69.851 57.1949 69.8249 57.1684C69.7138 57.0279 69.5785 56.9084 69.4253 56.8156C69.4253 56.8156 67.619 55.6808 67.4829 55.6043L67.4149 55.5618C66.9687 55.3323 66.5649 55.5363 66.2503 56.2036C62.0935 65.6011 53.5886 74.9773 48.0589 77.2045C47.6402 77.3757 47.2644 77.6369 46.9581 77.9696C46.5523 78.381 46.3169 78.9306 46.2993 79.5082C45.8742 91.7577 51.9224 111.569 64.4184 118.543C65.1515 119.058 65.9152 119.528 66.7051 119.95C84.8073 102.456 88.0716 73.6257 88.5816 59.1066Z" fill="#007BFF"/>
<path opacity="0.4" d="M88.2626 58.1715C88.0374 58.061 87.6973 58.146 87.2808 58.4393C82.4567 61.8821 75.6731 62.0861 71.4568 58.7496C75.6221 60.7472 81.1986 60.1862 85.3384 57.2322C85.7634 56.9389 86.095 56.8539 86.3202 56.9644H86.35C86.554 57.1132 88.0374 58.061 88.2626 58.1715Z" fill="white"/>
<path d="M69.349 56.7262C68.9027 56.4967 68.4989 56.7007 68.1844 57.3638C64.0276 66.7656 55.5227 76.1376 49.993 78.369C49.574 78.5375 49.1979 78.7974 48.8921 79.1298C48.724 79.311 48.581 79.514 48.4671 79.7333L46.5289 78.522C46.6422 78.3035 46.7852 78.1018 46.954 77.9227C47.2603 77.59 47.6362 77.3288 48.0548 77.1576C53.5802 74.9305 62.0809 65.5542 66.2463 56.1567C66.5438 55.4894 66.9646 55.2854 67.4151 55.5149L67.4789 55.5574C67.5426 55.5914 67.9039 55.8294 68.3289 56.0887L69.349 56.7262Z" fill="#007BFF"/>
<path opacity="0.3" d="M64.3845 118.475C51.9097 111.496 45.8743 91.6981 46.2908 79.4614C46.2981 79.1338 46.381 78.8123 46.5331 78.5221L48.4712 79.7334C48.3166 80.0225 48.2349 80.3449 48.2332 80.6728C47.8379 92.2677 53.2189 110.629 64.3845 118.475Z" fill="black"/>
<path d="M88.5815 59.1066C88.0842 73.6257 84.82 102.46 66.7093 119.886C53.9795 113.086 47.825 93.02 48.2458 80.6558C48.2635 80.0782 48.4988 79.5286 48.9046 79.1172C49.2109 78.7844 49.5868 78.5232 50.0054 78.3521C55.5309 76.1249 64.0315 66.7487 68.2011 57.3512C68.4944 56.6839 68.9194 56.4798 69.3657 56.7094L69.4295 56.7519C69.5826 56.8447 69.718 56.9642 69.829 57.1046C69.8552 57.1312 69.8793 57.1596 69.9013 57.1897C73.8073 62.0648 81.8022 62.3326 87.2894 58.4265C87.7144 58.1332 88.046 58.0482 88.2712 58.1587H88.301C88.4965 58.3245 88.607 58.6263 88.5815 59.1066Z" fill="#007BFF"/>
<path opacity="0.1" d="M69.3533 56.7262C68.9282 56.4967 68.5032 56.7007 68.1887 57.368C64.0276 66.7655 55.5269 76.1418 49.993 78.3689C49.5743 78.5401 49.1985 78.8013 48.8921 79.134C48.4863 79.5454 48.251 80.095 48.2333 80.6726C47.8083 93.0369 53.9671 113.107 66.6968 119.903C76.5406 86.5636 69.3533 56.7262 69.3533 56.7262Z" fill="black"/>
<path d="M61.7576 98.3627C61.9575 95.91 62.0256 93.4483 61.9616 90.9883L68.7621 87.214C68.9015 84.6808 68.8845 82.1413 68.7111 79.6102C71.2953 78.2245 72.4089 77.6422 75.0866 76.2651C75.35 78.7144 75.482 81.1761 75.4819 83.6395C78.1299 82.2539 78.9714 81.8118 81.7002 80.4347C81.5321 83.0363 81.1799 85.6228 80.6461 88.1746C77.8749 89.5687 77.6963 89.658 75.0186 91.0393C74.5936 93.9763 74.2323 95.7742 73.6458 98.5327C71.2103 99.8078 70.0415 100.441 67.6273 101.818C68.1595 99.3918 68.54 96.9346 68.7664 94.4608C66.2969 95.889 64.2313 97.0111 61.7576 98.3627Z" fill="#FAFAFA"/>
<path d="M68.7795 87.214L61.9789 90.9883C62.0429 93.4482 61.9748 95.9099 61.7749 98.3626C64.2486 97.011 66.3143 95.8889 68.7837 94.4608C68.5513 96.932 68.1652 99.3864 67.6276 101.81C68.9027 101.074 69.8548 100.535 70.8154 100.024C71.7254 92.7089 72.0566 85.3329 71.8057 77.9652C70.8961 78.4455 69.9866 78.9258 68.7285 79.6016C68.9022 82.1356 68.9192 84.6779 68.7795 87.214Z" fill="#EBEBEB"/>
<path opacity="0.4" d="M75.7288 63.4843C80.0599 64.7594 83.9914 62.9658 86.2441 61.9032C86.2441 61.9032 85.8871 87.5412 76.4981 103.816C80.4169 90.9883 80.1449 88.3276 80.7229 78.7388C81.2882 69.3158 78.959 65.9495 75.7288 63.4843Z" fill="white"/>
<path d="M96.8858 135.446C108.421 135.446 117.771 130.06 117.771 123.417C117.771 116.773 108.421 111.388 96.8858 111.388C85.3509 111.388 76.0001 116.773 76.0001 123.417C76.0001 130.06 85.3509 135.446 96.8858 135.446Z" fill="#E0E0E0"/>
<path d="M123.984 142.055C133.402 142.055 141.036 137.676 141.036 132.273C141.036 126.871 133.402 122.491 123.984 122.491C114.566 122.491 106.932 126.871 106.932 132.273C106.932 137.676 114.566 142.055 123.984 142.055Z" fill="#E0E0E0"/>
<path d="M109.272 115.428C109.969 115.428 109.722 118.083 109.904 119.822C110.095 121.687 110.496 123.105 110.671 124.634C110.909 125.966 110.704 127.34 110.087 128.545C109.6 129.66 107.152 131.188 106.224 129.595C105.296 128.002 105.097 126.174 105.202 124.435C105.286 122.976 105.27 121.514 105.154 120.057C105.073 118.695 104.562 115.922 105.466 115.752L105.51 116.222C105.835 116.871 108.936 117.317 109.3 116.068L109.272 115.428Z" fill="#37474F"/>
<path d="M95.1818 118.087C95.3925 118.962 95.1818 121.35 95.1818 121.35C95.1818 121.35 94.8007 122.161 93.459 122.724L92.855 119.4L95.1818 118.087Z" fill="#263238"/>
<path d="M93.4627 122.724L90.4995 121.752L89.782 119.121L93.1181 120.807L93.4627 122.724Z" fill="black"/>
<path d="M90.3821 115.043V114.423C89.9767 114.617 89.093 117.864 87.8932 120.098C86.7987 122.124 84.63 123.259 83.9247 124.151C82.9802 125.331 84.8124 126.859 87.7513 126.227C89.2106 125.915 91.4198 124.982 92.0198 123.997C92.6197 123.012 92.8305 121.204 93.3129 120.483C93.7953 119.761 94.9668 118.926 95.214 118.099C95.4087 117.354 95.4087 116.571 95.214 115.825C94.983 115.075 94.7843 114.171 94.5249 114.252V114.82C94.3303 115.225 93.621 115.691 92.1333 115.768C91.3874 115.78 90.7226 115.687 90.3821 115.043Z" fill="#37474F"/>
<path d="M89.8835 64.4535C89.1904 69.026 88.3107 82.2327 88.4161 91.402C88.5296 101.236 88.4161 117.617 88.4161 117.617C89.5417 118.223 90.7877 118.572 92.0644 118.638C93.3777 118.679 94.6858 118.456 95.9113 117.982C95.9113 117.982 97.7841 104.341 98.0881 100.936C98.2468 98.3711 98.0971 95.7962 97.6422 93.2667L98.7691 85.0743C98.7691 85.0743 99.8474 93.0316 100.115 94.4869C100.382 95.9421 104.197 119.996 104.197 119.996C104.197 119.996 105.287 120.608 107.355 120.556C108.553 120.525 109.708 120.106 110.646 119.36C110.646 119.36 110.585 100.875 110.18 97.9446C109.775 95.0138 109.098 92.5168 108.964 90.5913C108.83 88.6658 108.392 77.4697 108.251 73.2904C108.092 68.6652 107.918 66.4722 106.357 61.8713C106.366 61.8673 90.3497 61.393 89.8835 64.4535Z" fill="#455A64"/>
<path d="M98.761 85.0742L97.176 73.8416C97.176 73.8416 93.8561 72.6255 92.5995 70.9595C93.2772 72.6071 94.5804 73.919 96.2234 74.6077L98.2502 85.2972L97.9462 91.1141L98.761 85.0742Z" fill="#37474F"/>
<path d="M91.6266 62.1064C93.8156 50.136 94.8695 46.8363 95.1735 44.1893C91.5253 44.0596 89.4498 45.5919 88.408 49.5644C87.9256 51.3967 87.0257 57.5095 86.3366 60.4727C84.78 63.7805 84.3098 67.595 82.6113 69.8326C82.332 70.206 81.9277 70.4664 81.4723 70.5663C80.4386 70.923 80.1264 71.4946 79.2792 72.0499C78.6185 72.4836 78.1321 72.5201 78.1604 72.7147C78.2181 72.9344 78.3566 73.1242 78.5483 73.246C78.7401 73.3678 78.9707 73.4126 79.1941 73.3714C79.6206 73.3162 80.0369 73.2001 80.4305 73.0268C79.9133 73.7179 79.302 74.3333 78.6144 74.855C76.993 76.1198 77.066 77.3885 79.6238 78.0006C81.225 78.3857 82.7208 77.3967 85.1367 74.4172C86.1068 73.1479 86.9564 71.7908 87.6743 70.3636C89.6849 66.5289 90.9861 64.5466 91.6266 62.1064Z" fill="#FFA8A7"/>
<path d="M99.1785 43.8326L104.979 44.3556C105.37 44.5257 105.744 44.7305 106.098 44.9677C107.249 45.9 107.334 47.716 107.529 49.0578C107.825 51.0846 106.374 57.2056 105.859 59.1189C105.859 59.1189 107.748 63.9832 107.926 67.745C102.948 70.6636 93.9858 71.6973 89.3119 67.8545C89.543 65.1588 90.528 60.9633 90.4997 60.8741C90.4064 58.8473 90.3254 57.0921 90.3254 57.0921C87.7797 54.5991 88.7039 51.871 89.5795 50.0793C91.3631 46.504 94.4884 44.4974 95.1735 44.1894L99.1785 43.8326Z" fill="#007BFF"/>
<path opacity="0.1" d="M94.9668 57.3595C94.9668 57.3595 96.4707 58.8594 99.2231 58.1095C100.034 57.8938 100.78 57.4818 101.394 56.9099C102.008 56.338 102.473 55.6237 102.746 54.8301C102.746 54.8301 103.078 57.8419 99.3366 58.8188C96.1302 59.6539 94.9668 57.3595 94.9668 57.3595Z" fill="black"/>
<path d="M121.907 73.8616C121.158 73.8295 120.411 73.9575 119.716 74.2371C119.02 74.5167 118.392 74.9415 117.874 75.4831C116.455 76.833 114.967 78.2436 112.961 80.2421L108.907 73.3022L105.664 75.852C106.67 78.4034 107.848 80.8832 109.191 83.2742C109.823 84.3322 110.938 86.7481 112.872 86.1117C114.696 85.4956 119.86 81.1906 119.86 81.1906L121.907 73.8616Z" fill="#F28F8F"/>
<path d="M108.903 73.2985L110.188 75.4955C109.718 76.128 109.051 76.586 108.292 76.7974C107.533 77.0088 106.726 76.9615 105.997 76.663L105.668 75.8523L108.903 73.2985Z" fill="#B16668"/>
<path d="M122.783 73.6227C120.533 73.5498 119.349 73.9389 117.712 75.4347C115.831 77.1453 113.443 79.541 113.443 79.541C113.957 81.2978 114.92 82.8904 116.236 84.1622L122.146 79.7356L122.783 73.6227Z" fill="#455A64"/>
<path d="M115.195 57.7122C110.553 47.6916 109.52 45.7013 107.614 44.8743C106.767 44.5704 105.879 44.3955 104.979 44.3555C104.323 45.5716 102.863 49.986 105.616 52.6654C105.616 52.6654 108.741 57.3474 110.152 59.8484C109.864 62.4347 109.422 66.2613 108.591 68.053C108.368 68.4634 108.018 68.7905 107.594 68.9853C106.613 69.4799 106.532 69.9623 105.721 70.5257C105.089 70.9635 104.59 71.0081 104.643 71.1986C104.736 71.4166 104.9 71.5967 105.108 71.7094C105.316 71.8221 105.557 71.8607 105.79 71.8188C106.217 71.7559 106.634 71.6331 107.027 71.454C106.572 72.1448 106.013 72.7603 105.369 73.2781C103.836 74.551 103.662 75.4752 106.378 76.0184C108.08 76.3589 109.56 75.6454 111.263 72.4188C111.912 71.2423 112.471 70.0187 112.937 68.7583C113.719 66.3869 114.911 63.3913 115.503 60.6794C115.855 59.0296 115.45 58.304 115.195 57.7122Z" fill="#FFA8A7"/>
<path d="M108.007 70.3798C109.491 70.7527 109.941 72.3134 108.725 73.1484C107.509 73.9835 105.044 73.5538 105.044 73.5538L104.505 74.1415C104.233 73.9105 104.586 72.6944 105.117 71.9242C105.721 71.0405 106.682 70.0433 108.007 70.3798Z" fill="#F28F8F"/>
<path d="M102.235 41.2423C103.26 40.3222 104.76 39.2885 105.721 37.7846C107.415 35.1254 107.233 31.2988 104.975 29.7341C104.975 27.9464 102.948 24.7846 98.0839 25.0116C97.3156 25.0504 96.5521 25.1548 95.8017 25.3237C95.0939 25.4968 94.3991 25.7189 93.7222 25.9885C92.839 26.2851 91.9084 26.4143 90.9778 26.3696C90.5198 26.3696 90.009 26.3169 89.6523 26.6087C89.5027 26.7554 89.3902 26.9356 89.3239 27.1343C89.2577 27.3331 89.2396 27.5447 89.2713 27.7518C89.3082 28.2139 89.4604 28.6593 89.7139 29.0474C89.9674 29.4355 90.3142 29.7538 90.7225 29.9732C90.5934 30.0749 90.4862 30.2017 90.4075 30.3459C90.3288 30.4901 90.2801 30.6488 90.2644 30.8123C90.171 31.3182 90.2361 31.8406 90.4509 32.3081C90.7927 32.8719 91.3053 33.3121 91.9142 33.5648C93.1628 34.2336 94.5369 34.4039 95.9273 34.5214C96.5111 34.5741 97.0988 34.6146 97.6826 34.6471C97.9235 34.6288 98.1658 34.6397 98.4041 34.6795L102.235 41.2423Z" fill="#455A64"/>
<path d="M104.732 34.6147C103.954 33.7432 102.652 33.804 101.728 34.9552C100.512 35.4133 99.3447 33.9012 99.7014 30.1679C97.0949 31.5137 92.8102 31.311 92.5548 29.4828C91.8049 30.934 91.3144 32.9365 91.3388 36.3294C91.3388 40.5289 92.7656 41.287 93.4466 41.5991C94.1277 41.9112 95.4735 42.0045 96.7382 41.7977L96.7017 44.3353C96.7017 44.3353 94.0344 46.5526 96.4666 46.8972C99.5109 47.335 102.142 44.4123 102.142 44.4123L102.324 38.4616C102.664 38.6207 103.045 38.6718 103.416 38.608C103.786 38.5443 104.128 38.3687 104.396 38.1049C105.36 37.0915 105.47 35.4376 104.732 34.6147Z" fill="#FFA8A7"/>
<path d="M103.232 38.0035C103.505 38.0035 103.727 37.7821 103.727 37.5089C103.727 37.2358 103.505 37.0144 103.232 37.0144C102.959 37.0144 102.738 37.2358 102.738 37.5089C102.738 37.7821 102.959 38.0035 103.232 38.0035Z" fill="#007BFF"/>
<path opacity="0.4" d="M103.232 38.0035C103.505 38.0035 103.727 37.7821 103.727 37.5089C103.727 37.2358 103.505 37.0144 103.232 37.0144C102.959 37.0144 102.738 37.2358 102.738 37.5089C102.738 37.7821 102.959 38.0035 103.232 38.0035Z" fill="black"/>
<path d="M93.8682 32.5595L92.5022 33.1514C92.4583 33.0643 92.4328 32.9692 92.4271 32.872C92.4214 32.7747 92.4358 32.6773 92.4692 32.5857C92.5026 32.4942 92.5544 32.4105 92.6215 32.3397C92.6885 32.269 92.7693 32.2127 92.8589 32.1744C93.0444 32.0965 93.2527 32.0931 93.4407 32.1648C93.6287 32.2365 93.7818 32.3779 93.8682 32.5595Z" fill="#263238"/>
<path d="M98.8704 33.3742L97.5165 32.7581C97.5502 32.6663 97.6024 32.5824 97.6699 32.5117C97.7374 32.4409 97.8187 32.3848 97.9088 32.3468C97.9989 32.3088 98.0958 32.2897 98.1936 32.2907C98.2914 32.2917 98.3879 32.3128 98.4772 32.3527C98.6633 32.4377 98.8087 32.5923 98.8822 32.7833C98.9557 32.9742 98.9514 33.1864 98.8704 33.3742Z" fill="#263238"/>
<path d="M97.0502 34.7849C97.0283 34.9488 97.0723 35.1147 97.1727 35.2462C97.273 35.3777 97.4214 35.464 97.5853 35.4862C97.7509 35.4998 97.9154 35.448 98.0434 35.342C98.1714 35.2359 98.2529 35.084 98.2703 34.9187C98.2902 34.8338 98.2918 34.7457 98.2751 34.6602C98.2583 34.5746 98.2237 34.4936 98.1733 34.4225C98.123 34.3514 98.0581 34.2917 97.983 34.2475C97.908 34.2033 97.8244 34.1755 97.7377 34.1659C97.6511 34.1564 97.5634 34.1654 97.4805 34.1922C97.3976 34.219 97.3213 34.2632 97.2568 34.3217C97.1922 34.3802 97.1407 34.4517 97.1058 34.5316C97.0709 34.6114 97.0533 34.6977 97.0542 34.7849H97.0502Z" fill="#263238"/>
<path d="M92.6561 34.4687C92.6481 34.5803 92.6731 34.6919 92.728 34.7895C92.7828 34.8871 92.8652 34.9664 92.9647 35.0176C93.0642 35.0688 93.1766 35.0897 93.2879 35.0776C93.3992 35.0655 93.5045 35.021 93.5908 34.9496C93.677 34.8782 93.7403 34.7831 93.773 34.676C93.8056 34.5689 93.8061 34.4546 93.7743 34.3472C93.7425 34.2399 93.68 34.1442 93.5943 34.0721C93.5087 34 93.4037 33.9547 93.2925 33.9417C93.2161 33.9344 93.1391 33.9423 93.0657 33.9649C92.9923 33.9875 92.9242 34.0243 92.865 34.0732C92.8059 34.1222 92.7571 34.1823 92.7212 34.2501C92.6854 34.318 92.6632 34.3923 92.6561 34.4687Z" fill="#263238"/>
<path d="M95.5583 34.1566L95.4773 37.6265L93.4261 37.1685L95.5583 34.1566Z" fill="#F28F8F"/>
<path d="M97.4801 38.2101L95.7614 38.6398C95.7844 38.753 95.8298 38.8604 95.895 38.9558C95.9601 39.0512 96.0437 39.1327 96.1407 39.1953C96.2378 39.258 96.3463 39.3007 96.4601 39.3208C96.5738 39.341 96.6905 39.3382 96.8031 39.3127C97.0378 39.254 97.2402 39.1057 97.3667 38.8996C97.4933 38.6934 97.534 38.4459 97.4801 38.2101Z" fill="#F28F8F"/>
<path d="M96.726 41.7895C97.942 41.6314 100.488 40.9139 100.885 39.9167C100.726 40.4217 100.416 40.8658 99.9972 41.1896C99.2352 41.8341 96.7341 42.5638 96.7341 42.5638L96.726 41.7895Z" fill="#F28F8F"/>
<path d="M134.558 130.451C133.468 130.986 132.211 130.897 130.955 130.321L130.176 123.393L134.956 121.488L134.558 130.451Z" fill="#F28F8F"/>
<path d="M126.431 136.859C126.309 137.207 126.309 137.586 126.431 137.934C126.565 138.157 127.339 138.87 128.782 139.024C130.164 139.174 131.405 139.024 132.236 138.542C132.594 138.373 132.905 138.118 133.14 137.8C133.376 137.481 133.529 137.109 133.586 136.718C133.687 135.931 133.626 135.169 134.028 134.573C134.429 133.977 134.968 133.414 135.098 133.118C135.266 132.594 135.29 132.033 135.167 131.496L126.431 136.859Z" fill="#263238"/>
<path d="M130.472 130.106C130.44 130.402 130.372 130.693 130.27 130.973C130.038 131.576 129.733 132.148 129.362 132.676C129.18 132.96 128.978 133.231 128.758 133.487C128.32 133.969 127.785 134.358 127.327 134.82C126.838 135.255 126.514 135.845 126.411 136.49C126.313 137.573 127.477 137.982 128.381 138.177C129.355 138.383 130.364 138.368 131.332 138.132C131.84 138.02 132.306 137.762 132.671 137.391C133.036 137.02 133.287 136.551 133.391 136.04C133.452 135.745 133.444 135.432 133.492 135.132C133.637 134.444 133.95 133.801 134.404 133.264C134.666 132.952 134.894 132.614 135.085 132.254C135.393 131.594 135.195 130.827 135.037 130.155C134.903 129.571 134.907 129.064 134.631 129.072V129.388C134.558 129.51 134.441 129.51 134.348 129.68C134.254 129.851 134.23 129.94 134.153 130.086C134.044 130.304 133.87 130.482 133.654 130.596C133.654 130.191 133.654 129.786 133.654 129.38C133.668 129.253 133.638 129.124 133.569 129.016C133.478 128.924 133.358 128.867 133.229 128.853C132.476 128.645 131.695 128.552 130.914 128.578C130.796 128.576 130.683 128.621 130.598 128.703C130.549 128.786 130.528 128.883 130.537 128.979C130.537 129.356 130.515 129.732 130.472 130.106Z" fill="#455A64"/>
<path d="M129.208 132.899C129.613 132.611 130.529 132.639 131.02 132.712C131.522 132.77 132.001 132.957 132.41 133.256C132.47 133.299 132.542 133.32 132.616 133.317C132.69 133.313 132.76 133.284 132.815 133.235C132.849 133.207 132.877 133.172 132.895 133.132C132.914 133.092 132.924 133.048 132.924 133.004C132.924 132.96 132.914 132.917 132.895 132.877C132.877 132.837 132.849 132.801 132.815 132.773C132.365 132.418 131.825 132.196 131.255 132.133C130.039 132.003 129.674 132.198 129.674 132.198C129.674 132.198 129.102 132.534 129.208 132.899Z" fill="#F5F5F5"/>
<path d="M128.239 133.977C128.758 133.698 129.751 133.775 130.245 133.848C130.737 133.915 131.203 134.111 131.595 134.415C131.652 134.462 131.724 134.487 131.798 134.487C131.872 134.487 131.943 134.462 132.001 134.415C132.035 134.387 132.062 134.351 132.081 134.311C132.1 134.27 132.109 134.226 132.109 134.182C132.109 134.138 132.1 134.094 132.081 134.053C132.062 134.013 132.035 133.977 132.001 133.949C131.542 133.576 130.989 133.337 130.404 133.26C129.187 133.13 128.863 133.369 128.863 133.369C128.72 133.417 128.59 133.497 128.482 133.602C128.374 133.707 128.291 133.836 128.239 133.977Z" fill="#F5F5F5"/>
<path d="M131.778 130.982C131.268 130.873 130.738 130.9 130.241 131.059C130.023 131.168 129.869 131.504 130.002 131.594C130.439 131.435 130.909 131.388 131.368 131.456C131.822 131.517 132.262 131.654 132.67 131.861C132.784 131.916 132.895 131.977 133.002 132.044C133.036 132.064 133.073 132.077 133.112 132.082C133.151 132.088 133.19 132.085 133.228 132.075C133.266 132.065 133.301 132.047 133.332 132.023C133.363 131.999 133.388 131.968 133.407 131.934C133.437 131.874 133.445 131.805 133.427 131.74C133.41 131.675 133.37 131.619 133.314 131.581C132.85 131.275 132.327 131.07 131.778 130.982Z" fill="#F5F5F5"/>
<path d="M123.484 126.012C122.925 127.042 120.403 127.277 119.682 125.927L119.378 119.1L124.015 119.202L123.484 126.012Z" fill="#F28F8F"/>
<path d="M111.931 130.232C111.817 130.545 111.828 130.891 111.964 131.196C112.093 131.484 113.553 132.348 115.547 132.254C117.025 132.184 118.457 131.718 119.694 130.905C120.464 130.418 121.259 130.341 122.244 130.309C123.229 130.276 124.343 129.806 124.57 129.348C124.694 128.938 124.694 128.501 124.57 128.091L111.931 130.232Z" fill="#263238"/>
<path d="M120.067 124.293L119.552 124.094C119.462 124.048 119.359 124.033 119.26 124.054C119.13 124.098 119.078 124.248 119.041 124.378C118.986 124.672 118.908 124.961 118.806 125.242C118.653 125.466 118.459 125.66 118.235 125.813C117.731 126.202 117.188 126.535 116.613 126.806C115.956 127.143 115.312 127.402 114.635 127.69C113.958 127.978 113.014 128.152 112.487 128.501C111.676 129.012 111.562 130.333 112.442 130.872C113.2 131.342 115.211 131.873 117.343 131.318C118.506 131.014 119.811 129.81 121.332 129.725C122.296 129.668 123.93 129.433 124.574 128.716C124.814 128.395 124.53 127.362 124.295 126.466C124.043 125.489 123.97 123.973 123.646 124.034C123.618 124.358 123.334 124.536 123.16 124.804C123.021 125.049 122.899 125.304 122.795 125.566C122.677 125.821 122.714 126.081 122.475 126.223C122.356 126.299 122.215 126.335 122.073 126.324C121.932 126.313 121.798 126.256 121.692 126.162C121.417 125.862 121.595 125.351 121.396 124.994C121.23 124.768 120.991 124.606 120.719 124.536L120.067 124.293Z" fill="#455A64"/>
<path d="M117.529 126.287C117.601 126.156 117.705 126.045 117.831 125.964C117.957 125.883 118.101 125.836 118.251 125.825C118.693 125.752 119.467 126.093 119.933 126.498C119.977 126.537 120.012 126.586 120.033 126.641C120.055 126.695 120.063 126.755 120.056 126.813C120.05 126.872 120.03 126.928 119.997 126.977C119.964 127.026 119.92 127.066 119.868 127.094C119.803 127.127 119.729 127.14 119.656 127.13C119.584 127.12 119.516 127.087 119.463 127.037C118.94 126.546 118.247 126.277 117.529 126.287Z" fill="#F5F5F5"/>
<path d="M116.155 127.017C116.155 126.9 116.439 126.571 117.006 126.612C117.682 126.656 118.326 126.913 118.847 127.346C118.889 127.383 118.921 127.43 118.942 127.482C118.962 127.535 118.97 127.591 118.964 127.647C118.958 127.703 118.938 127.757 118.908 127.804C118.877 127.851 118.835 127.89 118.786 127.917C118.721 127.952 118.647 127.966 118.575 127.956C118.502 127.947 118.434 127.915 118.38 127.864C118.097 127.566 117.749 127.334 117.364 127.188C116.979 127.041 116.566 126.983 116.155 127.017Z" fill="#F5F5F5"/>
<path d="M114.639 127.674C114.75 127.551 114.887 127.454 115.04 127.389C115.192 127.324 115.357 127.292 115.523 127.297C116.173 127.352 116.789 127.612 117.282 128.039C117.325 128.075 117.358 128.122 117.379 128.175C117.4 128.227 117.408 128.284 117.402 128.34C117.396 128.397 117.376 128.451 117.345 128.498C117.313 128.545 117.271 128.583 117.221 128.61C117.157 128.646 117.083 128.66 117.01 128.65C116.937 128.641 116.869 128.608 116.816 128.557C116.546 128.252 116.209 128.013 115.831 127.86C115.454 127.706 115.046 127.643 114.639 127.674Z" fill="#F5F5F5"/>
<path d="M133.825 90.9884C133.825 90.9884 134.129 95.042 134.23 97.4134C134.331 99.7848 134.558 108.245 134.842 109.226C135.985 113.178 135.211 119.303 135.069 126.944C135.069 126.944 132.438 128.063 130.177 127.037C130.177 127.037 127.744 112.282 127.274 109.736C126.804 107.191 125.985 102.44 125.985 102.44C125.985 102.44 125.28 108.666 125.211 109.684C125.701 114.459 125.041 116.38 124.076 122.295C124.076 122.295 123.265 122.854 121.263 122.619C119.26 122.384 118.944 121.646 118.944 121.646C118.944 121.646 118.567 108.707 118.429 106.161C118.291 103.615 118.093 94.3043 118.429 90.9884H133.825Z" fill="#455A64"/>
<path d="M125.989 102.44L125.584 99.8984C125.584 99.8984 122.199 99.6227 120.719 97.9324C120.719 97.9324 121.214 100.154 124.773 100.502L125.219 102.955V109.684L125.989 102.44Z" fill="#37474F"/>
<path d="M132.159 74.2835C132.406 75.3455 133.918 79.3546 133.922 79.2978L133.642 87.7253L134.226 94.1138C132.122 96.6028 123.079 97.6162 118.121 94.3044C118.121 94.3044 118.048 81.9692 118.307 79.5329C118.753 75.3009 120.221 73.8578 122.766 73.6146L128.588 73.8822L132.159 74.2835Z" fill="#007BFF"/>
<path d="M139.622 86.8698C136.569 76.0588 134.709 75.2156 132.576 74.5792C132.147 75.6697 131.36 76.8736 131.863 80.0192C132.43 81.5393 134.615 86.0226 135.373 88.5318C135.604 89.2898 135.799 93.6151 135.532 95.9946C135.419 96.5081 135.17 96.9816 134.81 97.3647C134.206 98.0741 134.234 98.7145 133.776 99.4401C133.318 100.166 133.282 100.283 133.371 100.413C133.46 100.543 133.829 100.656 134.344 100.364C134.763 100.123 135.109 99.7732 135.345 99.351C135.177 100.188 134.938 101.01 134.632 101.807C133.987 103.429 134.757 104.584 136.691 103.469C138.069 102.659 138.941 101.925 139.423 98.6821C139.614 97.4012 139.828 95.7392 139.873 94.5434C140.136 89.7682 140.209 88.9493 139.622 86.8698Z" fill="#F28F8F"/>
<path d="M132.159 74.2833C132.159 74.2833 134.591 74.3279 135.726 76.0953C137.137 78.3207 138.989 83.9147 138.989 83.9147C138.372 84.564 137.621 85.0716 136.788 85.4024C135.949 85.7596 135.045 85.939 134.133 85.9294L132.021 81.0407C131.444 80.0028 131.153 78.8305 131.177 77.6434C131.202 76.4563 131.54 75.2968 132.159 74.2833Z" fill="#455A64"/>
<path d="M118.656 63.278C118.656 63.7111 118.785 64.1344 119.025 64.4945C119.266 64.8546 119.608 65.1351 120.008 65.3007C120.409 65.4662 120.849 65.5093 121.274 65.4246C121.698 65.3398 122.088 65.1309 122.394 64.8243C122.7 64.5178 122.908 64.1274 122.992 63.7025C123.076 63.2776 123.033 62.8374 122.866 62.4375C122.7 62.0376 122.419 61.696 122.058 61.4559C121.698 61.2159 121.274 61.0882 120.841 61.089C120.554 61.089 120.269 61.1456 120.004 61.2557C119.739 61.3657 119.498 61.5271 119.295 61.7304C119.092 61.9337 118.931 62.175 118.821 62.4406C118.712 62.7061 118.656 62.9907 118.656 63.278Z" fill="#263238"/>
<path d="M131.141 66.6747C131.141 66.6747 130.432 69.9946 130.152 70.5418C129.963 70.8792 129.651 71.1305 129.281 71.2431L129.503 68.5475L131.141 66.6747Z" fill="#263238"/>
<path d="M130.213 61.6484C130.479 61.6002 130.752 61.6288 131.002 61.7308C131.252 61.8327 131.468 62.0038 131.624 62.224C132.147 62.8685 131.867 64.8507 131.141 66.683L129.808 66.837L130.213 61.6484Z" fill="#263238"/>
<path d="M119.297 66.5815C119.231 67.1316 119.205 67.6857 119.22 68.2395C119.202 68.8124 119.297 69.3832 119.501 69.919C119.705 70.4547 120.013 70.9448 120.407 71.3607C121.283 72.2647 122.507 72.5525 123.719 72.5444H124.007L123.906 74.1659C121.417 76.7521 127.813 77.0561 129.281 74.3077L129.504 68.5718C129.677 68.7802 129.916 68.9245 130.181 68.9818C130.446 69.0391 130.723 69.0061 130.967 68.888C131.62 68.6448 132.589 67.5098 132.062 66.3059C131.934 66.0593 131.723 65.866 131.466 65.7606C131.209 65.6552 130.923 65.6444 130.659 65.7303C130.075 65.8883 129.739 66.6666 129.038 66.5694C128.336 66.4721 129.492 65.1303 129.289 64.7006C128.944 63.9548 128.154 60.6916 121.149 61.4294C120.294 62.0131 120.184 62.0577 119.718 64.0156C119.515 64.8593 119.374 65.717 119.297 66.5815Z" fill="#F28F8F"/>
<path d="M125.458 58.4418C125.447 58.3089 125.409 58.1796 125.346 58.0623C125.282 57.945 125.195 57.8423 125.089 57.7608C124.897 57.6035 124.675 57.4884 124.436 57.4232C124.196 57.358 123.946 57.344 123.701 57.3823C123.456 57.4206 123.222 57.5102 123.014 57.6453C122.806 57.7804 122.629 57.9579 122.495 58.1662C122.189 57.9716 121.83 57.8755 121.468 57.8908C121.106 57.906 120.757 58.0318 120.468 58.2513C120.221 58.4312 120.038 58.6863 119.947 58.9785C119.857 59.2707 119.863 59.5844 119.965 59.8727C119.284 59.7673 118.818 60.3673 118.648 60.8375C118.519 61.263 118.552 61.7213 118.74 62.1239C118.929 62.5266 119.26 62.8453 119.669 63.0184C120.245 63.2778 121.198 63.0184 121.339 62.613C121.418 62.939 121.613 63.225 121.888 63.4175C122.163 63.6101 122.498 63.6958 122.831 63.6588C123.072 63.656 123.308 63.5882 123.513 63.4627C123.719 63.3371 123.886 63.1584 123.999 62.9454C124.368 63.7561 125.503 63.6548 125.77 63.598C126.036 63.5529 126.287 63.4422 126.499 63.2759C126.711 63.1095 126.879 62.8928 126.986 62.6454C126.923 63.2306 127.054 63.8201 127.359 64.3236C127.525 64.5641 127.745 64.7626 128.001 64.9033C128.257 65.044 128.543 65.1231 128.835 65.1344C128.672 65.6696 128.609 66.2302 128.648 66.7882C128.64 66.909 128.663 67.0299 128.714 67.1397C128.765 67.2495 128.843 67.3447 128.94 67.4165C129.204 67.5503 129.451 67.3071 129.621 67.0679C129.791 66.8288 129.909 66.1964 130.452 65.7789C130.817 65.4951 130.578 65.1668 130.566 64.8182C130.575 64.1583 130.642 63.5006 130.764 62.8522C130.866 62.086 131.149 61.6361 130.866 60.7159C130.799 60.4791 130.683 60.2589 130.526 60.0697C130.369 59.8804 130.174 59.7263 129.953 59.6174C129.5 59.4473 129 59.4473 128.547 59.6174C128.529 59.3582 128.455 59.1061 128.33 58.8783C128.205 58.6506 128.032 58.4528 127.823 58.2985C127.614 58.1443 127.374 58.0374 127.12 57.9851C126.865 57.9328 126.603 57.9365 126.35 57.9959C126.017 58.059 125.708 58.2134 125.458 58.4418Z" fill="#263238"/>
<path d="M124.007 72.5363C124.007 72.5363 126.131 72.3458 127.404 71.4459C127.956 70.9986 128.416 70.4478 128.758 69.8245C128.645 70.4681 128.396 71.0802 128.028 71.6202C126.873 72.9822 123.974 73.2944 123.974 73.2944L124.007 72.5363Z" fill="#B16668"/>
<path d="M124.708 66.6301C124.71 66.7381 124.743 66.8432 124.804 66.9324C124.865 67.0216 124.95 67.091 125.05 67.1319C125.15 67.1728 125.26 67.1835 125.366 67.1626C125.472 67.1417 125.569 67.0902 125.646 67.0144C125.723 66.9386 125.776 66.8418 125.799 66.7362C125.821 66.6306 125.812 66.5207 125.772 66.4202C125.733 66.3197 125.665 66.233 125.577 66.1708C125.488 66.1087 125.384 66.0739 125.276 66.0707C125.202 66.0702 125.128 66.0842 125.06 66.112C124.991 66.1399 124.929 66.1809 124.876 66.2329C124.823 66.2848 124.781 66.3466 124.753 66.4148C124.724 66.4829 124.709 66.5561 124.708 66.6301Z" fill="#263238"/>
<path d="M126.147 65.4384L125.045 65.033C125.064 64.9514 125.1 64.8747 125.151 64.8081C125.202 64.7415 125.266 64.6865 125.34 64.6467C125.414 64.6069 125.495 64.5833 125.579 64.5773C125.663 64.5713 125.747 64.5832 125.825 64.6122C125.904 64.6411 125.976 64.6864 126.035 64.7451C126.095 64.8038 126.142 64.8746 126.172 64.9527C126.203 65.0308 126.216 65.1145 126.212 65.1982C126.208 65.282 126.186 65.3638 126.147 65.4384Z" fill="#263238"/>
<path d="M121.222 64.7048L120.119 65.1751C120.065 65.0304 120.069 64.8704 120.13 64.7285C120.19 64.5865 120.304 64.4734 120.446 64.4128C120.588 64.3522 120.748 64.3488 120.892 64.4032C121.037 64.4576 121.155 64.5656 121.222 64.7048Z" fill="#263238"/>
<path d="M120.415 66.2978C120.411 66.3714 120.422 66.445 120.447 66.5144C120.472 66.5837 120.511 66.6474 120.561 66.7018C120.61 66.7561 120.67 66.8 120.737 66.8308C120.804 66.8617 120.877 66.8789 120.95 66.8815C121.025 66.8837 121.099 66.871 121.169 66.8441C121.239 66.8173 121.303 66.7768 121.356 66.7252C121.41 66.6735 121.454 66.6116 121.483 66.5431C121.513 66.4746 121.529 66.4009 121.53 66.3262C121.533 66.1799 121.478 66.0384 121.377 65.9328C121.276 65.8271 121.137 65.7659 120.991 65.7627C120.845 65.7595 120.703 65.8145 120.598 65.9156C120.492 66.0167 120.431 66.1556 120.427 66.3018L120.415 66.2978Z" fill="#263238"/>
<path d="M123.022 66.1803L122.982 68.6652L121.441 68.3287L123.022 66.1803Z" fill="#B16668"/>
<path d="M124.899 69.2042L123.427 69.7555C123.46 69.8543 123.511 69.9455 123.58 70.0239C123.648 70.1023 123.731 70.1662 123.824 70.212C123.918 70.2577 124.019 70.2842 124.123 70.2901C124.227 70.2959 124.331 70.2809 124.428 70.246C124.629 70.1697 124.79 70.0173 124.878 69.8221C124.967 69.6269 124.974 69.4048 124.899 69.2042Z" fill="#B16668"/>
<path d="M85.8917 134.557C79.9577 131.133 70.3492 131.133 64.423 134.557C62.0775 135.91 60.6781 137.599 60.1856 139.35C54.5252 142.782 54.6034 148.216 60.4357 151.585C66.2681 154.955 75.9782 155.01 81.9044 151.585C84.2499 150.233 85.6493 148.544 86.1419 146.793C91.8022 143.361 91.724 137.927 85.8917 134.557Z" fill="#E0E0E0"/>
<path d="M83.3508 139.311C83.2752 139.079 83.1811 138.854 83.0694 138.638C82.9756 138.458 82.8712 138.283 82.7566 138.114C82.2284 137.338 81.5571 136.669 80.7787 136.144V138.177L79.0274 137.161V135.128C74.1488 132.821 66.9405 132.986 62.3903 135.613C60.8451 136.391 59.6362 137.706 58.9894 139.311C58.9495 139.421 58.9156 139.533 58.8878 139.647C58.8013 139.984 58.7567 140.331 58.7549 140.679V144.736C58.7706 145.708 59.0875 146.65 59.6618 147.434C60.3944 148.4 61.3245 149.2 62.3903 149.779C67.2376 152.578 75.1027 152.578 79.9421 149.779C82.3736 148.38 83.5854 146.542 83.5854 144.713V140.655C83.5824 140.197 83.5031 139.743 83.3508 139.311Z" fill="#F0F0F0"/>
<path d="M75.0636 133.838C70.7479 133.056 65.8225 133.603 62.3903 135.581C60.8451 136.36 59.6362 137.675 58.9894 139.279C58.9495 139.39 58.9156 139.502 58.8878 139.616C58.8013 139.953 58.7567 140.299 58.7549 140.648V144.705C58.7706 145.677 59.0875 146.619 59.6618 147.402C60.3944 148.369 61.3245 149.169 62.3903 149.748C65.8225 151.726 70.7558 152.297 75.0636 151.476V133.838Z" fill="#EBEBEB"/>
<path d="M62.3902 135.605C57.84 138.232 57.5664 142.391 61.5615 145.206L79.0273 135.12C74.1487 132.814 66.9873 132.978 62.3902 135.605Z" fill="white"/>
<path d="M61.5615 144.142C61.5615 144.142 56.7299 140.444 62.0932 135.785C57.8323 138.419 57.6525 142.454 61.5615 145.206L79.0273 135.12L61.5615 144.142Z" fill="#F5F5F5"/>
<path d="M80.7784 136.136L63.3126 146.222C68.1912 148.567 75.3995 148.364 79.9497 145.737C84.4998 143.11 84.7735 138.951 80.7784 136.136Z" fill="white"/>
<path d="M63.3126 146.222C68.1912 148.567 75.3995 148.364 79.9497 145.737C80.4552 145.449 80.934 145.117 81.3804 144.744C72.4521 149.216 65.2672 146.066 65.2672 146.066L80.7784 136.136L63.3126 146.222Z" fill="#F5F5F5"/>
<path d="M79.0274 137.153L61.5616 147.285V145.206L79.0274 135.12V137.153Z" fill="#E0E0E0"/>
<path opacity="0.2" d="M63.3129 146.222L63.3207 148.294L61.5616 147.285L63.3129 146.222Z" fill="black"/>
<path d="M88.2139 132.798C88.1416 132.566 88.0474 132.341 87.9324 132.126C87.8416 131.944 87.737 131.768 87.6197 131.602C87.0914 130.826 86.4201 130.157 85.6417 129.632V131.665L83.8904 130.648V128.615C79.0119 126.309 71.8035 126.473 67.2534 129.1C65.7082 129.879 64.4993 131.193 63.8525 132.798C63.8125 132.908 63.7786 133.021 63.7508 133.134C63.6644 133.472 63.6197 133.818 63.6179 134.166V138.224C63.6359 139.196 63.9556 140.139 64.5326 140.921C65.2603 141.89 66.1883 142.69 67.2534 143.267C72.1006 146.066 79.9657 146.066 84.813 143.267C87.2366 141.867 88.4484 140.03 88.4484 138.201V134.143C88.4454 133.685 88.3661 133.23 88.2139 132.798Z" fill="#F0F0F0"/>
<path d="M79.9266 127.357C75.6188 126.575 70.6855 127.122 67.2534 129.1C65.7082 129.879 64.4993 131.194 63.8525 132.798C63.8125 132.908 63.7786 133.021 63.7508 133.135C63.6644 133.472 63.6197 133.818 63.6179 134.167V138.224C63.6359 139.196 63.9556 140.139 64.5326 140.921C65.2603 141.89 66.1883 142.69 67.2534 143.267C70.6855 145.245 75.6188 145.816 79.9266 144.995V127.357Z" fill="#EBEBEB"/>
<path d="M67.2535 129.1C62.7033 131.727 62.4297 135.886 66.4248 138.701L83.8906 128.615C79.012 126.309 71.8115 126.473 67.2535 129.1Z" fill="white"/>
<path d="M66.4247 137.638C66.4247 137.638 61.5931 133.94 66.9563 129.28C62.6954 131.915 62.5156 135.949 66.4247 138.701L83.8905 128.616L66.4247 137.638Z" fill="#F5F5F5"/>
<path d="M85.6414 129.632L68.1757 139.718C73.0542 142.063 80.2625 141.86 84.8127 139.233C89.3629 136.606 89.66 132.447 85.6414 129.632Z" fill="white"/>
<path d="M68.1757 139.718C73.0542 142.063 80.2625 141.86 84.8127 139.233C85.3194 138.943 85.8007 138.611 86.2513 138.24C77.3151 142.712 70.1302 139.561 70.1302 139.561L85.6414 129.632L68.1757 139.718Z" fill="#F5F5F5"/>
<path d="M83.8906 130.648L66.4248 140.781V138.701L83.8906 128.616V130.648Z" fill="#E0E0E0"/>
<path opacity="0.2" d="M68.1761 139.717L68.1839 141.789L66.4248 140.781L68.1761 139.717Z" fill="black"/>
<path d="M31.7239 139.334L36.0864 136.824L42.1064 133.337C43.3956 132.684 44.8205 132.344 46.2657 132.344C47.7109 132.344 49.1358 132.684 50.425 133.337C52.7079 134.666 52.7001 136.809 50.425 138.13L44.405 141.593L40.0581 144.119C38.7703 144.772 37.3467 145.112 35.9027 145.112C34.4588 145.112 33.0351 144.772 31.7474 144.119C29.4176 142.805 29.4254 140.655 31.7239 139.334Z" fill="#E0E0E0"/>
<path d="M53.6759 151.32L49.3134 148.803L43.3403 145.339C42.0525 144.686 40.6289 144.346 39.1849 144.346C37.741 144.346 36.3173 144.686 35.0296 145.339C32.7388 146.668 32.7467 148.818 35.0296 150.14L41.0417 153.603L45.3965 156.121C46.6842 156.774 48.1079 157.114 49.5518 157.114C50.9958 157.114 52.4194 156.774 53.7072 156.121C55.9901 154.792 55.9744 152.626 53.6759 151.32Z" fill="#E0E0E0"/>
<path d="M42.6303 140.373C42.9734 140.126 43.2452 139.793 43.4182 139.407C43.5912 139.022 43.6592 138.597 43.6153 138.176C43.5505 137.001 43.2104 135.857 42.6224 134.837C42.0344 133.818 41.2149 132.95 40.2301 132.305C39.8896 132.054 39.4874 131.899 39.0662 131.858C38.6451 131.817 38.2206 131.89 37.8377 132.071L33.5065 134.565C32.9348 134.865 32.4298 135.279 32.0216 135.779C31.6134 136.28 31.3105 136.858 31.131 137.478C30.9515 138.099 30.899 138.749 30.9768 139.391C31.0547 140.032 31.2611 140.651 31.5838 141.21C31.9065 141.77 32.3388 142.259 32.8549 142.647C33.371 143.036 33.9602 143.316 34.5872 143.472C35.2142 143.627 35.8661 143.654 36.5039 143.552C37.1417 143.449 37.7523 143.219 38.299 142.875L42.6303 140.373Z" fill="#F5F5F5"/>
<path d="M48.6267 136.863C49.6771 136.202 50.4306 135.16 50.7293 133.955C51.0279 132.751 50.8484 131.477 50.2284 130.402C49.6084 129.327 48.5962 128.534 47.404 128.189C46.2118 127.844 44.9324 127.974 43.8342 128.552L37.8376 132.039C38.2205 131.859 38.645 131.786 39.0662 131.827C39.4873 131.868 39.8895 132.023 40.23 132.274C41.2148 132.919 42.0343 133.786 42.6223 134.806C43.2103 135.826 43.5504 136.97 43.6153 138.145C43.6591 138.566 43.5911 138.99 43.4181 139.376C43.2451 139.762 42.9733 140.095 42.6302 140.342L48.6267 136.863Z" fill="#007BFF"/>
<path opacity="0.4" d="M47.579 129.827C47.8226 130.249 47.8886 130.75 47.7625 131.221C47.6364 131.691 47.3286 132.093 46.9066 132.336L39.6513 136.543C39.0421 135.529 38.7004 134.378 38.6584 133.196C38.6584 133.087 38.6584 132.978 38.6584 132.868L45.0537 129.154C45.2633 129.031 45.4952 128.951 45.7361 128.918C45.9769 128.885 46.2219 128.901 46.4567 128.963C46.6916 129.026 46.9117 129.134 47.1044 129.283C47.297 129.431 47.4583 129.616 47.579 129.827Z" fill="white"/>
<path d="M42.6303 140.373C42.9734 140.126 43.2452 139.793 43.4182 139.407C43.5912 139.022 43.6592 138.597 43.6153 138.176C43.5505 137.001 43.2104 135.857 42.6224 134.837C42.0344 133.818 41.2149 132.95 40.2301 132.305C39.8896 132.054 39.4874 131.899 39.0662 131.858C38.6451 131.817 38.2206 131.89 37.8377 132.071L33.5065 134.565C32.9348 134.865 32.4298 135.279 32.0216 135.779C31.6134 136.28 31.3105 136.858 31.131 137.478C30.9515 138.099 30.899 138.749 30.9768 139.391C31.0547 140.032 31.2611 140.651 31.5838 141.21C31.9065 141.77 32.3388 142.259 32.8549 142.647C33.371 143.036 33.9602 143.316 34.5872 143.472C35.2142 143.627 35.8661 143.654 36.5039 143.552C37.1417 143.449 37.7523 143.219 38.299 142.875L42.6303 140.373Z" fill="#F5F5F5"/>
<path opacity="0.1" d="M40.23 132.274C41.2148 132.919 42.0343 133.787 42.6223 134.807C43.2103 135.826 43.5504 136.97 43.6153 138.146C43.6591 138.566 43.5911 138.991 43.4181 139.377C43.2451 139.762 42.9733 140.096 42.6302 140.343L42.9664 140.139L43.2322 139.991C43.5783 139.748 43.8526 139.417 44.026 139.032C44.1994 138.646 44.2655 138.221 44.2173 137.802C44.1543 136.626 43.8149 135.481 43.2267 134.461C42.6385 133.441 41.8181 132.574 40.832 131.93C40.4915 131.679 40.0893 131.524 39.6681 131.483C39.247 131.442 38.8225 131.515 38.4396 131.696L37.8376 132.04C38.2205 131.859 38.645 131.786 39.0662 131.827C39.4873 131.868 39.8895 132.023 40.23 132.274Z" fill="black"/>
<path d="M31.114 138.208C31.0136 139.09 31.1601 139.983 31.5372 140.786C31.9143 141.59 32.5072 142.273 33.2498 142.759C33.9924 143.246 34.8555 143.516 35.7429 143.541C36.6303 143.566 37.5071 143.343 38.2755 142.899L42.6302 140.366C42.9734 140.119 43.2452 139.785 43.4181 139.4C43.5911 139.014 43.6591 138.589 43.6153 138.169C43.6109 137.672 43.5426 137.178 43.412 136.699L36.1333 140.913C33.7409 142.266 31.161 139.779 31.114 138.208Z" fill="#EBEBEB"/>
<path d="M32.7713 138.396C32.8912 138.604 33.0511 138.787 33.2418 138.934C33.4326 139.081 33.6504 139.188 33.8828 139.251C34.1152 139.313 34.3576 139.329 34.5962 139.298C34.8348 139.267 35.0648 139.188 35.2732 139.068L42.6301 134.815C42.0564 133.78 41.2309 132.906 40.2299 132.274L39.9406 132.125L33.4437 135.886C33.234 136.006 33.0502 136.166 32.9027 136.357C32.7553 136.549 32.6472 136.767 32.5847 137.001C32.5222 137.234 32.5065 137.477 32.5385 137.717C32.5705 137.956 32.6497 138.187 32.7713 138.396Z" fill="white"/>
<path opacity="0.1" d="M50.0494 129.811C49.9964 129.737 49.939 129.667 49.8774 129.6C49.8373 129.547 49.7928 129.497 49.7445 129.451C49.6991 129.396 49.6494 129.343 49.596 129.295L49.4318 129.139C49.3995 129.117 49.3706 129.091 49.3458 129.061C49.0891 128.846 48.8115 128.657 48.5171 128.498L48.1965 128.341C49.5412 129.123 50.3934 132.649 48.0011 134.033C47.2192 134.502 45.9605 135.237 43.4353 136.691C43.5658 137.17 43.6341 137.664 43.6385 138.161C43.6824 138.581 43.6143 139.006 43.4414 139.392C43.2684 139.778 42.9966 140.111 42.6534 140.358L48.65 136.879C49.1968 136.565 49.6764 136.147 50.061 135.647C50.4456 135.148 50.7278 134.577 50.8912 133.969C51.0547 133.36 51.0962 132.725 51.0135 132.1C50.9307 131.475 50.7253 130.872 50.409 130.327C50.3375 130.196 50.2565 130.071 50.1667 129.952L50.0494 129.811Z" fill="black"/>
<path d="M42.7779 152.321C42.4303 152.08 42.1545 151.749 41.9797 151.363C41.8049 150.978 41.7376 150.552 41.785 150.132C41.848 148.956 42.1873 147.812 42.7755 146.791C43.3637 145.771 44.1842 144.904 45.1703 144.261C45.5116 144.008 45.9152 143.852 46.3379 143.811C46.7606 143.77 47.1866 143.844 47.5704 144.026L51.9252 146.543C52.9923 147.197 53.7618 148.242 54.0697 149.455C54.3776 150.668 54.1997 151.954 53.5737 153.037C52.9477 154.121 51.9232 154.918 50.7186 155.257C49.514 155.596 48.2244 155.452 47.1248 154.854L42.7779 152.321Z" fill="#F5F5F5"/>
<path d="M36.7734 148.85C36.2103 148.544 35.7141 148.128 35.3142 147.627C34.9143 147.126 34.6188 146.55 34.445 145.934C34.2712 145.317 34.2227 144.671 34.3024 144.035C34.382 143.399 34.5882 142.786 34.9087 142.231C35.2293 141.676 35.6577 141.191 36.1688 140.804C36.6798 140.417 37.2632 140.137 37.8843 139.979C38.5055 139.821 39.152 139.79 39.7857 139.886C40.4193 139.982 41.0273 140.204 41.5737 140.539L47.5703 144.026C47.1864 143.844 46.7604 143.77 46.3377 143.811C45.915 143.852 45.5114 144.008 45.1701 144.26C44.184 144.904 43.3635 145.771 42.7753 146.791C42.1871 147.811 41.8478 148.956 41.7848 150.132C41.7374 150.552 41.8047 150.978 41.9795 151.363C42.1543 151.749 42.4301 152.08 42.7777 152.321L36.7734 148.85Z" fill="#007BFF"/>
<path opacity="0.4" d="M37.8679 141.813C37.7464 142.021 37.6674 142.251 37.6355 142.49C37.6035 142.729 37.6193 142.972 37.6818 143.204C37.7443 143.437 37.8524 143.655 37.9998 143.846C38.1471 144.036 38.3308 144.196 38.5402 144.315L45.7877 148.529C46.3995 147.517 46.7414 146.365 46.7806 145.183C46.7806 145.066 46.7806 144.956 46.7806 144.855L40.3853 141.141C40.1763 141.018 39.945 140.938 39.7047 140.905C39.4645 140.872 39.2202 140.888 38.9859 140.95C38.7517 141.013 38.5322 141.121 38.3403 141.27C38.1483 141.418 37.9878 141.603 37.8679 141.813Z" fill="white"/>
<path d="M42.7779 152.321C42.4303 152.08 42.1545 151.749 41.9797 151.363C41.8049 150.978 41.7376 150.552 41.785 150.132C41.848 148.956 42.1873 147.812 42.7755 146.791C43.3637 145.771 44.1842 144.904 45.1703 144.261C45.5116 144.008 45.9152 143.852 46.3379 143.811C46.7606 143.77 47.1866 143.844 47.5704 144.026L51.9252 146.543C52.9923 147.197 53.7618 148.242 54.0697 149.455C54.3776 150.668 54.1997 151.954 53.5737 153.037C52.9477 154.121 51.9232 154.918 50.7186 155.257C49.514 155.596 48.2244 155.452 47.1248 154.854L42.7779 152.321Z" fill="#F5F5F5"/>
<path opacity="0.1" d="M45.1699 144.26C44.1838 144.904 43.3633 145.771 42.7752 146.791C42.187 147.812 41.8476 148.956 41.7846 150.132C41.7373 150.552 41.8045 150.978 41.9793 151.363C42.1541 151.749 42.4299 152.08 42.7775 152.321L42.4335 152.126L42.1755 151.977C41.8304 151.731 41.5566 151.399 41.3821 151.013C41.2077 150.627 41.1388 150.201 41.1826 149.78C41.2468 148.606 41.5867 147.463 42.1749 146.444C42.763 145.425 43.5828 144.559 44.5679 143.916C44.9085 143.662 45.3117 143.506 45.7344 143.463C46.1572 143.42 46.5836 143.493 46.9681 143.674L47.5701 144.026C47.1863 143.844 46.7603 143.77 46.3375 143.811C45.9148 143.852 45.5112 144.008 45.1699 144.26Z" fill="black"/>
<path d="M54.2859 150.194C54.3874 151.077 54.2413 151.971 53.8639 152.776C53.4865 153.581 52.8926 154.265 52.1487 154.752C51.4048 155.239 50.5402 155.509 49.6516 155.532C48.7629 155.556 47.8852 155.332 47.1166 154.885L42.7697 152.352C42.4221 152.111 42.1463 151.78 41.9715 151.394C41.7967 151.009 41.7295 150.584 41.7768 150.163C41.7834 149.666 41.8544 149.172 41.9879 148.693L49.2588 152.899C51.659 154.252 54.2859 151.766 54.2859 150.194Z" fill="#EBEBEB"/>
<path d="M52.6363 150.374C52.5164 150.584 52.3562 150.768 52.1648 150.915C51.9735 151.063 51.7549 151.171 51.5216 151.233C51.2882 151.296 51.0449 151.312 50.8055 151.28C50.566 151.247 50.3353 151.168 50.1267 151.047L42.7776 146.794C43.3462 145.759 44.1697 144.887 45.1699 144.26L45.467 144.112L51.9639 147.865C52.3859 148.108 52.6937 148.51 52.8198 148.98C52.9459 149.451 52.8799 149.952 52.6363 150.374Z" fill="white"/>
<path opacity="0.1" d="M35.3502 141.798L35.5222 141.579L35.6551 141.43L35.8115 141.282L35.9757 141.117L36.0617 141.047C36.315 140.831 36.5901 140.643 36.8826 140.484L37.2031 140.328C35.8584 141.11 35.0062 144.636 37.3986 146.012C38.2195 146.488 39.4391 147.216 41.9722 148.678C41.8387 149.156 41.7677 149.65 41.7611 150.147C41.7138 150.568 41.781 150.993 41.9558 151.379C42.1306 151.764 42.4064 152.095 42.754 152.336L36.7497 148.865C35.6483 148.229 34.8445 147.182 34.5147 145.953C34.1849 144.725 34.356 143.416 34.9906 142.314C35.065 142.184 35.1459 142.059 35.233 141.938L35.3502 141.798Z" fill="black"/>
</svg>
