<svg width="151" height="169" viewBox="0 0 151 169" fill="none" xmlns="http://www.w3.org/2000/svg">
<path d="M75.4331 168.464C117.094 168.464 150.866 148.25 150.866 123.316C150.866 98.3814 117.094 78.1681 75.4331 78.1681C33.7726 78.1681 0 98.3814 0 123.316C0 148.25 33.7726 168.464 75.4331 168.464Z" fill="#F0F0F0"/>
<path d="M96.6356 125.227L62.3562 105.478C61.8968 105.246 61.3892 105.126 60.8744 105.126C60.3597 105.126 59.8521 105.246 59.3927 105.478L22.525 126.785L14.7487 131.271C13.9293 131.745 13.9293 132.509 14.7487 132.979L48.9592 152.689C49.4179 152.921 49.9249 153.041 50.439 153.041C50.9532 153.041 51.4601 152.921 51.9188 152.689L96.6356 126.934C97.4511 126.464 97.4511 125.7 96.6356 125.227Z" fill="#E0E0E0"/>
<path d="M85.5641 157.478C97.7339 157.478 107.599 151.85 107.599 144.908C107.599 137.965 97.7339 132.337 85.5641 132.337C73.3944 132.337 63.5288 137.965 63.5288 144.908C63.5288 151.85 73.3944 157.478 85.5641 157.478Z" fill="#E0E0E0"/>
<path d="M112.196 143.173C124.938 143.173 135.267 137.28 135.267 130.011C135.267 122.742 124.938 116.849 112.196 116.849C99.4549 116.849 89.1259 122.742 89.1259 130.011C89.1259 137.28 99.4549 143.173 112.196 143.173Z" fill="#E0E0E0"/>
<path d="M9.05701 82.7674L10.1871 83.4228L44.4204 63.6742L43.2862 63.0231L9.05701 82.7674Z" fill="#F0F0F0"/>
<path d="M43.2863 63.0231L10.1871 82.1121V40.5439L43.2863 21.4507V63.0231Z" fill="#FAFAFA"/>
<path d="M14.6403 72.7945C14.6403 74.122 15.5729 74.6597 16.7407 73.996L35.9978 62.8761C36.6074 62.4836 37.1155 61.9524 37.4806 61.326C37.8456 60.6995 38.0573 59.9956 38.0983 59.2717V23.3663L14.6403 36.8849V72.7945Z" fill="#F0F0F0"/>
<path d="M34.7248 41.4597C34.4475 39.8844 33.204 38.7123 31.4186 41.1824C29.6332 43.6526 28.3814 48.0342 26.6548 49.1642C25.5667 49.9078 24.0124 47.9039 22.6555 47.425C21.2986 46.9461 19.5384 47.5048 18.4252 52.1007C17.3119 56.6965 17.4758 58.4525 18.2823 59.1582C19.404 60.1328 20.9835 59.3389 22.2396 59.1204C23.4957 58.902 22.4202 61.1243 22.937 62.3929C23.4537 63.6616 24.714 63.439 25.4575 61.7838C25.6088 61.4519 25.7474 61.1243 25.8776 60.8134C26.2977 59.8136 27.0329 59.3095 27.4824 59.759C27.5883 59.8651 27.7005 59.9647 27.8184 60.0572C28.7678 60.7714 30.1836 58.7003 30.1121 56.9989C30.0407 55.2976 29.9777 54.1255 30.6541 53.3693C31.3304 52.6132 33.1746 52.1091 34.1324 50.0086C35.0903 47.9081 34.9936 43.0393 34.7248 41.4597ZM23.294 53.3441C23.2087 53.804 23.0453 54.2459 22.8109 54.6506C22.6279 55.0144 22.4157 55.3628 22.1766 55.6925C21.7927 56.1878 21.2546 56.5411 20.6475 56.6965C20.4344 56.7738 20.2009 56.7738 19.9879 56.6965C19.1477 56.31 19.7106 53.5374 20.0551 52.2729C20.1867 51.7548 20.3889 51.2573 20.6559 50.7942C20.7259 50.6799 20.8106 50.5754 20.9079 50.4833C21.0411 50.3624 21.2018 50.2759 21.3761 50.2312C21.5503 50.1866 21.7328 50.1852 21.9077 50.227C22.1644 50.2562 22.3995 50.3843 22.5631 50.5841C22.6825 50.7797 22.7717 50.9921 22.8277 51.2143C22.937 51.5377 23.0378 51.8612 23.1428 52.1889C23.2841 52.5565 23.336 52.9525 23.294 53.3441ZM25.113 60.3429C24.9965 60.6354 24.7747 60.8737 24.4913 61.0108C24.3748 61.0289 24.2556 61.0144 24.1468 60.9688C24.0352 60.9416 23.9342 60.8817 23.857 60.7966C23.8073 60.7291 23.772 60.6522 23.7532 60.5705C23.7344 60.4889 23.7326 60.4043 23.7477 60.3219C23.79 60.0967 23.8803 59.8832 24.0124 59.6959C24.2687 59.2759 24.5165 58.9062 24.7434 58.4357C24.924 58.0912 25.0878 57.8307 25.3063 57.9484C25.7516 58.2172 25.4701 59.6581 25.113 60.3429ZM29.1123 58.1752C28.8939 58.4525 28.646 58.7507 28.4192 58.7507C28.1923 58.7507 28.1293 58.5659 28.0453 58.3601C27.9626 58.1592 27.9048 57.949 27.8731 57.7341C27.8106 57.4363 27.8106 57.1287 27.8731 56.8309C28.1419 55.7639 28.7552 56.289 29.0871 56.436C29.419 56.5831 29.587 57.5871 29.1123 58.1752ZM33.7334 45.27C33.6867 46.1576 33.5758 47.0407 33.4015 47.9123C33.3526 48.2213 33.2548 48.5206 33.1116 48.7987C33.0536 48.9228 32.9642 49.0296 32.8521 49.1084C32.7401 49.1873 32.6095 49.2355 32.4731 49.2482C31.986 49.258 31.5088 49.1107 31.112 48.8281C30.867 48.6831 30.6603 48.4816 30.509 48.2405C30.3577 47.9993 30.2663 47.7255 30.2424 47.4418C30.2782 47.0045 30.3936 46.5775 30.5827 46.1816C30.7801 45.6774 30.9313 45.1439 31.1582 44.6524C31.3166 44.2748 31.5595 43.9385 31.8681 43.6694C31.9693 43.5897 32.0883 43.5359 32.2149 43.5125C32.3415 43.489 32.4719 43.4968 32.5949 43.535C32.7403 43.5818 32.881 43.6423 33.015 43.7156C33.1766 43.7776 33.3214 43.8769 33.4374 44.0054C33.5535 44.1338 33.6376 44.2879 33.6829 44.455C33.7349 44.7233 33.7519 44.9973 33.7334 45.27Z" fill="white"/>
<path d="M21.8993 61.1243C21.265 60.7588 21.1306 61.2545 20.2189 61.3553C19.3073 61.4562 19.1015 60.7756 18.3705 60.8932C17.6396 61.0109 16.8708 63.3046 17.8286 63.8045C18.7864 64.3044 19.0889 64.2792 19.0889 65.1404C19.0889 66.0016 18.9713 71.0217 18.9713 71.0217L21.5506 69.5429C21.5506 69.5429 21.5506 64.9219 21.5506 64.3212C21.5506 63.7205 21.7733 63.3088 21.9707 62.5526C22.0506 62.0905 22.227 61.3133 21.8993 61.1243Z" fill="white"/>
<path d="M30.9231 55.3017C31.5532 54.2053 31.486 54.764 32.5614 53.9952C33.179 53.5457 33.221 52.8904 33.9519 52.1636C34.6829 51.4368 35.876 52.6257 34.9224 54.2263C33.9687 55.8268 33.7335 56.7804 33.7335 57.65C33.7335 58.5196 33.8427 62.4433 33.8427 62.4433L31.2633 63.9514C31.2633 63.9514 31.2633 59.3052 31.2633 58.7045C31.2795 58.1006 31.2001 57.4981 31.0281 56.9191C30.9147 56.5662 30.5954 55.8688 30.9231 55.3017Z" fill="white"/>
<path d="M26.3482 44.8498C25.0249 45.6186 24.2729 45.4421 24.1007 45.8832C23.9284 46.3243 24.0335 46.6604 24.2393 46.7906C24.6972 47.0721 25.7516 46.6982 26.3398 46.442C27.0094 46.1178 27.5871 45.6311 28.0202 45.0263C28.3478 44.4717 28.3268 43.766 28.1462 43.5643C27.8059 43.5727 27.5791 44.1399 26.3482 44.8498Z" fill="white"/>
<path d="M26.3482 41.8629C25.0249 42.6316 24.2729 42.4552 24.1007 42.8963C23.9284 43.3374 24.0335 43.6735 24.2393 43.8037C24.6972 44.0852 25.7516 43.7113 26.3398 43.455C27.0094 43.1309 27.5871 42.6442 28.0202 42.0393C28.3478 41.4848 28.3268 40.779 28.1462 40.5774C27.8059 40.5858 27.5791 41.1529 26.3482 41.8629Z" fill="white"/>
<path d="M26.3482 38.8803C25.0249 39.6448 24.2729 39.4684 24.1007 39.9095C23.9284 40.3506 24.0335 40.6867 24.2393 40.8169C24.6972 41.1026 25.7516 40.7245 26.3398 40.4682C27.0102 40.1453 27.5881 39.6583 28.0202 39.0525C28.3478 38.498 28.3268 37.7922 28.1462 37.5906C27.8059 37.599 27.5791 38.1661 26.3482 38.8803Z" fill="white"/>
<path d="M17.0096 40.0272L21.4205 37.4856C21.6474 37.3512 21.8406 37.4604 21.8406 37.7251V40.0986C21.833 40.2432 21.7909 40.3838 21.7178 40.5088C21.6447 40.6337 21.5428 40.7394 21.4205 40.8169L17.0096 43.3669C16.7785 43.5013 16.5895 43.3921 16.5895 43.1275V40.7497C16.5971 40.6046 16.6392 40.4634 16.7123 40.3377C16.7853 40.2121 16.8872 40.1056 17.0096 40.0272Z" fill="white"/>
<path d="M45.5505 18.8376L9.05701 39.8885V85.3762L45.5505 64.3253V18.8376ZM44.4204 63.6742L10.2081 83.4228V40.5439L44.4414 20.7995L44.4204 63.6742Z" fill="#EBEBEB"/>
<path d="M44.4206 63.6742L43.2864 63.023V21.4506L44.4206 20.7953V63.6742Z" fill="#E0E0E0"/>
<path d="M45.5506 18.8377L44.4205 18.1824L7.92285 39.2374L9.0571 39.8886L45.5506 18.8377Z" fill="#F5F5F5"/>
<path d="M7.92285 39.2374L9.0571 39.8886V85.3804L7.92285 84.7293V39.2374Z" fill="#E0E0E0"/>
<path d="M7.9231 37.4436L10.1874 38.7501L46.6809 17.6992L44.4208 16.3927L7.9231 37.4436Z" fill="#F5F5F5"/>
<path d="M10.1873 38.7502V42.3336L46.6807 21.2785V17.6993L10.1873 38.7502Z" fill="#EBEBEB"/>
<path d="M7.9231 37.4436L10.1874 38.7501V42.3335L7.9231 41.027V37.4436Z" fill="#E0E0E0"/>
<path d="M63.7827 80.3671L7.03874 113.166C6.9514 113.197 6.87569 113.254 6.82211 113.329C6.76853 113.404 6.73975 113.495 6.73975 113.587C6.73975 113.68 6.76853 113.77 6.82211 113.845C6.87569 113.921 6.9514 113.977 7.03874 114.008L23.2734 123.377C23.4996 123.491 23.7493 123.55 24.0025 123.55C24.2558 123.55 24.5055 123.491 24.7316 123.377L81.4755 90.5778C81.5629 90.5474 81.6386 90.4905 81.6922 90.4152C81.7458 90.3398 81.7745 90.2496 81.7745 90.1571C81.7745 90.0647 81.7458 89.9745 81.6922 89.8991C81.6386 89.8237 81.5629 89.7669 81.4755 89.7365L65.2408 80.3671C65.0149 80.2527 64.7651 80.193 64.5118 80.193C64.2584 80.193 64.0086 80.2527 63.7827 80.3671Z" fill="#E0E0E0"/>
<path opacity="0.1" d="M21.9015 116.581H25.3523L24.8014 119.946C24.7803 120.036 24.7399 120.119 24.6828 120.191C24.6258 120.263 24.5536 120.321 24.4715 120.362C24.2157 120.491 23.9332 120.558 23.6467 120.558C23.3602 120.558 23.0777 120.491 22.8219 120.362C22.7397 120.321 22.6676 120.263 22.6105 120.191C22.5535 120.119 22.513 120.036 22.492 119.946L21.9015 116.581Z" fill="black"/>
<path opacity="0.1" d="M66.9468 90.5812H70.3976L69.8467 93.9462C69.8261 94.0357 69.7858 94.1194 69.7287 94.1914C69.6716 94.2633 69.5992 94.3215 69.5167 94.3619C69.2583 94.4937 68.9722 94.5624 68.6821 94.5624C68.3919 94.5624 68.1059 94.4937 67.8474 94.3619C67.7645 94.3221 67.6918 94.264 67.6346 94.192C67.5775 94.12 67.5374 94.036 67.5175 93.9462L66.9468 90.5812Z" fill="black"/>
<path opacity="0.1" d="M11.8195 110.752H15.2703L14.716 114.117C14.695 114.206 14.6545 114.29 14.5975 114.361C14.5405 114.433 14.4683 114.492 14.3861 114.532C14.1304 114.661 13.8479 114.729 13.5614 114.729C13.2749 114.729 12.9924 114.661 12.7366 114.532C12.6544 114.492 12.5822 114.433 12.5252 114.361C12.4682 114.29 12.4277 114.206 12.4067 114.117L11.8195 110.752Z" fill="black"/>
<path d="M10.9683 98.8411V111.609L23.6466 118.94V106.168L10.9683 98.8411Z" fill="#F5F5F5"/>
<path d="M23.6466 118.94L72.4728 90.7526V77.9844L23.6466 106.168V118.94Z" fill="white"/>
<path d="M37.3575 110.773L38.0372 110.38V97.8579L37.3575 98.2505V110.773Z" fill="#E6E6E6"/>
<path d="M60.4906 97.4183L61.1702 97.0257V84.5034L60.4906 84.896V97.4183Z" fill="#E6E6E6"/>
<path d="M72.1429 78.5552V90.5646L23.9765 118.369V106.36L72.1429 78.5552ZM72.4728 77.9812L23.6466 106.168V118.94L72.4728 90.7527V77.9812Z" fill="#EBEBEB"/>
<path d="M74.2706 78.2121C74.2624 78.1214 74.2303 78.0346 74.1775 77.9604C74.1248 77.8862 74.0533 77.8273 73.9704 77.7898L60.1539 69.8061C59.9278 69.6921 59.6781 69.6327 59.4248 69.6327C59.1716 69.6327 58.9219 69.6921 58.6957 69.8061L9.10417 98.4188C9.0209 98.4554 8.94887 98.5135 8.89552 98.5871C8.84217 98.6608 8.80942 98.7473 8.80066 98.8378V99.8078C8.80942 99.8983 8.84217 99.9848 8.89552 100.058C8.94887 100.132 9.0209 100.19 9.10417 100.227L22.9207 108.214C23.1463 108.329 23.3962 108.39 23.6498 108.39C23.9033 108.39 24.1532 108.329 24.3788 108.214L73.9704 79.5845C74.0533 79.5478 74.1248 79.4896 74.1776 79.4159C74.2304 79.3422 74.2625 79.2558 74.2706 79.1655V78.2121Z" fill="#EBEBEB"/>
<path d="M8.80078 98.8378V99.8077C8.80955 99.8982 8.84229 99.9848 8.89564 100.058C8.94899 100.132 9.02102 100.19 9.1043 100.227L22.9208 108.214C23.144 108.332 23.3937 108.393 23.6466 108.389L33.1116 93.2657L23.1913 90.2965L9.1043 98.4287C9.02237 98.4644 8.95123 98.521 8.89798 98.5928C8.84472 98.6645 8.81121 98.749 8.80078 98.8378Z" fill="#E0E0E0"/>
<path d="M58.6991 69.806L9.10429 98.4187C9.01695 98.4491 8.94124 98.506 8.88766 98.5813C8.83408 98.6567 8.8053 98.7469 8.8053 98.8394C8.8053 98.9319 8.83408 99.022 8.88766 99.0974C8.94124 99.1728 9.01695 99.2296 9.10429 99.26L22.9208 107.247C23.1464 107.363 23.3963 107.423 23.6499 107.423C23.9034 107.423 24.1533 107.363 24.379 107.247L73.9705 78.631C74.0578 78.6006 74.1336 78.5437 74.1871 78.4684C74.2407 78.393 74.2695 78.3028 74.2695 78.2103C74.2695 78.1178 74.2407 78.0277 74.1871 77.9523C74.1336 77.8769 74.0578 77.8201 73.9705 77.7897L60.154 69.806C59.9283 69.6925 59.6792 69.6334 59.4266 69.6334C59.174 69.6334 58.9248 69.6925 58.6991 69.806Z" fill="#FAFAFA"/>
<path d="M28.8196 108.841C28.8196 109.075 29.519 108.86 30.3833 108.359L32.4453 107.175C33.3096 106.673 34.009 106.076 34.009 105.855V105.433L28.8196 108.428V108.841Z" fill="#E0E0E0"/>
<path d="M63.8192 88.647C63.8192 88.8812 64.5186 88.6667 65.383 88.1686L67.4449 86.9809C68.3092 86.4828 69.0086 85.8856 69.0086 85.6613V85.2357L63.8192 88.2346V88.647Z" fill="#E0E0E0"/>
<path d="M46.4166 101.797C46.4166 102.031 47.116 101.817 47.9804 101.319L50.0423 100.131C50.9067 99.6329 51.6061 99.0358 51.6061 98.8114V98.3859L46.4166 101.385V101.797Z" fill="#E0E0E0"/>
<path d="M98.0991 47.7426L97.0068 84.7338C97.0068 84.7338 106.761 82.3155 115.499 83.8102C124.237 85.3049 126.329 87.3399 126.329 87.3399L120.688 32.9185L100.517 33.5317C100.517 33.5317 98.0991 36.8468 98.0991 47.7426Z" fill="#E0E0E0"/>
<path d="M124.091 131.283C124.172 133.2 124.474 134.207 125.241 135.246C125.656 135.777 126.221 136.171 126.863 136.376C127.505 136.581 128.194 136.588 128.84 136.396C130.2 136.013 131.618 134.863 131.932 133.265C132.166 131.779 132.064 130.26 131.633 128.819L124.091 131.283Z" fill="#263238"/>
<path d="M127.866 99.2129C126.831 93.7171 125.682 91.2567 125.463 90.0149C125.463 90.0149 123.93 77.0343 123.256 65.9813C122.926 60.6656 123.045 57.0861 119.875 50.9158L101.433 55.898C101.207 58.7264 99.4749 78.0077 100.326 94.6293C101.027 108.277 101.939 114.704 102.035 116.984C102.085 118.276 102.062 119.134 102.008 120.928C101.989 121.656 101.487 122.162 101.196 122.687C100.771 123.322 100.228 123.87 99.5975 124.3C98.2025 125.397 97.367 126.125 95.7229 126.765C95.3995 126.871 95.0925 127.022 94.8107 127.213C94.6693 127.312 94.5518 127.44 94.4669 127.59C94.382 127.74 94.3318 127.907 94.3202 128.079C94.3502 128.32 94.4413 128.549 94.5849 128.744C94.7285 128.939 94.9197 129.094 95.1403 129.195C96.6235 130.053 98.4785 129.888 100.103 129.363C101.728 128.838 103.235 127.976 104.867 127.478C105.998 127.133 107.197 126.956 108.232 126.382C108.583 126.215 108.868 125.936 109.041 125.588C109.144 125.277 109.172 124.946 109.121 124.622C108.966 123.527 108.889 122.421 108.891 121.315C108.922 119.954 109.114 117.433 109.217 116.072C109.301 114.922 110.631 104.728 110.428 99.6422C110.375 98.0884 110.425 96.5328 110.578 94.9857L112.214 76.9269C112.981 79.947 115.744 88.6851 116.614 92.6785C117.672 97.5611 119.458 103.747 121.669 112.677C122.29 115.191 123.424 118.306 123.712 119.824C123.999 121.342 124.375 126.063 125.218 128.19C126.502 131.417 130.139 131.406 130.468 128.604C130.752 126.224 129.227 119.701 129.165 118.138C129.104 116.574 129.069 105.617 127.866 99.2129Z" fill="#C8856A"/>
<path d="M129.74 120.158C130.043 122.074 130.304 123.526 130.507 124.634C131.074 126.527 131.296 127.443 131.614 128.67C132.136 130.682 132.036 132.483 131.472 133.556C130.637 135.158 127.257 136.81 125.478 134.748C124.026 133.069 124.087 132.268 124.091 129.766V127.608C124.049 125.374 124.014 124.925 123.677 123.523C123.486 122.714 123.677 121.48 123.512 120.621C123.344 119.69 123.275 119.284 123.562 119.134C123.562 119.134 123.712 120.33 123.896 121.192C124.068 121.986 124.202 122.787 124.363 123.58C124.559 124.557 124.727 125.538 125.003 126.5C125.034 126.604 125.084 126.73 125.191 126.746C125.298 126.761 125.406 126.596 125.413 126.462C125.406 126.383 125.414 126.303 125.438 126.228C125.461 126.152 125.5 126.082 125.551 126.021C125.694 125.895 125.857 125.795 126.034 125.726C126.378 125.589 126.737 125.492 127.103 125.439C127.623 125.326 128.159 125.304 128.686 125.374C128.845 125.394 128.995 125.458 129.119 125.558C129.211 125.666 129.294 125.781 129.368 125.903C129.445 125.983 129.583 126.029 129.664 125.952C129.706 125.906 129.73 125.846 129.733 125.784C129.764 125.56 129.77 125.334 129.752 125.109C129.71 123.856 129.625 122.63 129.464 121.388C129.295 120.411 129.205 119.421 129.196 118.429C129.515 118.953 129.701 119.546 129.74 120.158Z" fill="#37474F"/>
<path d="M110.16 125.968L91.3805 130.111C91.2991 130.329 91.2703 130.562 91.2962 130.794C91.3222 131.025 91.4023 131.246 91.53 131.441C92.216 132.318 94.5308 133.502 97.3937 133.146C100.257 132.79 101.813 131.517 102.87 130.712C103.41 130.271 104.005 129.904 104.641 129.62C105.323 129.314 106.327 129.298 107.052 129.195C107.697 129.062 108.331 128.88 108.949 128.651C109.407 128.501 109.835 128.269 110.21 127.965C110.276 127.608 110.305 127.246 110.298 126.884C110.259 126.615 110.217 126.232 110.16 125.968Z" fill="#263238"/>
<path d="M105.845 124.113C106.453 123.482 107.194 122.994 108.014 122.683C108.684 122.369 108.872 122.074 108.891 121.292C108.891 121.223 109.439 121.265 109.528 121.361C109.692 121.548 109.781 121.79 109.777 122.039C109.823 122.626 109.892 122.902 109.984 123.511C110.194 124.864 110.493 125.293 110.294 126.884C109.451 128.014 106.845 128.558 105.457 128.742C103.281 129.037 101.525 130.965 99.8812 131.54C96.8688 132.594 93.9178 132.027 92.7719 131.417C91.4497 130.716 90.7062 129.551 91.7946 128.712C92.4576 128.198 96.2288 126.148 96.9072 125.761C97.4437 125.45 97.9573 125.086 98.4862 124.757C98.571 124.694 98.6673 124.648 98.7698 124.622C98.8912 124.609 99.0142 124.622 99.13 124.661C99.7912 124.828 100.433 125.063 101.046 125.362C101.159 125.404 101.263 125.468 101.351 125.551C101.438 125.634 101.508 125.734 101.556 125.845C101.671 126.247 100.908 126.96 101.368 127.091C101.828 127.221 102.495 126.638 102.825 126.451C103.953 125.877 104.965 125.097 105.806 124.151C105.818 124.138 105.831 124.125 105.845 124.113Z" fill="#37474F"/>
<path d="M101.468 49.908L101.272 51.9622C99.4939 63.3255 99.333 78.3796 99.5208 82.9556C100.076 96.4422 100.31 123.365 100.31 123.365C100.31 123.365 102.265 124.944 105.657 124.795C107.196 124.744 108.717 124.442 110.16 123.902C110.16 123.902 111.149 104.966 111.348 101.068C111.413 99.4067 111.379 97.7431 111.248 96.0857C111.089 94.0105 111.112 91.9253 111.317 89.8541L112.26 78.3374C112.26 78.3374 115.748 94.2921 116.092 96.2314C117.779 105.943 122.531 123.572 122.531 123.572C124.136 123.904 125.789 123.925 127.402 123.634C129.966 123.139 130.545 121.802 130.545 121.802C130.545 121.802 128.82 102.532 128.418 98.596C127.881 93.334 127.387 90.8889 127.023 88.7312C126.594 86.1979 126.387 76.6435 126.095 71.1017C125.896 67.3075 125.758 64.4293 125.329 61.6431C124.451 55.8253 121.88 52.3186 120.891 50.1762L120.741 49.0265C117.859 51.5713 106.887 53.1579 101.468 49.908Z" fill="#455A64"/>
<path d="M112.275 78.3259L109.543 67.4569C109.543 67.4569 105.998 66.7134 104.254 64.6094C104.254 64.6094 104.637 67.2653 108.32 68.622L110.903 78.1189L111.386 89.2792L112.275 78.3259Z" fill="#37474F"/>
<path d="M125.425 16.9369C126.318 15.2123 127.03 12.9243 125.425 11.3798C126.13 9.46357 126.62 7.0146 124.658 5.71922C124.704 3.21659 123.393 1.61844 121.489 0.951589C119.687 0.319226 117.725 0.518515 116.338 2.13583L117.675 2.76436C117.875 4.46982 118.461 6.12546 120.036 6.98011C119.404 8.95385 119.756 10.598 121.749 11.5063C120.649 13.4762 120.542 15.722 122.029 17.5195C121.358 19.1751 121.623 20.5625 122.727 21.9537C121.577 23.3372 122.255 25.2841 123.554 26.3457C123.194 26.7035 122.918 27.1363 122.744 27.6132C122.57 28.0902 122.504 28.5996 122.55 29.1051C122.57 29.6844 122.803 30.236 123.205 30.6535C123.607 31.071 124.149 31.325 124.727 31.3663C124.11 30.8719 124.049 30.5346 124.371 29.5957C124.693 28.6567 125.252 27.5338 124.371 26.4952C125.241 25.0082 126.072 23.3181 125.034 21.7391C125.812 20.1946 126.394 18.5236 125.425 16.9369Z" fill="#263238"/>
<path d="M117.162 2.5422C117.637 1.72971 118.695 2.05548 119.565 2.78748C120.435 3.51949 121.236 4.77272 120.757 5.47023C119.944 6.60465 116.706 3.33553 117.162 2.5422Z" fill="#007BFF"/>
<path d="M85.1375 31.9757C86.7816 33.4052 92.4959 37.529 92.4959 37.529C92.4959 37.529 97.2597 31.3242 98.2446 29.9943C101.092 26.1925 103.269 23.5289 106.734 23.6247L108.113 33.4551C105.503 36.8506 98.7314 42.8945 95.903 45.8608C94.4198 47.4168 92.6262 47.1524 91.0855 46.1943C87.8662 44.1822 80.757 35.5323 80.757 35.5323L85.1375 31.9757Z" fill="#C8856A"/>
<path d="M106.22 23.4828C104.185 23.5786 102.729 24.5214 101.43 25.8628C100.13 27.2041 92.404 37.3948 92.404 37.3948L89.6216 35.3712C89.4702 37.0422 88.8879 38.6453 87.9314 40.0239C86.3984 42.0857 85.1874 41.3192 85.1874 41.3192C85.1874 41.3192 88.1614 44.6344 89.5143 45.719C90.8671 46.8035 92.5458 47.6352 93.9255 47.3938C95.3052 47.1523 95.7459 46.7652 99.0035 43.4654C102.261 40.1657 108.378 34.003 108.378 34.003L106.22 23.4828Z" fill="#F0F0F0"/>
<path d="M92.4038 37.3948C93.6991 38.3382 94.7127 39.6168 95.3357 41.0932C95.0518 39.4113 94.1681 37.8891 92.8484 36.8085L92.4038 37.3948Z" fill="#E0E0E0"/>
<path d="M86.9348 33.4129C84.8308 31.7343 83.566 30.3469 83.5545 28.2927C83.5431 26.2385 83.8228 25.1807 83.6542 24.7208C83.4856 24.2609 81.8989 22.2948 81.4543 21.3367C81.0098 20.3786 80.5575 20.4667 79.7297 20.1218C78.7294 19.7079 74.7206 18.7804 74.6938 19.0908C74.6167 19.4426 74.6552 19.8098 74.8037 20.1378C74.9522 20.4658 75.2026 20.7371 75.5178 20.9113C76.246 21.3482 78.4113 21.9499 78.4113 21.9499C78.4113 21.9499 77.7177 22.793 77.3842 23.1495C77.0508 23.5059 77.116 23.7971 77.5989 24.9546C77.5989 24.9546 77.0546 25.1922 76.978 25.6176C76.9442 26.0437 77.0207 26.4714 77.2003 26.8593C76.9785 26.9758 76.8009 27.1615 76.6944 27.3882C76.5334 27.7715 76.8592 28.7296 77.2578 29.5497C77.3179 30.6033 77.5058 31.6458 77.8173 32.6541C78.1776 33.6888 78.8444 34.0951 79.5956 34.5703C80.1015 34.8769 81.4927 36.3869 82.0446 36.9618C82.0446 36.9579 88.8587 34.9497 86.9348 33.4129Z" fill="#C8856A"/>
<path d="M82.5007 25.1269C81.8008 24.6461 81.2805 23.9465 81.0213 23.1379C80.7914 22.333 80.5921 21.4247 80.3277 21.4171C79.8793 21.4171 79.0323 22.2794 79.2891 23.6207C79.5343 24.9008 80.1552 26.3993 80.2012 26.7711C80.2472 27.1428 79.9367 28.0243 79.6685 28.6873C79.4483 29.379 79.446 30.1217 79.662 30.8147C79.8779 31.5078 80.3016 32.1177 80.8757 32.562C80.1146 32.1999 79.5219 31.5591 79.2201 30.7722C78.5915 29.3542 79.4347 27.9132 79.6033 27.2271C79.7719 26.5411 79.8026 26.4031 79.3734 25.2304C78.9441 24.0577 78.4727 22.8006 79.3734 21.6432C80.274 20.4858 80.6994 21.0415 80.8604 21.4209C81.0213 21.8003 81.3164 24.2608 82.5007 25.1269Z" fill="#AF6152"/>
<path d="M78.4114 21.9498L79.243 22.3561L78.9786 22.5745C78.7989 22.4781 78.5956 22.4345 78.3921 22.4487C78.1887 22.463 77.9934 22.5345 77.8289 22.655L78.4114 21.9498Z" fill="#AF6152"/>
<path d="M77.5836 24.9545C77.7293 25.3377 78.2543 26.5105 78.3501 26.7481C78.4459 26.9857 78.9097 26.9052 79.1703 26.4491C79.4103 26.0871 79.5035 25.6472 79.4309 25.2189C79.5729 25.6526 79.5497 26.1235 79.3657 26.5411C79.0515 27.139 78.6222 27.2156 78.3616 27.139C78.101 27.0623 77.9132 25.7746 77.5836 24.9545Z" fill="#AF6152"/>
<path d="M77.2003 26.8593C77.3038 27.1506 77.5146 27.5223 77.825 28.3233C78.0013 28.787 78.0971 29.0898 78.3846 29.0476C78.672 29.0055 79.1511 28.4 79.0936 27.8366C79.054 27.5091 78.9755 27.1874 78.8598 26.8785L79.0859 26.7788C79.2894 27.2627 79.3736 27.7885 79.3312 28.3118C79.2162 28.9902 78.5647 29.5267 78.2696 29.3504C77.9745 29.1741 77.8863 28.9135 77.6525 28.2428C77.4188 27.5721 77.2003 26.8593 77.2003 26.8593Z" fill="#AF6152"/>
<path d="M78.17 29.1165C78.216 29.3119 78.1163 29.7565 77.7867 29.7718C77.6873 29.7744 77.5884 29.756 77.4966 29.7177C77.4048 29.6794 77.3221 29.6221 77.254 29.5495C77.2982 29.6644 77.3767 29.7629 77.4789 29.8315C77.5811 29.9001 77.702 29.9354 77.8251 29.9328C78.2083 29.9098 78.4038 29.5035 78.4651 29.1663L78.17 29.1165Z" fill="#AF6152"/>
<path d="M116.87 22.958L122.144 24.3645C123.194 24.7209 122.01 30.9143 122.301 38.0044C122.604 45.2861 122.864 57.0366 122.864 57.0366C122.864 57.0366 119.733 58.7152 110.888 58.9528C105.354 59.1023 100.257 56.0363 100.257 56.0363L101.272 47.6048V40.1276C101.272 40.1276 98.1679 36.3487 99.9116 32.0257C101.655 27.7026 107.692 22.088 107.692 22.088L110.401 22.2183L116.87 22.958Z" fill="#007BFF"/>
<path opacity="0.7" d="M116.87 22.958L122.144 24.3645C123.194 24.7209 122.01 30.9143 122.301 38.0044C122.604 45.2861 122.864 57.0366 122.864 57.0366C122.864 57.0366 119.733 58.7152 110.888 58.9528C105.354 59.1023 100.257 56.0363 100.257 56.0363L101.272 47.6048V40.1276C101.272 40.1276 98.1679 36.3487 99.9116 32.0257C101.655 27.7026 107.692 22.088 107.692 22.088L110.401 22.2183L116.87 22.958Z" fill="white"/>
<path opacity="0.3" d="M117.518 38.901C116.948 39.733 116.173 40.4041 115.268 40.8498C114.363 41.2955 113.359 41.5008 112.352 41.4458C111.406 41.3922 110.487 41.1074 109.677 40.6163C108.866 40.1252 108.188 39.4428 107.703 38.6289C107.703 38.6289 108.308 42.2774 112.685 42.3579C117.062 42.4384 117.518 38.901 117.518 38.901Z" fill="#007BFF"/>
<path d="M110.604 22.4404C108.427 24.257 105.036 26.7022 103.024 29.3389C98.9611 34.6508 98.4245 39.4682 98.0988 45.65C98.0336 36.4214 96.5658 31.2897 107.68 21.7467C109.665 20.0413 110.451 19.6619 110.451 19.6619L110.604 22.4404Z" fill="#FAFAFA"/>
<path d="M103.909 9.74724C99.8503 1.64917 107.895 -0.0562946 112.931 0.813683C118.227 1.72582 123.225 5.31687 121.627 12.246C120.933 15.2392 119.201 17.4429 117.832 20.0145L103.909 9.74724Z" fill="#263238"/>
<path d="M119.592 10.7359C117.844 10.0499 117.047 11.8857 117.047 11.8857C115.958 12.6254 115.437 11.1805 115.215 10.4945C114.402 7.96122 114.801 6.13695 112.662 5.40494C111.681 5.06768 110.777 5.87251 109.907 6.43971C109.677 6.62641 109.409 6.76166 109.122 6.83635C108.835 6.91105 108.536 6.92347 108.244 6.87279C107.707 6.74631 106.711 5.94532 106.212 5.72304C104.794 5.00636 104.334 6.73482 104.028 8.59741C103.846 10.1042 103.81 11.6252 103.92 13.1389C104.216 18.1212 105.013 19.8688 106.94 20.8039C107.803 21.2293 108.857 21.3136 110.52 21.1105L110.654 23.2567C109.101 25.6021 108.177 28.3077 107.971 31.1133C107.971 31.1133 111.896 29.3964 114.103 27.553C117.936 24.349 118.009 22.3791 118.009 22.3791L117.587 15.9137C117.913 16.3276 119.239 16.3774 119.998 15.3771C121.335 13.6295 121.274 11.3913 119.592 10.7359Z" fill="#C8856A"/>
<path d="M110.543 21.1336C112.149 20.8231 115.069 19.8113 115.525 18.4508C115.525 18.4508 115.64 19.5277 114.425 20.528C113.414 21.3673 110.593 21.9729 110.593 21.9729L110.543 21.1336Z" fill="#AF6152"/>
<path d="M110.712 16.3658L109.064 16.9101C109.094 17.0206 109.147 17.1238 109.218 17.2134C109.29 17.303 109.379 17.3773 109.48 17.4317C109.581 17.4861 109.692 17.5196 109.806 17.53C109.92 17.5405 110.035 17.5278 110.144 17.4926C110.366 17.4148 110.55 17.2539 110.655 17.0438C110.761 16.8336 110.781 16.5905 110.712 16.3658Z" fill="#AF6152"/>
<path d="M105.047 9.17227L106.707 8.66255C106.679 8.5528 106.628 8.44991 106.559 8.36016C106.49 8.2704 106.403 8.19564 106.305 8.14043C106.206 8.08523 106.096 8.05072 105.984 8.03902C105.871 8.02731 105.757 8.03865 105.649 8.07234C105.427 8.14323 105.24 8.29704 105.128 8.50185C105.016 8.70665 104.987 8.94674 105.047 9.17227Z" fill="#263238"/>
<path d="M112.843 9.45209L111.31 8.66259C111.357 8.55951 111.425 8.46728 111.51 8.39156C111.595 8.31585 111.694 8.25827 111.802 8.22236C111.909 8.18646 112.023 8.17299 112.136 8.18279C112.249 8.19259 112.359 8.22545 112.459 8.27934C112.658 8.39131 112.808 8.57393 112.879 8.79109C112.95 9.00825 112.937 9.24413 112.843 9.45209Z" fill="#263238"/>
<path d="M105.177 12.0237C105.178 12.1618 105.218 12.2969 105.295 12.4121C105.371 12.5273 105.479 12.6176 105.606 12.6717C105.733 12.7259 105.873 12.7415 106.009 12.7167C106.145 12.6919 106.271 12.6277 106.371 12.5321C106.47 12.4366 106.54 12.3138 106.57 12.1791C106.601 12.0444 106.591 11.9036 106.543 11.7744C106.494 11.6451 106.408 11.533 106.296 11.452C106.185 11.3709 106.051 11.3245 105.913 11.3185C105.819 11.3159 105.724 11.3322 105.636 11.3664C105.547 11.4005 105.467 11.4519 105.398 11.5175C105.33 11.5831 105.275 11.6616 105.237 11.7485C105.199 11.8354 105.179 11.9289 105.177 12.0237Z" fill="#263238"/>
<path d="M110.646 12.2652C110.647 12.4033 110.687 12.5384 110.764 12.6536C110.84 12.7688 110.948 12.8591 111.075 12.9132C111.202 12.9674 111.342 12.983 111.478 12.9582C111.614 12.9334 111.74 12.8692 111.84 12.7736C111.939 12.678 112.009 12.5553 112.039 12.4206C112.07 12.2859 112.06 12.1451 112.012 12.0159C111.963 11.8866 111.877 11.7745 111.765 11.6934C111.654 11.6124 111.52 11.566 111.382 11.56C111.288 11.5579 111.194 11.5746 111.105 11.6089C111.017 11.6433 110.937 11.6946 110.868 11.7601C110.8 11.8256 110.745 11.9039 110.707 11.9906C110.669 12.0772 110.648 12.1705 110.646 12.2652Z" fill="#263238"/>
<path d="M102.521 10.0039C102.524 10.2617 102.607 10.5122 102.759 10.7206C102.814 10.7962 102.848 10.8846 102.859 10.9774C102.887 11.6381 102.967 12.2956 103.1 12.9435C103.212 13.3724 103.467 13.7501 103.824 14.0137C104.18 14.2773 104.616 14.4108 105.059 14.3921C105.3 14.4042 105.542 14.3875 105.779 14.3423H105.837C106.047 14.2974 106.25 14.2212 106.438 14.1162L106.477 14.097L106.526 14.0625L106.595 14.0204L106.657 13.9782L106.722 13.9246L106.787 13.8709C106.832 13.8366 106.873 13.7981 106.91 13.7559C107.125 13.5285 107.304 13.2701 107.442 12.9894C107.799 12.3073 107.799 11.3491 108.301 11.2495H108.362H108.427C109.094 11.2495 108.941 12.3111 109.259 13.0661C109.577 13.8211 110.156 14.5991 111.631 14.6259H111.823H111.976C112.097 14.6172 112.217 14.6019 112.337 14.5799L112.448 14.5531L112.559 14.5224H112.624C112.768 14.4757 112.907 14.4141 113.038 14.3385L113.176 14.2465C113.262 14.1862 113.343 14.1183 113.417 14.0434C113.617 13.8401 113.78 13.6042 113.9 13.3459C114.153 12.8285 114.26 11.8895 114.395 11.4066C114.42 11.3066 114.463 11.2119 114.521 11.1268C114.704 10.9375 114.827 10.6992 114.877 10.4408C114.892 10.3108 114.863 10.1795 114.793 10.0687C114.723 9.95793 114.618 9.87423 114.494 9.83147L114.142 9.78164C113.015 9.62451 111.536 9.54019 110.635 9.78164C109.485 10.0691 109.102 10.4217 108.466 10.4025C107.829 10.3833 107.542 10.0193 106.519 9.63601C105.702 9.3524 104.323 9.33707 103.257 9.41756L102.924 9.44822C102.755 9.42522 102.533 9.69733 102.521 10.0039ZM109.803 10.8203C109.898 10.7139 110.013 10.6267 110.14 10.5635L110.198 10.5328H110.232L110.393 10.46L110.543 10.4025C110.702 10.3456 110.865 10.2983 111.03 10.2607L111.221 10.2185C111.385 10.1879 111.55 10.1649 111.716 10.1496H111.831C112.911 10.0806 113.567 10.345 113.797 10.5673C114.027 10.7896 113.873 11.8052 113.743 12.3188V12.3571C113.741 12.3698 113.741 12.3827 113.743 12.3954C113.743 12.4606 113.709 12.5295 113.686 12.6062C113.669 12.6476 113.655 12.6898 113.643 12.7327C113.619 12.8056 113.591 12.8772 113.559 12.9473L113.525 13.0201C113.52 13.0361 113.513 13.0515 113.505 13.0661C113.505 13.0661 113.486 13.0968 113.479 13.1159L113.444 13.1772C113.434 13.2002 113.421 13.222 113.406 13.2424C113.391 13.2681 113.375 13.2925 113.356 13.3152C113.342 13.3409 113.325 13.3653 113.306 13.388C113.126 13.6304 112.888 13.8231 112.613 13.9478C112.338 14.0725 112.036 14.1252 111.735 14.1009C111.441 14.1156 111.147 14.0643 110.875 13.9509C110.603 13.8376 110.36 13.6649 110.163 13.4455C109.92 13.14 109.764 12.7746 109.711 12.3877C109.585 11.7937 109.558 11.1269 109.776 10.8203H109.803ZM103.533 10.1917C103.618 10.1243 103.712 10.0701 103.813 10.0308L103.936 9.98477H104.008H104.066H104.108H104.169L104.419 9.94644H104.553H104.99C105.153 9.95609 105.315 9.974 105.476 10.0001C106.243 10.1227 107.009 10.4945 107.178 10.8126C107.347 11.1307 107.258 11.7975 107.109 12.3647C107.074 12.4953 107.031 12.6233 106.979 12.748C106.979 12.748 106.979 12.748 106.979 12.7787C106.979 12.7914 106.979 12.8042 106.979 12.817V12.8438L106.956 12.8898L106.906 12.9856L106.856 13.0661C106.852 13.0765 106.845 13.0857 106.837 13.0929L106.802 13.1504L106.768 13.1964C106.575 13.4555 106.317 13.6592 106.02 13.787C105.724 13.9149 105.399 13.9623 105.078 13.9246C104.799 13.9171 104.526 13.8436 104.281 13.71C103.549 13.2999 103.445 12.4146 103.395 12.0083C103.311 11.4181 103.261 10.4102 103.522 10.1917H103.533Z" fill="#37474F"/>
<path d="M114.375 9.90808L117.775 10.9582C117.522 11.1766 117.307 11.4356 117.139 11.7247L114.395 10.9199L114.375 9.90808Z" fill="#37474F"/>
<path d="M108.673 11.3184L108.29 15.7603L105.868 14.9938L108.397 11.2264C108.496 11.2315 108.591 11.2633 108.673 11.3184Z" fill="#AF6152"/>
<path d="M117.928 21.2217C117.767 23.5212 116.897 26.8056 116.679 33.0373C116.46 39.2689 118.361 87.3208 118.361 87.3208C118.361 87.3208 124.961 88.1563 129.82 85.3854C129.82 85.3854 128.096 65.5599 124.355 49.2372C123.386 45.0215 125.156 39.7556 125.505 34.0529C125.704 30.9513 125.299 27.8406 124.313 24.8932C124.313 24.8932 120.78 23.7128 119.714 23.0843C118.983 22.6093 118.372 21.9718 117.928 21.2217Z" fill="#FAFAFA"/>
<path d="M118.243 22.3944C118.597 22.8186 119.019 23.1812 119.492 23.4675C120.458 24.0309 123.21 24.9814 123.984 25.2458C124.887 28.0839 125.259 31.0645 125.08 34.0376C124.953 36.0918 124.635 38.1077 124.34 40.0239C123.811 43.3812 123.309 46.5583 123.957 49.3216C127.406 64.3833 129.161 82.6643 129.388 85.1324C126.544 86.6654 123.133 86.995 120.745 86.995C119.879 86.995 119.193 86.949 118.798 86.9145C118.622 82.3999 116.924 38.901 117.131 33.0411C117.239 30.0103 117.539 26.9894 118.028 23.9964C118.116 23.41 118.2 22.8697 118.266 22.3714M117.951 21.2217C117.79 23.5212 116.92 26.8056 116.702 33.0373C116.483 39.2689 118.384 87.3208 118.384 87.3208C119.168 87.4053 119.957 87.445 120.745 87.4396C123.106 87.4396 126.812 87.1138 129.844 85.3854C129.844 85.3854 128.119 65.5599 124.378 49.2372C123.409 45.0215 125.179 39.7556 125.528 34.0529C125.727 30.9513 125.322 27.8406 124.336 24.8932C124.336 24.8932 120.803 23.7128 119.737 23.0843C119.008 22.6088 118.398 21.9714 117.955 21.2217H117.951Z" fill="#EBEBEB"/>
<path d="M102.111 54.4762C102.379 54.4596 102.647 54.4698 102.912 54.5069C103.207 54.5452 103.479 54.5989 103.778 54.6104C104.077 54.6219 104.403 54.6104 104.717 54.6104C105.154 54.6104 105.599 54.6104 106.036 54.6104C106.867 54.5536 107.687 54.3914 108.477 54.1275C108.73 54.0432 108.979 53.9474 109.244 53.8439C109.355 53.7941 109.489 53.6982 109.454 53.5794C109.438 53.5481 109.416 53.5204 109.389 53.498C109.362 53.4756 109.331 53.459 109.297 53.4491C108.941 53.292 108.557 53.2 108.186 53.0659C107.81 52.9518 107.469 52.7433 107.197 52.4603C107.017 52.2534 106.71 51.6325 106.967 51.3757C107.162 51.1841 107.661 51.3758 107.883 51.4102C108.356 51.5275 108.838 51.6032 109.324 51.6364C109.845 51.6632 110.37 51.6019 110.891 51.6364C111.571 51.6597 112.239 51.8119 112.861 52.0848C113.448 52.3415 114.011 52.6941 114.601 52.9011C115.751 53.2843 117.422 52.8551 118.898 52.3569C121.918 51.3336 127.122 48.7083 127.122 48.7083L123.956 37.2108C122.661 34.1448 122.159 26.4798 123.707 25.1461C124.508 25.2496 127.157 24.9315 129.31 27.277C130.491 28.5532 131.28 31.6844 132.902 37.4983C134.051 41.6374 134.983 45.5274 135.665 49.3369C136.431 53.5718 134.898 55.0166 131.093 55.8713C124.723 57.2931 119.741 58.6115 117.2 58.8031H117.069C115.82 58.9066 114.575 59.0829 113.325 59.1864C112.685 59.2439 112.03 59.2362 111.409 59.332C110.599 59.4928 109.759 59.406 108.998 59.0829C108.063 58.6307 107.373 57.6534 106.342 57.5001C106.031 57.4888 105.721 57.4542 105.415 57.3966C104.894 57.2395 104.572 56.7566 104.135 56.4615C103.849 56.3047 103.549 56.1763 103.238 56.0782L102.242 55.6566C101.998 55.5624 101.762 55.4483 101.536 55.3156C101.465 55.276 101.403 55.2226 101.352 55.1584C101.034 54.7292 101.854 54.4954 102.111 54.4762Z" fill="#C8856A"/>
<path d="M123.301 24.579C128.088 25.5563 128.667 25.7977 129.943 27.8289C131.507 30.2817 132.626 35.5438 134.408 42.2775C135.223 45.2437 135.806 48.2691 136.152 51.326C136.224 52.4413 135.768 54.9324 133.086 55.6031C130.403 56.2737 126.812 57.0364 126.812 57.0364C126.812 57.0364 127.578 51.8625 125.129 49.5515L126.946 48.6318L123.075 36.8928C123.075 36.8928 120.611 27.9286 123.301 24.579Z" fill="#F0F0F0"/>
<path d="M126.954 48.6316C128.517 48.2577 130.151 48.3107 131.687 48.7849C131.687 48.7849 130.449 47.3554 126.658 47.6352L126.954 48.6316Z" fill="#E0E0E0"/>
<path d="M121.163 23.7243C120.293 23.341 118.936 22.3446 118.568 21.6432C118.2 20.9419 118.227 20.6046 117.89 20.6084L117.932 21.26C117.932 21.26 116.399 26.8861 116.43 32.3742C116.368 36.1377 116.759 40.982 116.759 40.982C117.89 38.3184 119.086 34.62 119.086 34.62L117.648 31.1708C118.564 27.7599 120.53 25.5409 121.163 23.7243Z" fill="#F0F0F0"/>
<path d="M114.104 26.2269L113.82 25.9011C116.721 23.3717 118.856 19.4127 119.078 18.8992C119.078 18.8992 119.619 17.3662 119.166 14.852L119.592 14.7754C120.067 17.4198 119.504 18.9911 119.481 19.0601C119.205 19.7116 117.058 23.64 114.104 26.2269Z" fill="#455A64"/>
<path d="M108.37 21.2102L107.956 21.9767C107.847 21.8835 107.714 21.8213 107.573 21.7966C107.699 21.5475 107.822 21.3252 107.929 21.1335C108.074 21.1689 108.221 21.1945 108.37 21.2102Z" fill="#455A64"/>
<path d="M119.615 13.5068C119.541 13.3542 119.429 13.2232 119.289 13.1264C119.15 13.0296 118.988 12.9702 118.82 12.954C118.651 12.9378 118.481 12.9653 118.325 13.0338C118.17 13.1023 118.035 13.2096 117.934 13.3453C117.832 13.481 117.767 13.6406 117.745 13.8088C117.723 13.9769 117.744 14.1479 117.807 14.3054C117.87 14.4629 117.972 14.6015 118.104 14.7079C118.236 14.8144 118.393 14.8851 118.561 14.9133C118.561 14.9133 118.944 14.9133 119.07 15.4843C119.16 15.8411 119.198 16.209 119.182 16.5766C119.298 16.6328 119.43 16.6482 119.557 16.6204C119.683 16.5926 119.797 16.5232 119.879 16.4233C120.032 15.6606 119.91 14.005 119.615 13.5068Z" fill="#37474F"/>
<path d="M92.8446 45.9298C90.9228 45.9343 89.0207 45.5429 87.2568 44.7801C83.8382 43.2931 78.101 38.9355 78.101 26.4875H78.9633C78.9633 35.3483 82.0293 41.5646 87.6017 43.9867C92.7718 46.2364 98.5512 44.6613 101.368 42.036C104.012 39.5755 104.641 36.7548 105.201 34.2637C105.499 32.9147 105.783 31.6423 106.35 30.6075L107.117 31.0291C106.599 31.9565 106.35 33.1101 106.04 34.4515C105.484 36.9579 104.794 40.0239 101.958 42.676C99.9462 44.5501 96.5276 45.9298 92.8446 45.9298Z" fill="#007BFF"/>
<path opacity="0.3" d="M92.8446 45.9298C90.9228 45.9343 89.0207 45.5429 87.2568 44.7801C83.8382 43.2931 78.101 38.9355 78.101 26.4875H78.9633C78.9633 35.3483 82.0293 41.5646 87.6017 43.9867C92.7718 46.2364 98.5512 44.6613 101.368 42.036C104.012 39.5755 104.641 36.7548 105.201 34.2637C105.499 32.9147 105.783 31.6423 106.35 30.6075L107.117 31.0291C106.599 31.9565 106.35 33.1101 106.04 34.4515C105.484 36.9579 104.794 40.0239 101.958 42.676C99.9462 44.5501 96.5276 45.9298 92.8446 45.9298Z" fill="white"/>
<path d="M116.625 23.8701C115.501 25.2237 114.291 26.5038 113.004 27.7026C112.114 28.4231 109.688 30.3202 107.987 31.0177C107.655 31.1701 107.297 31.2598 106.933 31.2821C106.836 31.2839 106.739 31.271 106.645 31.2438C106.346 31.1441 105.442 30.8605 105.714 25.7863C105.764 24.8972 107.048 22.3831 107.308 21.8925C107.337 21.8562 107.377 21.8292 107.421 21.8149C107.465 21.8005 107.513 21.7996 107.558 21.812C107.699 21.8368 107.831 21.899 107.941 21.9921C108.048 22.088 108.109 22.1953 108.056 22.2911C107.496 23.368 106.596 25.2843 106.565 25.8323C106.427 28.4192 106.638 30.2014 106.921 30.4313C107.101 30.4926 107.523 30.3393 108.071 30.0481C109.603 29.1761 111.057 28.1733 112.417 27.051C113.663 25.8865 114.835 24.6463 115.928 23.3373C116.184 23.0959 116.79 23.6554 116.625 23.8701Z" fill="#007BFF"/>
<path opacity="0.3" d="M116.625 23.8701C115.501 25.2237 114.291 26.5038 113.004 27.7026C112.114 28.4231 109.688 30.3202 107.987 31.0177C107.655 31.1701 107.297 31.2598 106.933 31.2821C106.836 31.2839 106.739 31.271 106.645 31.2438C106.346 31.1441 105.442 30.8605 105.714 25.7863C105.764 24.8972 107.048 22.3831 107.308 21.8925C107.337 21.8562 107.377 21.8292 107.421 21.8149C107.465 21.8005 107.513 21.7996 107.558 21.812C107.699 21.8368 107.831 21.899 107.941 21.9921C108.048 22.088 108.109 22.1953 108.056 22.2911C107.496 23.368 106.596 25.2843 106.565 25.8323C106.427 28.4192 106.638 30.2014 106.921 30.4313C107.101 30.4926 107.523 30.3393 108.071 30.0481C109.603 29.1761 111.057 28.1733 112.417 27.051C113.663 25.8865 114.835 24.6463 115.928 23.3373C116.184 23.0959 116.79 23.6554 116.625 23.8701Z" fill="white"/>
<path d="M80.6955 25.0083C80.6863 24.5572 80.5721 24.1145 80.3619 23.7153C80.1516 23.3161 79.8512 22.9715 79.4844 22.7088C79.3705 22.6269 79.2362 22.5779 79.0963 22.5671C78.9565 22.5563 78.8163 22.5841 78.6911 22.6474L77.7292 23.2032C77.5809 23.3169 77.4646 23.4669 77.3914 23.6388C77.3182 23.8107 77.2906 23.9986 77.3114 24.1843C77.3213 24.6356 77.4363 25.0784 77.6472 25.4776C77.858 25.8767 78.1591 26.2212 78.5263 26.4838C78.6399 26.5649 78.7734 26.6135 78.9125 26.6243C79.0517 26.6351 79.1911 26.6077 79.3158 26.5451L80.2778 25.9894C80.4269 25.8764 80.5439 25.7265 80.6171 25.5544C80.6904 25.3823 80.7174 25.194 80.6955 25.0083Z" fill="#263238"/>
<path d="M79.1472 26.7584C79.6827 26.5313 79.7923 25.5817 79.3919 24.6373C78.9916 23.6928 78.2329 23.1112 77.6974 23.3382C77.1619 23.5652 77.0523 24.5149 77.4527 25.4593C77.8531 26.4038 78.6117 26.9854 79.1472 26.7584Z" fill="#263238"/>
<path d="M80.1246 26.2462C80.1246 24.6135 79.1282 22.7126 77.9056 22.0074C77.6966 21.8588 77.4513 21.7693 77.1957 21.7484C76.9401 21.7275 76.6835 21.7759 76.4531 21.8886L75.8361 22.245C75.3685 22.5171 75.0696 23.1457 75.0696 24.0386C75.0696 25.6713 76.0622 27.5684 77.2886 28.2774C77.4967 28.4266 77.7416 28.5162 77.9969 28.5365C78.2522 28.5567 78.5082 28.5069 78.7373 28.3924L79.3543 28.0398C79.8257 27.76 80.1246 27.1391 80.1246 26.2462Z" fill="#37474F"/>
<path d="M79.4998 26.6101C79.4998 28.2466 78.5033 28.9978 77.2808 28.2888C76.0582 27.5798 75.0618 25.6827 75.0618 24.05C75.0618 22.4174 76.0544 21.6624 77.2808 22.3714C78.5072 23.0804 79.4998 24.966 79.4998 26.6101Z" fill="#455A64"/>
<path d="M79.0169 26.315C79.0169 27.5874 78.2504 28.1699 77.2923 27.6181C76.3342 27.0662 75.5638 25.5945 75.5638 24.3221C75.5638 23.0497 76.3303 22.4672 77.2923 23.0152C78.2542 23.5633 79.0169 25.0426 79.0169 26.315Z" fill="#E0E0E0"/>
<path d="M81.0328 23.1379C80.8029 22.3331 80.6036 21.4248 80.3392 21.4171C79.8908 21.4171 79.0438 22.2794 79.3006 23.6208C79.5458 24.9009 80.1667 26.3994 80.2127 26.7711L82.5122 25.127C81.8123 24.6461 81.292 23.9465 81.0328 23.1379Z" fill="#C8856A"/>
<path d="M85.0145 117.383L86.6702 125.596L88.2798 126.524L89.8741 125.604L91.5451 117.383L88.2798 115.497L85.0145 117.383Z" fill="#455A64"/>
<path d="M88.2798 126.524V119.269L85.0145 117.383L86.6702 125.596L88.2798 126.524Z" fill="#37474F"/>
<path opacity="0.2" d="M85.0145 117.383L86.0838 122.687L88.2798 123.956L90.4643 122.691L91.5451 117.383L88.2798 115.497L85.0145 117.383Z" fill="black"/>
<path d="M61.9161 104.046L63.5718 112.259L65.1814 113.187L66.7757 112.267L68.4467 104.046L65.1814 102.16L61.9161 104.046Z" fill="#455A64"/>
<path d="M65.1814 113.187V105.932L61.9161 104.046L63.5718 112.259L65.1814 113.187Z" fill="#37474F"/>
<path opacity="0.2" d="M61.9161 104.046L62.9854 109.35L65.1814 110.619L67.366 109.354L68.4467 104.046L65.1814 102.16L61.9161 104.046Z" fill="black"/>
<path d="M67.6189 100.348V83.1205L61.0155 79.3071V104.157L67.6189 100.348Z" fill="#007BFF"/>
<path opacity="0.5" d="M67.6189 100.348V83.1205L61.0155 79.3071V104.157L67.6189 100.348Z" fill="black"/>
<path d="M58.5818 75.0838L62.763 72.6693L92.4611 89.8159L88.2798 92.2304L58.5818 75.0838Z" fill="#007BFF"/>
<g opacity="0.4">
<path d="M58.5819 75.0838L62.7632 72.6693L92.4612 89.8159L88.2799 92.2304L58.5819 75.0838Z" fill="white"/>
</g>
<path d="M88.28 92.2304V122.714L92.4613 120.3V89.8159L88.28 92.2304Z" fill="#007BFF"/>
<path d="M58.5781 75.0837V105.564L88.28 122.714V92.2342L58.5781 75.0837ZM85.8425 118.491L61.0156 104.157V79.3072L85.8425 93.6369V118.491Z" fill="#007BFF"/>
<path opacity="0.3" d="M58.5781 75.0837V105.564L88.28 122.714V92.2342L58.5781 75.0837ZM85.8425 118.491L61.0156 104.157V79.3072L85.8425 93.6369V118.491Z" fill="black"/>
<path d="M65.2006 101.743L61.0155 104.157L85.8424 118.491V113.658L65.2006 101.743Z" fill="#007BFF"/>
<path opacity="0.5" d="M65.2006 101.743L61.0155 104.157L85.8424 118.491V113.658L65.2006 101.743Z" fill="black"/>
<path d="M65.2006 101.743L61.0155 104.157V79.311L65.1968 81.7255L65.2006 101.743Z" fill="#007BFF"/>
<path opacity="0.4" d="M65.2006 101.743L61.0155 104.157V79.311L65.1968 81.7255L65.2006 101.743Z" fill="black"/>
<path d="M54.4236 96.2814L27.5501 111.795C27.038 112.128 26.6118 112.577 26.3061 113.106C26.0004 113.635 25.8239 114.228 25.791 114.838V120.434C25.8233 121.044 25.9995 121.639 26.3052 122.168C26.6109 122.698 27.0375 123.147 27.5501 123.481L55.4622 139.627C56.0076 139.903 56.6102 140.046 57.2213 140.046C57.8325 140.046 58.4351 139.903 58.9804 139.627L85.8501 124.113C86.3619 123.779 86.7878 123.329 87.0934 122.8C87.399 122.27 87.5757 121.676 87.6092 121.066V115.475C87.5751 114.864 87.3981 114.271 87.0926 113.742C86.787 113.212 86.3614 112.762 85.8501 112.428L57.9342 96.2814C57.3898 96.0068 56.7886 95.8638 56.1789 95.8638C55.5692 95.8638 54.968 96.0068 54.4236 96.2814Z" fill="#455A64"/>
<path d="M85.8578 112.428L57.9419 96.2812C57.3965 96.0054 56.7939 95.8617 56.1828 95.8617C55.5716 95.8617 54.969 96.0054 54.4236 96.2812L27.5502 111.795C26.5767 112.355 26.5767 113.263 27.5502 113.823L55.4622 129.977C56.0076 130.252 56.6102 130.396 57.2214 130.396C57.8325 130.396 58.4351 130.252 58.9805 129.977L85.8501 114.459C86.8274 113.899 86.8274 112.991 85.8578 112.428Z" fill="black"/>
<path d="M25.791 120.434V114.838C25.791 113.719 26.5575 113.263 27.5501 113.823L55.4622 129.977C55.9737 130.31 56.3995 130.76 56.7051 131.288C57.0107 131.817 57.1875 132.41 57.2213 133.02V138.611C57.2213 139.734 56.4318 140.187 55.4622 139.627L27.5425 123.481C27.0313 123.147 26.6062 122.696 26.3018 122.167C25.9975 121.638 25.8225 121.044 25.791 120.434Z" fill="#263238"/>
<path d="M57.229 138.611V133.02C57.2619 132.41 57.4384 131.816 57.7441 131.287C58.0498 130.759 58.476 130.309 58.9881 129.977L85.8578 114.459C86.8274 113.899 87.6169 114.355 87.6169 115.474V121.066C87.5834 121.676 87.4067 122.27 87.1011 122.799C86.7955 123.329 86.3695 123.779 85.8578 124.113L58.9881 139.627C58.0147 140.186 57.229 139.734 57.229 138.611Z" fill="#37474F"/>
<path d="M54.4236 85.8646L27.5501 101.375C27.0379 101.708 26.6117 102.158 26.306 102.688C26.0004 103.217 25.8239 103.811 25.791 104.422V110.017C25.8239 110.627 26.0004 111.22 26.3061 111.749C26.6118 112.278 27.038 112.727 27.5501 113.06L55.4622 129.21C56.0076 129.486 56.6102 129.63 57.2213 129.63C57.8325 129.63 58.4351 129.486 58.9804 129.21L85.8501 113.692C86.3616 113.359 86.7873 112.91 87.0929 112.381C87.3986 111.852 87.5754 111.259 87.6092 110.649V105.058C87.576 104.447 87.3994 103.853 87.0938 103.324C86.7882 102.795 86.3621 102.345 85.8501 102.011L57.9418 85.8646C57.3965 85.5888 56.7939 85.4451 56.1827 85.4451C55.5716 85.4451 54.969 85.5888 54.4236 85.8646Z" fill="#455A64"/>
<path d="M85.8578 102.011L57.9419 85.8646C57.3965 85.5888 56.7939 85.4451 56.1828 85.4451C55.5716 85.4451 54.969 85.5888 54.4236 85.8646L27.5502 101.375C26.5767 101.938 26.5767 102.846 27.5502 103.406L55.4622 119.556C56.0071 119.834 56.6099 119.978 57.2214 119.978C57.8328 119.978 58.4356 119.834 58.9805 119.556L85.8578 104.031C86.8274 103.483 86.8274 102.57 85.8578 102.011Z" fill="#455A64"/>
<path d="M25.791 110.017V104.414C25.791 103.291 26.5575 102.839 27.5501 103.398L55.4622 119.556C55.974 119.89 56.3999 120.34 56.7055 120.87C57.0111 121.399 57.1878 121.993 57.2213 122.603V128.195C57.2213 129.314 56.4318 129.77 55.4622 129.21L27.5425 113.06C27.0318 112.726 26.607 112.277 26.3027 111.748C25.9984 111.219 25.8231 110.626 25.791 110.017Z" fill="#263238"/>
<path d="M57.229 128.195V122.603C57.2619 121.992 57.4384 121.398 57.744 120.869C58.0497 120.34 58.4759 119.89 58.9881 119.556L85.8578 104.031C86.8274 103.471 87.6169 103.923 87.6169 105.046V110.638C87.5831 111.248 87.4062 111.841 87.1006 112.369C86.795 112.898 86.3692 113.347 85.8578 113.681L58.9881 129.21C58.0147 129.77 57.229 129.325 57.229 128.195Z" fill="#37474F"/>
<path d="M55.5313 61.6011L58.5973 63.3793C59.1215 63.7226 59.5712 64.1679 59.9196 64.6887C60.2679 65.2096 60.5077 65.7953 60.6247 66.4109L63.4032 87.1677C63.4536 87.7602 63.3414 88.3553 63.0787 88.8888C62.816 89.4223 62.4128 89.874 61.9124 90.1953L35.0428 105.709C34.4977 105.986 33.895 106.13 33.2836 106.13C32.6723 106.13 32.0696 105.986 31.5245 105.709L28.4585 103.931C27.9336 103.59 27.4833 103.147 27.1348 102.627C26.7864 102.107 26.547 101.522 26.4311 100.907L23.6526 80.1465C23.6023 79.5535 23.7146 78.9579 23.9772 78.4238C24.2399 77.8898 24.643 77.4373 25.1434 77.115L52.0131 61.6011C52.5584 61.3252 53.161 61.1815 53.7722 61.1815C54.3833 61.1815 54.9859 61.3252 55.5313 61.6011Z" fill="#455A64"/>
<path d="M28.4124 103.927L31.5205 105.702C32.494 106.257 33.1647 105.809 33.0152 104.698L30.252 83.9561C30.1356 83.3403 29.8961 82.7543 29.5477 82.2334C29.1993 81.7125 28.7493 81.2673 28.2246 80.9246L25.1586 79.1463C24.189 78.5867 23.5183 79.0313 23.6639 80.1466L26.4003 100.907C26.5133 101.521 26.75 102.105 27.0959 102.624C27.4418 103.143 27.8897 103.587 28.4124 103.927Z" fill="#263238"/>
<path d="M25.1432 77.115L52.0129 61.6011C52.5582 61.3252 53.1608 61.1815 53.772 61.1815C54.3832 61.1815 54.9857 61.3252 55.5311 61.6011L58.5971 63.3793C59.5706 63.9427 59.5706 64.851 58.5971 65.4106L31.7275 80.9245C31.1826 81.2021 30.5798 81.3469 29.9683 81.3469C29.3569 81.3469 28.7541 81.2021 28.2092 80.9245L25.1432 79.1463C24.1736 78.5867 24.1736 77.6784 25.1432 77.115Z" fill="#455A64"/>
<path d="M58.6125 65.4105L31.7429 80.9244C31.244 81.2482 30.842 81.701 30.5795 82.2347C30.317 82.7684 30.2039 83.3631 30.252 83.9559L33.0153 104.697C33.1647 105.809 34.073 106.253 35.0426 105.694L61.9123 90.1799C62.4127 89.8586 62.8159 89.4068 63.0786 88.8733C63.3413 88.3398 63.4535 87.7448 63.4031 87.1522L60.6399 66.4108C60.4904 65.2993 59.586 64.8509 58.6125 65.4105Z" fill="#37474F"/>
<path d="M71.6121 135.423L74.0725 135.618L74.0534 133.878L72.2023 134.472L71.6121 135.423Z" fill="black"/>
<path d="M71.2172 130.632C71.2172 130.632 70.4967 131.958 70.2744 132.376C70.0521 132.793 71.2594 134.989 71.612 135.442L72.2022 134.491C72.3863 135.183 72.4828 135.895 72.4896 136.611C72.5548 137.377 72.4628 138.757 73.0607 139.998C73.9498 141.846 75.912 143.49 78.1579 144.643C80.4037 145.797 81.9904 145.847 82.8603 145.655C83.7303 145.464 84.2209 144.981 84.3282 144.325C84.4355 143.67 71.2172 130.632 71.2172 130.632Z" fill="#263238"/>
<path d="M79.5111 128.846L79.8943 128.079C80.3236 128.263 79.8369 129.432 79.9825 130.728C80.1712 132.648 80.6052 134.536 81.274 136.346C82.6001 139.546 84.0488 141.842 84.639 143.275C85.4055 145.192 82.0482 146.081 78.415 144.122C76.6099 143.153 73.7585 140.673 73.3446 139.14C72.9307 137.607 73.1645 135.645 72.7966 134.503C72.4286 133.361 71.2137 131.82 71.2061 130.632C71.2061 129.984 71.9151 128.808 72.5589 127.83C73.1491 126.93 73.8696 125.462 74.3564 125.837L74.1647 126.351C74.1877 126.88 74.3755 127.815 75.7514 128.769C76.4528 129.245 78.6449 130.352 79.5111 128.846Z" fill="#007BFF"/>
<path opacity="0.4" d="M79.5111 128.846L79.8943 128.079C80.3236 128.263 79.8369 129.432 79.9825 130.728C80.1712 132.648 80.6052 134.536 81.274 136.346C82.6001 139.546 84.0488 141.842 84.639 143.275C85.4055 145.192 82.0482 146.081 78.415 144.122C76.6099 143.153 73.7585 140.673 73.3446 139.14C72.9307 137.607 73.1645 135.645 72.7966 134.503C72.4286 133.361 71.2137 131.82 71.2061 130.632C71.2061 129.984 71.9151 128.808 72.5589 127.83C73.1491 126.93 73.8696 125.462 74.3564 125.837L74.1647 126.351C74.1877 126.88 74.3755 127.815 75.7514 128.769C76.4528 129.245 78.6449 130.352 79.5111 128.846Z" fill="black"/>
<path opacity="0.15" d="M76.943 129.367C77.6865 129.639 78.5642 129.75 79.1621 129.26H79.185C79.0156 129.513 78.9067 129.803 78.8669 130.105C78.827 130.407 78.8572 130.715 78.9551 131.004C79.2579 132.096 80.8943 139.577 80.8943 139.577C80.8943 139.577 79.0969 133.196 78.7443 131.989C78.2231 130.207 77.9395 129.892 76.9392 129.379L76.943 129.367Z" fill="black"/>
<path opacity="0.15" d="M77.1923 131.264C77.1754 131.293 77.153 131.317 77.1264 131.337C77.0998 131.357 77.0696 131.371 77.0375 131.379C77.0054 131.386 76.9721 131.388 76.9394 131.383C76.9068 131.378 76.8755 131.366 76.8474 131.349C76.8043 131.323 76.7698 131.285 76.7484 131.239C76.7269 131.194 76.7195 131.143 76.7269 131.094C76.7344 131.044 76.7565 130.998 76.7903 130.961C76.8241 130.924 76.8683 130.898 76.917 130.886C76.9658 130.874 77.0169 130.877 77.0641 130.894C77.1112 130.911 77.1521 130.942 77.1816 130.983C77.2112 131.023 77.2279 131.072 77.2298 131.122C77.2317 131.172 77.2187 131.222 77.1923 131.264Z" fill="black"/>
<path opacity="0.15" d="M77.7249 132.996C77.7076 133.025 77.6848 133.05 77.6579 133.07C77.631 133.089 77.6004 133.103 77.568 133.111C77.5356 133.119 77.502 133.12 77.469 133.115C77.4361 133.11 77.4045 133.098 77.3761 133.081C77.3193 133.045 77.2787 132.989 77.2629 132.924C77.2472 132.858 77.2575 132.79 77.2918 132.732C77.3094 132.704 77.3324 132.679 77.3594 132.66C77.3865 132.641 77.4171 132.627 77.4495 132.62C77.4819 132.612 77.5154 132.611 77.5482 132.617C77.581 132.622 77.6124 132.634 77.6406 132.652C77.6689 132.668 77.6937 132.691 77.7133 132.717C77.733 132.744 77.7471 132.774 77.7549 132.806C77.7628 132.838 77.7642 132.872 77.759 132.904C77.7539 132.937 77.7422 132.968 77.7249 132.996Z" fill="black"/>
<path opacity="0.15" d="M78.2539 134.729C78.2282 134.772 78.1902 134.806 78.1449 134.828C78.0995 134.849 78.0488 134.857 77.9991 134.849C77.9495 134.842 77.9032 134.82 77.8662 134.786C77.8291 134.752 77.803 134.708 77.791 134.659C77.7791 134.611 77.782 134.559 77.7992 134.512C77.8165 134.465 77.8474 134.424 77.888 134.395C77.9286 134.365 77.977 134.348 78.0272 134.346C78.0773 134.345 78.1269 134.358 78.1696 134.384C78.198 134.401 78.2227 134.423 78.2424 134.45C78.262 134.476 78.2762 134.507 78.284 134.539C78.2919 134.571 78.2932 134.604 78.2881 134.637C78.2829 134.67 78.2713 134.701 78.2539 134.729Z" fill="black"/>
<path opacity="0.15" d="M78.7865 136.461C78.7692 136.49 78.7464 136.514 78.7195 136.534C78.6926 136.554 78.662 136.568 78.6296 136.576C78.5972 136.584 78.5636 136.585 78.5307 136.58C78.4977 136.575 78.4661 136.563 78.4377 136.545C78.3952 136.519 78.3613 136.481 78.3404 136.436C78.3195 136.39 78.3126 136.34 78.3204 136.29C78.3282 136.241 78.3504 136.195 78.3843 136.158C78.4182 136.122 78.4622 136.096 78.5108 136.084C78.5593 136.072 78.6103 136.075 78.6572 136.092C78.7041 136.11 78.7449 136.14 78.7744 136.181C78.8039 136.221 78.8208 136.269 78.8229 136.319C78.8251 136.369 78.8124 136.418 78.7865 136.461Z" fill="black"/>
<path opacity="0.15" d="M79.3154 138.194C79.3006 138.226 79.2792 138.255 79.2523 138.279C79.2255 138.303 79.1939 138.32 79.1597 138.331C79.1255 138.342 79.0895 138.345 79.0539 138.34C79.0184 138.336 78.9842 138.324 78.9536 138.306C78.923 138.287 78.8967 138.262 78.8764 138.233C78.8561 138.203 78.8423 138.17 78.8359 138.134C78.8296 138.099 78.8308 138.063 78.8394 138.028C78.8481 137.994 78.864 137.961 78.8861 137.933C78.9009 137.9 78.9224 137.871 78.9492 137.847C78.976 137.824 79.0076 137.806 79.0418 137.795C79.076 137.785 79.1121 137.782 79.1476 137.786C79.1831 137.79 79.2174 137.802 79.248 137.821C79.2786 137.839 79.3049 137.864 79.3252 137.894C79.3454 137.923 79.3592 137.957 79.3656 137.992C79.372 138.027 79.3708 138.063 79.3621 138.098C79.3535 138.133 79.3375 138.165 79.3154 138.194Z" fill="black"/>
<path d="M76.9239 131.241C76.9018 131.229 76.8853 131.208 76.8779 131.184C76.8731 131.172 76.8709 131.158 76.8714 131.145C76.8719 131.132 76.8752 131.119 76.8809 131.107C76.8867 131.095 76.8948 131.085 76.9049 131.076C76.9149 131.068 76.9266 131.061 76.9392 131.057C77.0082 131.031 78.6025 130.486 80.0052 131.241C80.0285 131.254 80.0461 131.275 80.054 131.3C80.0619 131.325 80.0595 131.352 80.0474 131.375C80.0344 131.399 80.0127 131.417 79.9869 131.425C79.9612 131.432 79.9334 131.43 79.9094 131.418C78.591 130.705 77.0312 131.238 77.0159 131.241C77.0015 131.248 76.9858 131.252 76.9699 131.252C76.954 131.252 76.9383 131.248 76.9239 131.241Z" fill="#263238"/>
<path d="M77.4605 132.951C77.4436 132.942 77.4294 132.929 77.4195 132.912C77.4097 132.896 77.4044 132.878 77.4044 132.859C77.4044 132.84 77.4097 132.821 77.4195 132.805C77.4294 132.789 77.4436 132.775 77.4605 132.767C77.5295 132.744 79.1238 132.196 80.5265 132.954C80.5492 132.967 80.5659 132.989 80.573 133.014C80.5802 133.039 80.5773 133.066 80.5648 133.089C80.5518 133.112 80.5301 133.13 80.5044 133.138C80.4786 133.146 80.4508 133.143 80.4269 133.131C79.1123 132.418 77.5486 132.951 77.5333 132.958C77.5088 132.963 77.4834 132.961 77.4605 132.951Z" fill="#263238"/>
<path d="M77.9896 134.691C77.9686 134.678 77.9524 134.659 77.9436 134.637C77.9349 134.611 77.9364 134.584 77.9478 134.559C77.9593 134.535 77.9797 134.516 78.0049 134.507C78.0739 134.484 79.6682 133.939 81.0709 134.694C81.0943 134.708 81.1114 134.73 81.1186 134.755C81.1258 134.781 81.1224 134.809 81.1092 134.832C81.096 134.856 81.074 134.873 81.0482 134.88C81.0223 134.887 80.9946 134.884 80.9712 134.871C79.649 134.154 78.0739 134.691 78.0739 134.691C78.0466 134.7 78.0168 134.7 77.9896 134.691Z" fill="#263238"/>
<path d="M78.522 136.419C78.5112 136.413 78.5016 136.406 78.4937 136.397C78.4858 136.387 78.4798 136.377 78.476 136.365C78.4712 136.353 78.4689 136.339 78.4694 136.326C78.4699 136.312 78.4731 136.299 78.4789 136.287C78.4846 136.275 78.4927 136.264 78.5028 136.255C78.5128 136.246 78.5246 136.239 78.5373 136.235C78.6025 136.212 80.1968 135.668 81.6033 136.423C81.6149 136.429 81.6251 136.438 81.6333 136.449C81.6415 136.459 81.6475 136.471 81.6511 136.484C81.6546 136.497 81.6556 136.51 81.654 136.523C81.6524 136.536 81.6482 136.549 81.6417 136.561C81.6351 136.572 81.6264 136.582 81.6159 136.591C81.6054 136.599 81.5934 136.605 81.5806 136.608C81.5678 136.612 81.5544 136.613 81.5412 136.611C81.528 136.61 81.5153 136.606 81.5037 136.599C80.1892 135.89 78.6255 136.423 78.6102 136.427C78.5962 136.434 78.5806 136.437 78.565 136.435C78.5494 136.434 78.5346 136.428 78.522 136.419Z" fill="#263238"/>
<path d="M79.051 138.14C79.0309 138.127 79.015 138.108 79.005 138.086C78.9965 138.06 78.9986 138.032 79.0108 138.008C79.023 137.983 79.0444 137.965 79.0702 137.956C79.1354 137.933 80.7297 137.389 82.1362 138.144C82.1591 138.157 82.1759 138.179 82.1831 138.205C82.1902 138.231 82.1872 138.258 82.1745 138.282C82.1615 138.305 82.1399 138.323 82.1141 138.331C82.0883 138.339 82.0605 138.336 82.0365 138.324C80.722 137.611 79.1583 138.144 79.143 138.147C79.1283 138.154 79.1121 138.157 79.096 138.155C79.08 138.154 79.0645 138.149 79.051 138.14Z" fill="#263238"/>
<path d="M85.2326 151.078L87.4286 149.752L86.3632 148.3L85.1598 149.917L85.2326 151.078Z" fill="black"/>
<path d="M82.0096 147.269C82.0096 147.269 82.1974 148.825 82.2664 149.312C82.3354 149.798 84.6771 150.921 85.2328 151.078L85.16 149.929C85.7354 150.403 86.2503 150.946 86.693 151.546C87.218 152.163 87.9653 153.374 89.2224 154.06C91.085 155.083 93.7371 155.286 96.3279 154.903C98.9186 154.52 100.283 153.615 100.927 152.922C101.571 152.228 101.667 151.531 101.364 150.91C101.061 150.289 82.0096 147.269 82.0096 147.269Z" fill="#263238"/>
<path d="M87.9348 140.754L87.8007 139.857C88.2721 139.757 88.5672 141.037 89.4716 142.041C90.7896 143.549 92.2952 144.882 93.9518 146.008C97.0178 147.924 99.6124 148.97 100.977 149.84C102.805 150.99 100.482 153.773 96.2322 154.313C94.1243 154.581 90.2228 154.217 88.9504 153.163C87.678 152.109 86.6854 150.32 85.6851 149.576C84.6848 148.833 82.7264 148.261 82.0059 147.277C81.6227 146.732 81.5 145.31 81.454 144.096C81.4081 142.976 81.1321 141.302 81.7721 141.325L81.9178 141.877C82.2589 142.306 82.9832 142.984 84.7193 142.957C85.5893 142.938 88.1111 142.547 87.9348 140.754Z" fill="#007BFF"/>
<path opacity="0.3" d="M87.9348 140.754L87.8007 139.857C88.2721 139.757 88.5672 141.037 89.4716 142.041C90.7896 143.549 92.2952 144.882 93.9518 146.008C97.0178 147.924 99.6124 148.97 100.977 149.84C102.805 150.99 100.482 153.773 96.2322 154.313C94.1243 154.581 90.2228 154.217 88.9504 153.163C87.678 152.109 86.6854 150.32 85.6851 149.576C84.6848 148.833 82.7264 148.261 82.0059 147.277C81.6227 146.732 81.5 145.31 81.454 144.096C81.4081 142.976 81.1321 141.302 81.7721 141.325L81.9178 141.877C82.2589 142.306 82.9832 142.984 84.7193 142.957C85.5893 142.938 88.1111 142.547 87.9348 140.754Z" fill="black"/>
<path opacity="0.15" d="M86.0837 142.739C86.8732 142.524 87.6896 142.099 87.8927 141.309C87.8927 141.309 87.8927 141.309 87.8927 141.286C87.9036 141.602 87.9866 141.912 88.1354 142.191C88.2842 142.47 88.4948 142.711 88.7512 142.896C89.6671 143.639 95.5653 148.967 95.5653 148.967C95.5653 148.967 90.2037 144.655 89.1881 143.862C87.6551 142.666 87.2412 142.574 86.0876 142.746L86.0837 142.739Z" fill="black"/>
<path opacity="0.15" d="M87.4366 144.195C87.4402 144.246 87.4286 144.298 87.4031 144.342C87.3776 144.387 87.3395 144.423 87.2934 144.446C87.2474 144.47 87.1956 144.478 87.1445 144.472C87.0934 144.466 87.0453 144.444 87.0064 144.411C86.9674 144.377 86.9392 144.333 86.9255 144.283C86.9117 144.233 86.913 144.181 86.9291 144.132C86.9452 144.083 86.9754 144.04 87.0159 144.008C87.0564 143.977 87.1055 143.958 87.1568 143.954C87.1911 143.951 87.2255 143.955 87.2581 143.966C87.2907 143.977 87.3209 143.994 87.3469 144.016C87.3729 144.039 87.3942 144.066 87.4096 144.097C87.425 144.127 87.4342 144.161 87.4366 144.195Z" fill="black"/>
<path opacity="0.15" d="M88.9311 145.337C88.9337 145.372 88.9295 145.406 88.9188 145.439C88.9081 145.471 88.891 145.501 88.8685 145.527C88.8461 145.553 88.8187 145.575 88.788 145.59C88.7573 145.605 88.7239 145.615 88.6897 145.617C88.6554 145.62 88.621 145.615 88.5885 145.605C88.5559 145.594 88.5257 145.577 88.4998 145.554C88.4738 145.532 88.4525 145.505 88.4371 145.474C88.4216 145.443 88.4124 145.41 88.4099 145.376C88.4074 145.341 88.4116 145.307 88.4224 145.274C88.4332 145.242 88.4502 145.212 88.4727 145.186C88.4951 145.16 88.5224 145.138 88.5531 145.123C88.5837 145.108 88.6171 145.098 88.6513 145.096C88.7203 145.092 88.7881 145.114 88.8404 145.16C88.8927 145.205 88.9252 145.268 88.9311 145.337Z" fill="black"/>
<path opacity="0.15" d="M90.426 146.479C90.4296 146.531 90.4179 146.582 90.3925 146.627C90.367 146.671 90.3288 146.708 90.2828 146.731C90.2368 146.754 90.185 146.763 90.1339 146.756C90.0828 146.75 90.0347 146.729 89.9957 146.695C89.9568 146.661 89.9286 146.617 89.9149 146.567C89.9011 146.518 89.9024 146.465 89.9185 146.416C89.9346 146.367 89.9648 146.324 90.0053 146.292C90.0458 146.261 90.0949 146.242 90.1462 146.238C90.2151 146.234 90.283 146.256 90.3353 146.302C90.3875 146.347 90.4201 146.41 90.426 146.479Z" fill="black"/>
<path opacity="0.15" d="M91.9205 147.621C91.9241 147.673 91.9125 147.724 91.887 147.769C91.8615 147.813 91.8233 147.85 91.7773 147.873C91.7313 147.896 91.6795 147.905 91.6284 147.898C91.5773 147.892 91.5292 147.871 91.4902 147.837C91.4513 147.803 91.4231 147.759 91.4094 147.709C91.3956 147.66 91.3969 147.607 91.413 147.558C91.4291 147.509 91.4593 147.466 91.4998 147.435C91.5403 147.403 91.5894 147.384 91.6407 147.38C91.7094 147.377 91.7767 147.4 91.8288 147.445C91.8809 147.49 91.9137 147.553 91.9205 147.621Z" fill="black"/>
<path opacity="0.15" d="M93.4039 148.767C93.409 148.836 93.3864 148.905 93.3411 148.957C93.2958 149.01 93.2315 149.042 93.1624 149.047C93.0933 149.052 93.025 149.03 92.9725 148.984C92.9201 148.939 92.8877 148.875 92.8827 148.806C92.8795 148.771 92.8833 148.737 92.8939 148.704C92.9044 148.671 92.9214 148.641 92.944 148.615C92.9665 148.588 92.9941 148.567 93.025 148.552C93.056 148.537 93.0897 148.528 93.1241 148.526C93.1583 148.523 93.1928 148.527 93.2254 148.538C93.258 148.549 93.2882 148.566 93.3142 148.588C93.3402 148.611 93.3615 148.638 93.3769 148.669C93.3923 148.7 93.4014 148.733 93.4039 148.767Z" fill="black"/>
<path d="M87.1872 144.318C87.1672 144.32 87.1471 144.316 87.1292 144.307C87.1114 144.298 87.0964 144.284 87.086 144.267C87.0757 144.249 87.0703 144.23 87.0706 144.21C87.0708 144.19 87.0767 144.17 87.0875 144.153C87.1297 144.092 88.1491 142.67 89.7703 142.467C89.7977 142.464 89.8252 142.472 89.8468 142.489C89.8683 142.506 89.8822 142.531 89.8852 142.559C89.8883 142.586 89.8803 142.614 89.8631 142.635C89.8458 142.657 89.8207 142.671 89.7932 142.674C88.2602 142.869 87.2561 144.26 87.2446 144.276C87.2302 144.295 87.2102 144.31 87.1872 144.318Z" fill="#263238"/>
<path d="M88.6782 145.456C88.6561 145.465 88.6314 145.465 88.6092 145.456C88.5973 145.449 88.5871 145.439 88.5792 145.427C88.5713 145.416 88.5659 145.403 88.5634 145.389C88.5609 145.375 88.5613 145.361 88.5645 145.348C88.5678 145.334 88.5739 145.321 88.5824 145.31C88.6246 145.249 89.6402 143.827 91.2652 143.624C91.2926 143.621 91.3201 143.629 91.3417 143.646C91.3633 143.663 91.3771 143.689 91.3801 143.716C91.3832 143.743 91.3752 143.771 91.358 143.793C91.3407 143.814 91.3156 143.828 91.2882 143.831C89.7552 144.026 88.751 145.418 88.7395 145.433C88.7217 145.446 88.7004 145.454 88.6782 145.456Z" fill="#263238"/>
<path d="M90.1768 146.606C90.153 146.613 90.1277 146.613 90.104 146.606C90.0924 146.598 90.0825 146.587 90.0749 146.576C90.0672 146.564 90.062 146.55 90.0596 146.537C90.0571 146.523 90.0573 146.508 90.0603 146.495C90.0634 146.481 90.0691 146.468 90.0771 146.456C90.1193 146.399 91.1387 144.977 92.7599 144.77C92.7735 144.768 92.7873 144.77 92.8004 144.773C92.8136 144.777 92.8259 144.783 92.8366 144.792C92.8473 144.801 92.8562 144.811 92.8627 144.823C92.8693 144.835 92.8734 144.848 92.8748 144.862C92.8781 144.89 92.8703 144.918 92.8531 144.94C92.8359 144.962 92.8107 144.977 92.7829 144.981C91.2499 145.172 90.2458 146.564 90.2343 146.579C90.2182 146.593 90.1982 146.603 90.1768 146.606Z" fill="#263238"/>
<path d="M91.6715 147.748C91.6457 147.75 91.6201 147.743 91.5987 147.729C91.5872 147.721 91.5774 147.711 91.5698 147.7C91.5623 147.688 91.5571 147.675 91.5546 147.662C91.5521 147.648 91.5523 147.634 91.5553 147.621C91.5582 147.607 91.5639 147.594 91.5718 147.583C91.614 147.522 92.6334 146.1 94.2546 145.893C94.2801 145.894 94.3044 145.905 94.3231 145.922C94.3417 145.94 94.3535 145.963 94.3563 145.989C94.359 146.014 94.3526 146.04 94.3382 146.061C94.3238 146.082 94.3023 146.097 94.2776 146.104C92.7446 146.295 91.7405 147.691 91.729 147.702C91.7158 147.724 91.6955 147.74 91.6715 147.748Z" fill="#263238"/>
<path d="M93.166 148.89C93.1401 148.893 93.114 148.886 93.0932 148.871C93.0708 148.855 93.0556 148.83 93.0506 148.803C93.0456 148.776 93.0512 148.748 93.0663 148.725C93.1085 148.664 94.1279 147.242 95.7491 147.035C95.7746 147.036 95.7989 147.046 95.8176 147.064C95.8362 147.081 95.848 147.105 95.8508 147.13C95.8535 147.156 95.8471 147.181 95.8327 147.203C95.8183 147.224 95.7968 147.239 95.7721 147.246C94.2391 147.437 93.235 148.832 93.2235 148.844C93.2103 148.865 93.19 148.882 93.166 148.89Z" fill="#263238"/>
<path d="M84.0677 127.509C84.5429 124.707 85.2634 120.418 85.708 117.544C86.4132 112.976 86.8846 108.22 86.0644 106.173C85.2979 104.234 81.2393 101.724 76.9776 99.1596C72.7158 96.5956 64.4836 92.3224 64.4836 92.3224L42.738 96.1166C43.2554 100.01 43.47 101.919 45.4208 105.391C47.3179 108.748 49.97 110.883 55.1553 113.566C59.808 115.973 65.323 118.548 66.5417 119.169C68.0747 119.936 69.5272 120.545 70.2477 122.944C70.9337 125.244 71.8574 129.233 74.7586 134.005C78.0737 139.474 81.0324 144.333 81.0324 144.333C81.0324 144.333 86.3327 144.904 89.1764 140.727C89.1879 140.742 86.7275 134.307 84.0677 127.509Z" fill="#263238"/>
<path d="M84.0679 127.508C84.409 125.746 84.7386 123.979 85.0452 122.208C85.3518 120.438 85.6584 118.671 85.9458 116.896C86.2332 115.122 86.4249 113.332 86.5283 111.531C86.5743 110.63 86.5973 109.73 86.5552 108.829C86.5315 107.927 86.366 107.035 86.0646 106.184C86.3228 107.043 86.4432 107.937 86.421 108.833C86.421 109.726 86.3904 110.622 86.3175 111.515C86.1757 113.301 85.9343 115.08 85.6775 116.854L84.842 122.174C84.5686 123.952 84.3106 125.73 84.0679 127.508Z" fill="#263238"/>
<path d="M46.6088 98.3009L60.789 98.4159L62.0538 100.995C60.7162 103.919 59.302 103.877 56.305 103.904C53.9065 103.988 51.5155 104.221 49.1459 104.602C49.1459 104.602 64.8975 114.183 67.9251 115.892C70.9528 117.601 72.9841 120.717 74.5899 127.045C75.8776 132.115 80.9403 140.179 83.8607 144.153C82.9367 144.349 81.9898 144.415 81.0476 144.348C81.0476 144.348 78.0889 139.489 74.7738 134.02C71.8726 129.248 70.9413 125.247 70.263 122.959C69.5425 120.56 68.1015 119.962 66.557 119.184C65.3382 118.571 59.8233 115.988 55.1706 113.581C49.9852 110.898 47.3331 108.764 45.4361 105.406C44.3025 103.503 43.5428 101.401 43.1979 99.213L46.6088 98.3009Z" fill="black"/>
<path d="M83.4392 125.899C80.9404 119.51 78.4186 113.19 77.7134 111.841C76.2072 108.974 63.4833 101.041 63.0809 100.792L63.6673 99.9335C64.2978 98.9219 64.7067 97.7881 64.8669 96.6069C64.9642 97.8858 64.7851 99.1707 64.3418 100.374C66.3002 101.647 71.2748 104.874 73.2677 106.25C75.7742 107.978 78.4416 110.082 79.5607 113.075C80.3732 115.302 82.435 122.38 83.4392 125.899Z" fill="black"/>
<path d="M79.6067 142.233L80.8063 144.463C80.8063 144.463 87.149 145.391 89.3451 140.765L88.4674 138.554C87.4365 141.164 82.7187 142.88 79.6067 142.233Z" fill="black"/>
<path d="M88.6018 56.6839C88.234 56.6402 87.8612 56.6944 87.521 56.841C87.1244 57.0234 86.7458 57.2428 86.3904 57.4963C85.8347 57.8796 84.7118 58.9259 83.9261 59.4548C83.4317 59.7844 82.9373 60.2213 82.3356 60.2941C82.1325 60.3171 81.7071 60.2941 81.9524 60.0105C82.2779 59.6526 82.5727 59.268 82.8339 58.8607C82.9615 58.6524 83.0448 58.4199 83.0784 58.1779C83.1121 57.9358 83.0953 57.6895 83.0293 57.4542C82.9873 57.3123 82.8946 57.1909 82.7687 57.1131C82.5848 57.0135 82.4813 57.1131 82.3663 57.2281C82.2473 57.35 82.1192 57.4628 81.9831 57.5653C81.6995 57.7876 81.4197 58.0099 81.1399 58.2399C79.5111 59.5659 77.2882 60.9609 76.5141 62.9615C76.0594 64.191 75.8008 65.4842 75.7476 66.794C75.6134 69.0283 74.732 75.2446 74.732 75.2446C74.732 75.2446 70.1061 72.9183 67.067 71.1822C63.6982 69.266 62.0004 68.0894 59.5514 67.7138C58.0536 67.5279 56.533 67.7257 55.1326 68.2887L63.9895 79.5524C63.9895 79.5524 70.3131 82.1661 74.5748 83.7681C78.2617 85.1632 79.7525 85.0022 80.5344 83.8984C81.7378 82.1968 82.5886 82.1355 81.5117 72.3473C81.435 71.6536 81.4273 70.9561 81.389 70.2586C81.366 68.8099 81.0862 67.8211 82.1823 67.0661C83.6249 66.1018 84.9873 65.0226 86.2563 63.8391C86.8273 63.3103 86.9576 62.6204 87.406 61.9957C87.666 61.7169 87.8645 61.3865 87.9886 61.0261C88.0422 60.6888 87.9119 60.3247 88.0346 59.999C88.115 59.7767 88.276 59.6157 88.3488 59.3589C88.4906 58.8722 88.4791 58.305 88.8164 57.8949C89.0004 57.6688 89.2993 57.4734 89.2763 57.1821C89.2533 56.8908 89.0272 56.7988 88.8011 56.7222C88.7355 56.7054 88.6689 56.6926 88.6018 56.6839Z" fill="#B16668"/>
<path d="M74.7164 75.237C74.2374 77.6131 75.023 80.5258 75.023 80.5258C75.023 80.5258 73.1604 77.5212 73.7966 74.7771L74.7164 75.237Z" fill="#B16668"/>
<path d="M56.4279 67.392C59.3406 67.392 60.544 67.7062 62.6518 68.5417C64.7597 69.3772 74.6246 75.1145 74.6246 75.1145C74.6246 75.1145 74.866 74.0644 75.0385 72.7728C75.6632 73.5853 76.3683 74.1793 78.572 74.5166C81.021 74.8998 81.6074 73.4243 81.6074 73.4243C81.6074 73.4243 82.0404 76.6398 82.1439 80.1657C82.2244 82.8484 81.3774 85.5619 77.3265 85.0406C76.583 84.9448 73.6818 84.0442 71.1255 83.2853C68.5692 82.5265 62.832 80.4493 62.832 80.4493L56.4279 67.392Z" fill="#007BFF"/>
<path opacity="0.15" d="M56.4279 67.392C59.3406 67.392 60.544 67.7062 62.6518 68.5417C64.7597 69.3772 74.6246 75.1145 74.6246 75.1145C74.6246 75.1145 74.866 74.0644 75.0385 72.7728C75.6632 73.5853 76.3683 74.1793 78.572 74.5166C81.021 74.8998 81.6074 73.4243 81.6074 73.4243C81.6074 73.4243 82.0404 76.6398 82.1439 80.1657C82.2244 82.8484 81.3774 85.5619 77.3265 85.0406C76.583 84.9448 73.6818 84.0442 71.1255 83.2853C68.5692 82.5265 62.832 80.4493 62.832 80.4493L56.4279 67.392Z" fill="white"/>
<path opacity="0.15" d="M74.6246 75.1143C74.2605 77.1302 74.0689 79.4182 75.0078 81.0815C73.6933 80.0889 73.3714 77.6323 73.6473 74.5663L74.6246 75.1143Z" fill="black"/>
<path d="M81.3734 61.2291C81.0821 62.6855 79.9362 64.4599 79.2042 65.0386C79.9285 64.7885 80.5471 64.3009 80.9595 63.6551C81.5612 62.5628 81.5229 61.7733 81.3734 61.2291Z" fill="#9A4A4D"/>
<path d="M45.1489 68.5494L38.7639 72.06C38.4458 73.9187 38.4458 81.8826 39.2928 88.1143C39.9682 92.683 41.383 97.1113 43.4817 101.225C43.4817 101.225 50.4224 104.004 58.555 100.478C65.7486 97.3583 65.9555 93.0889 65.9555 93.0889L64.3152 88.7696C64.3152 88.7696 62.7362 76.4712 60.544 72.3474C58.3518 68.2236 56.4279 67.392 56.4279 67.392L51.8289 67.8059L45.1489 68.5494Z" fill="#007BFF"/>
<path opacity="0.3" d="M45.1489 68.5494L38.7639 72.06C38.4458 73.9187 38.4458 81.8826 39.2928 88.1143C39.9682 92.683 41.383 97.1113 43.4817 101.225C43.4817 101.225 50.4224 104.004 58.555 100.478C65.7486 97.3583 65.9555 93.0889 65.9555 93.0889L64.3152 88.7696C64.3152 88.7696 62.7362 76.4712 60.544 72.3474C58.3518 68.2236 56.4279 67.392 56.4279 67.392L51.8289 67.8059L45.1489 68.5494Z" fill="white"/>
<path d="M55.5705 55.1964C57.5337 53.6008 56.548 50.6096 55.4968 48.7692C54.1553 46.488 50.9242 45.3862 48.2576 45.7168C42.6379 46.4146 40.233 48.6549 39.505 52.6949C38.5561 57.9591 42.777 62.0807 44.0408 64.8271L44.2453 61.4563C45.5459 61.2115 46.6339 61.5094 47.8322 60.9299C50.7443 59.518 53.2637 57.4368 55.5705 55.1964Z" fill="#37474F"/>
<path d="M45.0838 49.9616C45.1872 51.0155 45.467 53.5182 44.1141 54.9668C44.3939 56.1166 44.6737 57.32 44.5472 58.5119C44.5299 58.7691 44.4622 59.0205 44.3479 59.2516C44.2906 59.3667 44.2081 59.4674 44.1066 59.5463C44.0051 59.6253 43.8872 59.6804 43.7615 59.7077C43.4205 59.769 43.2595 59.5735 43.1254 59.3244C42.9399 58.9961 42.7338 58.6799 42.5083 58.3778C42.4083 58.2453 42.2925 58.1256 42.1634 58.0213C41.5962 57.5921 39.9904 57.1552 39.4347 58.8683C38.8598 60.6428 40.3353 62.4057 41.5885 62.7392C43.3553 63.2106 43.8344 62.0416 43.8344 62.0416L44.3479 69.0398C45.1144 70.7836 49.8246 74.1792 53.5459 75.3519C54.7225 72.7381 53.91 69.2927 52.7143 68.3039L52.5878 66.0044C53.5143 66.0296 54.4335 65.8353 55.2705 65.4372C56.2976 64.9428 57.0603 63.8084 57.2788 62.0531C57.6296 58.7799 57.2995 55.4695 56.3091 52.3301C55.8406 50.8412 54.9515 49.5196 53.749 48.5244C53.8142 48.9575 53.5727 50.0919 51.7676 50.571C49.5026 51.142 46.8007 50.4828 45.0838 49.9616Z" fill="#B16668"/>
<path d="M52.5878 65.9892C50.5872 65.9892 48.5445 65.7976 47.3717 65.3186C46.5094 64.966 45.1412 64.0845 44.8806 63.6284C45.2498 64.5398 45.8839 65.3195 46.7011 65.8666C49.0197 67.2885 52.6414 67.0163 52.6414 67.0163L52.5878 65.9892Z" fill="#9A4A4D"/>
<path d="M47.4141 57.8183C47.5275 57.6679 47.6799 57.5513 47.8548 57.4811C47.8622 57.4763 47.8709 57.4738 47.8797 57.4738C47.8886 57.4738 47.8972 57.4763 47.9046 57.4811C47.9161 57.4957 47.924 57.5127 47.9276 57.5309C47.9306 57.5521 47.9283 57.5736 47.9209 57.5937C47.9136 57.6137 47.9014 57.6316 47.8855 57.6459L47.7782 57.7072L47.7245 57.7417L47.7015 57.7609H47.6824C47.6511 57.787 47.6217 57.8151 47.5942 57.8452L47.5061 57.9333C47.5008 57.9412 47.4937 57.9477 47.4853 57.9522C47.477 57.9567 47.4676 57.959 47.4582 57.959C47.4487 57.959 47.4393 57.9567 47.431 57.9522C47.4226 57.9477 47.4155 57.9412 47.4103 57.9333C47.4026 57.915 47.399 57.8953 47.3996 57.8754C47.4003 57.8556 47.4052 57.8361 47.4141 57.8183Z" fill="#B16668"/>
<path d="M49.9548 56.5306C49.9695 56.6258 49.9651 56.7229 49.942 56.8164C49.9188 56.9099 49.8773 56.9979 49.8199 57.0752C49.7625 57.1526 49.6904 57.2177 49.6076 57.267C49.5249 57.3163 49.4332 57.3486 49.3378 57.3622C49.1443 57.3826 48.9505 57.3255 48.7989 57.2034C48.6474 57.0813 48.5504 56.9042 48.5292 56.7107C48.5094 56.6135 48.51 56.5134 48.5308 56.4164C48.5515 56.3195 48.5921 56.2279 48.6499 56.1473C48.7077 56.0668 48.7815 55.9991 48.8667 55.9483C48.9519 55.8976 49.0466 55.865 49.145 55.8526C49.2433 55.8402 49.3432 55.8482 49.4383 55.8761C49.5334 55.9041 49.6218 55.9513 49.6978 56.015C49.7738 56.0786 49.8359 56.1572 49.8801 56.2459C49.9243 56.3347 49.9498 56.4316 49.9548 56.5306Z" fill="#263238"/>
<path d="M49.4452 54.2079L47.7972 55.1047C47.6791 54.8785 47.653 54.6154 47.7245 54.3704C47.7959 54.1254 47.9593 53.9175 48.1804 53.7902C48.2904 53.732 48.411 53.6967 48.5349 53.6863C48.6589 53.6759 48.7837 53.6907 48.9018 53.7297C49.0199 53.7687 49.1289 53.8312 49.2223 53.9134C49.3156 53.9955 49.3915 54.0957 49.4452 54.2079Z" fill="#263238"/>
<path d="M50.7942 61.0198L53.4149 61.3144C53.4021 61.4801 53.3545 61.6415 53.275 61.7893C53.1956 61.9371 53.0858 62.0682 52.9523 62.1747C52.8187 62.2813 52.6641 62.3612 52.4976 62.4098C52.3311 62.4583 52.1561 62.4745 51.9829 62.4573C51.6305 62.4064 51.3116 62.2295 51.0909 61.9625C50.8701 61.6956 50.7641 61.3586 50.7942 61.0198Z" fill="#9A4A4D"/>
<path d="M52.4957 62.3988C52.3369 62.1083 52.1086 61.8651 51.8326 61.6926C51.5567 61.52 51.2425 61.424 50.9203 61.4137C50.9703 61.6815 51.1002 61.9262 51.2918 62.1134C51.4833 62.3005 51.7268 62.4207 51.9878 62.4568C52.1592 62.4761 52.3325 62.4564 52.4957 62.3988Z" fill="#FFA8A7"/>
<path d="M55.8952 54.0394L54.113 53.5412C54.1426 53.4251 54.1954 53.3163 54.268 53.2212C54.3407 53.126 54.4319 53.0466 54.536 52.9875C54.6402 52.9285 54.7552 52.891 54.8741 52.8775C54.9931 52.864 55.1135 52.8746 55.2283 52.9088C55.464 52.9745 55.6652 53.1289 55.7895 53.3397C55.9138 53.5505 55.9517 53.8013 55.8952 54.0394Z" fill="#263238"/>
<path d="M55.7342 55.8139C55.7465 55.9553 55.717 56.0971 55.6493 56.2219C55.5817 56.3466 55.479 56.4487 55.3538 56.5156C55.2286 56.5824 55.0866 56.6111 54.9453 56.5979C54.804 56.5847 54.6697 56.5303 54.5591 56.4415C54.4484 56.3527 54.3663 56.2333 54.3229 56.0982C54.2795 55.9631 54.2768 55.8183 54.315 55.6816C54.3532 55.545 54.4307 55.4225 54.5379 55.3295C54.645 55.2366 54.7772 55.1771 54.9178 55.1585C55.0146 55.1474 55.1126 55.1555 55.2061 55.1825C55.2997 55.2095 55.387 55.2548 55.4629 55.3157C55.5388 55.3767 55.6019 55.4521 55.6485 55.5376C55.695 55.6231 55.7242 55.717 55.7342 55.8139Z" fill="#263238"/>
<path d="M52.5609 59.4587L54.8144 58.3932C54.4312 56.9024 52.2198 54.8826 51.1851 54.3921L52.5609 59.4587Z" fill="#9A4A4D"/>
<path d="M53.546 75.3518C53.546 75.3518 52.5304 73.244 52.0743 72.1709C51.7869 71.7225 47.5175 70.109 45.9002 68.8749C44.4783 67.7865 44.2139 67.0813 44.2139 67.0813L44.4668 69.2313C44.4668 69.2313 47.1649 75.1909 53.546 75.3518Z" fill="#E0E0E0"/>
<path d="M52.0741 72.171C51.5031 71.5463 48.4102 74.6507 48.0231 75.49C46.4469 74.6944 45.0029 73.6603 43.7422 72.424C42.2092 70.891 42.1211 70.3084 42.1211 70.3084C42.1211 70.3084 42.6691 68.8368 42.8876 68.1622C43.221 67.1696 43.5046 66.0122 44.0948 65.6826L44.1945 67.0048C44.7847 67.8595 45.831 68.5378 47.6437 69.6416C50.384 71.2512 51.8211 71.6536 52.0741 72.171Z" fill="#F5F5F5"/>
<path d="M52.714 68.304L52.5875 66.0045C52.8151 66.0105 53.0428 66.0041 53.2697 65.9854C54.7835 65.9854 57.3935 71.6038 57.6464 72.8609C56.7726 71.9947 55.2434 70.9446 54.8257 72.125C54.4923 74.6123 53.5456 75.3673 53.5456 75.3673C53.5456 75.3673 54.3121 71.1669 52.714 68.304Z" fill="#E0E0E0"/>
<path d="M47.3639 139.121L49.0195 147.334L50.6254 148.261L52.2235 147.342L53.8906 139.121L50.6254 137.235L47.3639 139.121Z" fill="#455A64"/>
<path d="M50.6254 148.261V141.007L47.3639 139.121L49.0195 147.334L50.6254 148.261Z" fill="#37474F"/>
<path opacity="0.2" d="M47.3639 139.121L48.4332 144.425L50.6254 145.694L52.8137 144.429L53.8906 139.121L50.6254 137.235L47.3639 139.121Z" fill="black"/>
<path d="M24.2654 125.784L25.921 133.997L27.5307 134.928L29.125 134.005L30.7921 125.784L27.5307 123.898L24.2654 125.784Z" fill="#455A64"/>
<path d="M27.5307 134.928V127.669L24.2654 125.784L25.921 133.997L27.5307 134.928Z" fill="#37474F"/>
<path opacity="0.2" d="M24.2654 125.784L25.3346 131.088L27.5307 132.357L29.7152 131.092L30.7921 125.784L27.5307 123.898L24.2654 125.784Z" fill="black"/>
<path d="M20.9271 96.8217L25.1122 94.4072L54.8102 111.554L50.629 113.968L20.9271 96.8217Z" fill="#007BFF"/>
<g opacity="0.4">
<path d="M20.9271 96.8217L25.1122 94.4072L54.8102 111.554L50.629 113.968L20.9271 96.8217Z" fill="white"/>
</g>
<path d="M50.6292 113.968V144.452L54.8104 142.038V111.554L50.6292 113.968Z" fill="#007BFF"/>
<path d="M20.9271 96.8217V127.302L50.6252 144.452V113.972L20.9271 96.8217ZM48.18 140.229L23.3569 125.899V101.045L48.18 115.379V140.229Z" fill="#007BFF"/>
<path opacity="0.3" d="M20.9271 96.8217V127.302L50.6252 144.452V113.972L20.9271 96.8217ZM48.18 140.229L23.3569 125.899V101.045L48.18 115.379V140.229Z" fill="black"/>
<path d="M27.55 123.48L23.3649 125.899L48.1918 140.228V135.396L27.55 123.48Z" fill="#007BFF"/>
<path opacity="0.5" d="M27.55 123.48L23.3649 125.899L48.1918 140.228V135.396L27.55 123.48Z" fill="black"/>
<path d="M27.5499 123.481L23.361 125.895V101.049L27.5422 103.463L27.5499 123.481Z" fill="#007BFF"/>
<path opacity="0.5" d="M27.5499 123.481L23.361 125.895V101.049L27.5422 103.463L27.5499 123.481Z" fill="black"/>
<path d="M68.2053 96.0858C66.9405 96.2315 65.6988 96.4691 64.4456 96.6952C63.1664 96.9268 61.8664 97.0231 60.5671 96.9826C60.5134 96.9826 60.4406 96.9558 60.4445 96.9022C60.4501 96.8771 60.4652 96.8551 60.4866 96.8408C60.9976 96.4619 61.484 96.0511 61.943 95.6106C62.17 95.3856 62.3309 95.1025 62.4079 94.7923C62.485 94.482 62.4753 94.1566 62.3799 93.8515C62.3625 93.8083 62.3364 93.7692 62.3032 93.7365C62.1997 93.6446 62.0349 93.6905 61.92 93.7365C61.5367 93.9282 61.2071 94.1964 60.797 94.3536C60.3865 94.5196 59.9652 94.6579 59.5362 94.7675C59.0111 94.8978 58.4669 94.9629 57.961 95.1507C57.269 95.4252 56.6375 95.8328 56.1022 96.3503C55.6706 96.7975 55.1222 97.1148 54.5194 97.2663C53.178 97.5959 52.1739 97.615 49.2536 97.3851C46.8262 97.2088 44.4097 96.9056 42.014 96.4768L42.3052 83.7874C42.3052 77.5787 40.8144 73.1368 39.0629 72.0522C37.966 72.6735 37.0085 73.5136 36.2499 74.5204C35.2649 75.9576 35.0618 78.4602 34.395 84.4849C33.9236 88.7619 33.7358 94.6218 33.6744 98.4965C33.6055 102.808 35.3569 103.988 39.2469 104.218C42.7366 104.377 46.2333 104.265 49.7058 103.885C50.9552 103.77 58.9651 103.659 60.2797 103.375C61.4226 103.157 62.4637 102.573 63.246 101.712C63.4376 101.494 63.6293 101.26 63.7941 101.037C63.9236 100.841 64.0918 100.673 64.2884 100.543C64.4532 100.455 64.6295 100.394 64.7905 100.298C64.9804 100.179 65.1413 100.019 65.2613 99.8304C65.3814 99.6413 65.4575 99.4278 65.4842 99.2055C65.5877 98.577 66.2507 98.3815 66.7681 98.1822C67.8598 97.8014 68.9295 97.36 69.972 96.86C69.9995 96.848 70.0214 96.8261 70.0334 96.7987C70.0429 96.7675 70.0429 96.7341 70.0334 96.7029C69.8494 95.9402 68.7763 96.0207 68.2053 96.0858Z" fill="#B16668"/>
<path d="M39.1511 71.8378C37.1199 72.9607 35.2649 74.0338 34.0155 76.1033C32.7661 78.1729 32.4212 81.9977 32.7278 89.816C32.9922 96.5076 33.2567 100.102 33.3678 101.218C33.479 102.333 34.4486 104.038 37.2003 104.284C39.0437 104.418 40.8941 104.425 42.7383 104.303C42.7383 104.303 42.2056 99.4662 44.2521 96.7912L42.1404 96.4079L42.562 82.4615C42.654 80.572 42.3857 74.3136 39.1511 71.8378Z" fill="#007BFF"/>
<path opacity="0.15" d="M39.1511 71.8378C37.1199 72.9607 35.2649 74.0338 34.0155 76.1033C32.7661 78.1729 32.4212 81.9977 32.7278 89.816C32.9922 96.5076 33.2567 100.102 33.3678 101.218C33.479 102.333 34.4486 104.038 37.2003 104.284C39.0437 104.418 40.8941 104.425 42.7383 104.303C42.7383 104.303 42.2056 99.4662 44.2521 96.7912L42.1404 96.4079L42.562 82.4615C42.654 80.572 42.3857 74.3136 39.1511 71.8378Z" fill="white"/>
<path opacity="0.15" d="M42.1555 96.3964C40.0668 96.2354 37.1733 96.5957 35.9507 97.7454C35.9507 97.7454 36.7172 95.6989 42.1862 95.377L42.1555 96.3964Z" fill="black"/>
<path d="M50.2057 41.6847L48.1907 37.8957L49.8102 33.2167V30.3734L44.8654 33.2414V36.1218L47.004 39.8304C47.0352 39.8885 47.0854 39.9343 47.1461 39.9602L50.2057 41.6847Z" fill="#007BFF"/>
<path opacity="0.2" d="M50.2057 41.6847L48.1907 37.8957L49.8102 33.2167V30.3734L44.8654 33.2414V36.1218L47.004 39.8304C47.0352 39.8885 47.0854 39.9343 47.1461 39.9602L50.2057 41.6847Z" fill="black"/>
<path d="M62.055 7.60284C62.0279 7.08611 61.8788 6.58313 61.6199 6.13512C61.361 5.68711 60.9996 5.30681 60.5654 5.02537L59.3292 4.32691C58.8688 4.09244 58.3594 3.97021 57.8427 3.97021C57.326 3.97021 56.8166 4.09244 56.3561 4.32691L37.8131 15.0695C37.3796 15.3517 37.0187 15.7322 36.7599 16.18C36.5011 16.6279 36.3516 17.1305 36.3235 17.647V38.0876C36.3525 38.6039 36.5025 39.1061 36.7612 39.5538C37.02 40.0015 37.3803 40.3822 37.8131 40.6651L39.0493 41.3635C39.5098 41.598 40.0191 41.7202 40.5358 41.7202C41.0526 41.7202 41.5619 41.598 42.0224 41.3635L47.9994 37.9083L50.1257 41.6169C50.1555 41.6704 50.2004 41.7141 50.2546 41.7425C50.3089 41.7709 50.3703 41.7829 50.4313 41.777C50.4923 41.7711 50.5502 41.7476 50.598 41.7093C50.6458 41.671 50.6814 41.6195 50.7005 41.5613L52.8948 35.0465L60.5469 30.6147C60.9784 30.3325 61.3375 29.9527 61.5952 29.506C61.8529 29.0593 62.002 28.5583 62.0303 28.0434L62.055 7.60284Z" fill="#007BFF"/>
<path d="M57.3078 21.5965V19.2725C57.3078 18.8521 57.0173 18.6853 56.6526 18.8954L52.672 21.1886V16.5961C52.672 16.1758 52.3753 15.978 52.0107 16.2129L50.0018 17.3749C49.8094 17.5 49.6492 17.6688 49.5343 17.8675C49.4194 18.0662 49.353 18.2892 49.3405 18.5184V23.1418L45.3599 25.4411C45.1683 25.5666 45.009 25.7355 44.8952 25.9343C44.7813 26.133 44.716 26.3558 44.7047 26.5846V28.9025C44.7047 29.3228 44.9952 29.5206 45.3599 29.2857L49.3405 26.9864V31.5788C49.3405 32.0053 49.6372 32.197 50.0018 31.9621L52.0107 30.8C52.2026 30.6759 52.3626 30.5082 52.4775 30.3106C52.5924 30.1129 52.6591 29.891 52.672 29.6627V25.0641L56.6526 22.7647C56.8483 22.6376 57.0101 22.4649 57.1243 22.2614C57.2384 22.0579 57.3014 21.8297 57.3078 21.5965Z" fill="#FAFAFA"/>
<path opacity="0.2" d="M36.3174 38.0875C36.3464 38.6038 36.4964 39.1061 36.7551 39.5538C37.0139 40.0015 37.3742 40.3821 37.807 40.665L39.0432 41.3635C39.4627 41.5734 39.9218 41.6924 40.3905 41.7126C40.8592 41.7329 41.3268 41.6539 41.7629 41.4809C41.0644 41.7467 40.5267 41.3511 40.5267 40.5043V20.0514C40.5438 19.5333 40.695 19.0286 40.9655 18.5864L36.7748 16.1697C36.5088 16.6134 36.3599 17.1175 36.3421 17.6346L36.3174 38.0875Z" fill="black"/>
<path opacity="0.3" d="M62.0058 7.17635C61.8327 6.55825 61.2579 6.34192 60.5718 6.7375L41.9917 17.4863C41.5496 17.7582 41.1871 18.142 40.9409 18.5989L36.7563 16.1821C37.006 15.7277 37.3677 15.3447 37.8071 15.0695L56.3501 4.32691C56.8106 4.09244 57.32 3.97021 57.8367 3.97021C58.3534 3.97021 58.8628 4.09244 59.3232 4.32691L60.5594 5.02537C60.9344 5.26638 61.2561 5.58152 61.5048 5.95142C61.7536 6.32132 61.924 6.73817 62.0058 7.17635Z" fill="white"/>
</svg>
